<?xml version="1.0" encoding="utf-8"?>
<!-- Generator: Adobe Illustrator 27.5.0, SVG Export Plug-In . SVG Version: 6.00 Build 0)  -->
<svg version="1.1" xmlns="http://www.w3.org/2000/svg" xmlns:xlink="http://www.w3.org/1999/xlink" x="0px" y="0px"
	 viewBox="0 0 3710 3710" style="enable-background:new 0 0 3710 3710;" xml:space="preserve">
<g id="Background">
	<g>
		<g>
			<rect style="fill:#FFFFFF;" width="3710" height="3710"/>
		</g>
	</g>
</g>
<g id="Illustration">
	<g>
		<linearGradient id="SVGID_1_" gradientUnits="userSpaceOnUse" x1="3406.3142" y1="3605.4509" x2="1357.854" y2="1394.4143">
			<stop  offset="0" style="stop-color:#DAE3FE"/>
			<stop  offset="1" style="stop-color:#E9EFFD"/>
		</linearGradient>
		<path style="fill:url(#SVGID_1_);" d="M3120.55,2345.572c-281.406,658.047-1024.227,940.694-1606.238,892.502
			c-158.913-13.158-478.649-39.633-728.302-275.827C306.57,2508.652,380.408,1560.512,839.37,1002.3
			c59.105-71.886,468.22-553.516,1105.749-547.07c466.764,4.72,794.381,268.507,834.219,301.37
			c50.325,41.515,161.321,140.166,261.355,296.671C3275.739,1421.002,3296.4,1934.358,3120.55,2345.572z"/>
		<g>
			<path style="fill:#BDD0FB;" d="M1342.997,2598.615c0,0-346.302-227.781-358.083-725.355
				c-11.451-483.63,81.703-1145.132-421.164-1414.048c-16.937-9.057-36.567,6.467-31.644,25.031
				c29.105,109.761,94.034,394.756,73.2,686.774C578.713,1543.774,701.676,2452.822,1342.997,2598.615z"/>
			<path style="opacity:0.47;fill:#FFFFFF;" d="M656.965,643.157l1.877,1.67l1.491,1.428c0.997,0.945,1.934,1.879,2.829,2.803
				c1.854,1.853,3.603,3.726,5.348,5.601c3.474,3.762,6.85,7.559,10.104,11.438c3.325,3.835,6.423,7.807,9.605,11.735
				c3.023,4.026,6.18,7.97,9.09,12.07c11.871,16.255,22.751,33.151,32.791,50.51c20.133,34.697,36.493,71.439,49.744,109.169
				c13.124,37.786,23.172,76.586,30.2,115.885c7.04,39.307,10.753,79.127,11.952,118.93c1.166,39.815-0.339,79.636-3.973,119.204
				l-3.113,29.634l-4.104,29.496c-1.341,9.922-2.832,19.368-4.242,29.076c-1.464,9.643-2.881,19.292-3.994,28.986
				c-9.974,77.403-14.455,155.574-14.094,233.726l0.315,29.313l0.932,29.303c0.233,9.772,0.787,19.529,1.336,29.288
				c0.597,9.755,0.919,19.53,1.74,29.27c2.618,39.018,6.816,77.912,11.858,116.697c5.201,38.768,11.753,77.348,19.383,115.728
				c7.901,38.322,17.149,76.363,27.661,114.069c10.76,37.633,23.012,74.837,36.715,111.517
				c13.827,36.633,29.395,72.609,46.597,107.808c17.134,35.24,36.5,69.407,57.878,102.281
				c21.372,32.878,44.825,64.459,70.627,94.101c-26.538-28.981-50.829-60.019-73.095-92.453
				c-22.273-32.434-42.59-66.262-60.7-101.243c-18.152-34.949-34.854-70.705-49.401-107.346
				c-14.513-36.646-27.584-73.868-39.164-111.565c-11.331-37.767-21.399-75.917-30.119-114.39
				c-8.434-38.529-15.846-77.297-21.794-116.308c-5.663-39.044-10.476-78.232-13.699-117.575c-0.973-9.822-1.445-19.68-2.192-29.521
				c-0.7-9.844-1.403-19.69-1.785-29.552l-1.377-29.579l-0.755-29.603c-1.527-78.953,1.831-158.074,10.783-236.667
				c0.986-9.84,2.277-19.644,3.616-29.442l3.885-29.288l3.791-28.897l2.813-28.993c3.245-38.686,4.403-77.519,2.966-116.231
				c-2.929-77.378-16.106-154.373-41.354-227.301c-6.464-18.16-13.375-36.177-21.411-53.682c-7.9-17.558-16.387-34.866-25.92-51.569
				c-9.462-16.738-19.723-33.015-30.869-48.597c-5.576-7.785-11.365-15.406-17.392-22.761c-2.993-3.7-6.085-7.296-9.212-10.805
				c-1.57-1.748-3.142-3.492-4.735-5.137c-0.797-0.855-1.586-1.668-2.359-2.424l-1.146-1.142l-0.851-0.804l-0.776-0.733
				c-4.664-4.404-4.875-11.757-0.47-16.422C645.119,639.286,652.291,639.008,656.965,643.157z"/>
		</g>
		<g>
			<path style="fill:#91B3FA;" d="M468.929,1039.672c-10.607,187.296-49.123,1340.408,584.599,1664.938
				c19.186,9.825,42.022-4.084,42.133-25.64c0.709-137.178-22.279-571.404-307.241-1066.557
				c-205.6-357.253-283.054-519.327-307.772-574.891C478.032,1031.641,469.293,1033.245,468.929,1039.672z"/>
			<path style="opacity:0.47;fill:#FFFFFF;" d="M1093.644,2685.384c-1.461-0.459-2.775-1.419-3.661-2.812
				c-182.149-287.145-314.802-606.179-394.009-823.252c-85.095-233.214-132.681-415.154-130.095-425.899
				c0.87-3.608,4.5-5.829,8.111-4.961c3.323,0.823,5.513,4.002,5.099,7.351c0.969,25.652,176.291,694.18,522.25,1239.557
				c1.988,3.135,1.059,7.289-2.076,9.278C1097.521,2685.752,1095.467,2685.956,1093.644,2685.384z M578.956,1436.555
				c-0.002,0.006-0.003,0.009-0.003,0.016C578.953,1436.564,578.955,1436.558,578.956,1436.555z"/>
		</g>
		<g>
			<g>
				<path style="fill:#7D97F4;" d="M3250.821,1025.032V3030.04l-71.76-32.998c-184.659-85.63-662.844-143.169-1189.51-143.169
					c-410.07,0-790.637,34.892-1026.235,90.78c-66.965,15.892-121.804,33.437-162.684,52.39l-71.156,32.998V1025.032l70.858,32.998
					c184.618,85.63,662.374,143.169,1188.996,143.169c281.003,0,548.501-16.376,765.036-44.661
					c189.308-24.736,338.612-58.56,424.728-98.508L3250.821,1025.032z"/>
				<path style="fill:#7D97F4;" d="M781.705,1841.508v1100.397c184.88-86.281,655.845-147.516,1207.414-147.516
					c384.405,0,730.594,29.735,967.477,76.986c103.063,20.536,184.85,44.37,241.995,70.53V1841.508H781.705z"/>
				<path style="fill:#91B3FA;" d="M2382.944,1246.523c-108.721,6.132-222.007,9.755-341.075,10.499
					c-16.126,0.141-33.91,0.186-50.158,0.186c-551.569,0-1021.765-61.19-1210.007-147.516v755.345h2416.886v-755.345
					C3064.133,1174.646,2758.7,1225.382,2382.944,1246.523z"/>
				<path style="fill:#91B3FA;" d="M3124.328,2466.243c-4.972,15.363-12.545,30.525-22.603,45.229
					c-101.489,148.386-169.162,265.949-206.759,345.631c-220.797-29.15-547.162-72.15-905.369-62.714
					c-540.78,14.246-663.049,16.67-1128.116,122.328l-7.144-11.146c7.617-128.266,79.187-229.715,174.359-279.05
					c80.921-41.947,191.11-81.696,340.173-115.049c704.472-157.645,1180.201-80.513,1143.847-281.124
					c-33.039-182.495-336.036-120.409-418.54-274.958c-11.828-22.156,183.282-68.286,193.68-97.408
					c110.982-0.459,70.15,15.379,171.488,11.596c-5.349,7.079-75.933,21.354-78.683,27.831
					c-9.756,23.132,17.797,55.686,39.12,68.297c30.854,18.258,69.581,26.887,104.051,40.272
					c72.595,28.204,144.172,60.649,215.447,90.889c135.243,57.383,297.234,133.768,367.305,243.518
					c7.722,12.124,13.638,24.535,17.743,37.061C3133.973,2406.796,3133.822,2436.921,3124.328,2466.243z"/>
			</g>
			
				<linearGradient id="SVGID_00000162312412982440308320000007138576270595852425_" gradientUnits="userSpaceOnUse" x1="1947.4012" y1="2143.9451" x2="2068.408" y2="1357.4044">
				<stop  offset="0" style="stop-color:#4042E2"/>
				<stop  offset="1" style="stop-color:#4F52FF"/>
			</linearGradient>
			<path style="fill:url(#SVGID_00000162312412982440308320000007138576270595852425_);" d="M3179.732,1902.533
				c16.048,0.148,14.518-23.831,2.196-35.802l-156.385-159.937c-20.229-19.652-46.57-24.848-70.308-13.87l-97.794,45.225
				c-25.128,11.62-53.061,5.08-73.575-17.229l-174.634-189.915c-23.318-25.359-55.9-30.074-82.869-11.992l-412.327,276.453
				c-25.631,17.186-56.468,13.841-79.603-8.633l-123.13-119.615c-20.228-19.651-46.57-24.849-70.307-13.871l-112.091,51.837
				c-25.128,11.62-53.06,5.08-73.574-17.229l-194.598-211.625c-23.318-25.359-55.9-30.073-82.869-11.992l-590.48,395.9
				c-1.522,1.021-2.315,3.272-1.921,5.455c0.394,2.182,1.873,3.728,3.582,3.744L3179.732,1902.533z"/>
		</g>
		<g>
			<path style="fill:#91B3FA;" d="M2424.351,719.84c0,146.267-137.195,264.84-283.462,264.84
				c-146.267,0-264.84-118.573-264.84-264.84S1994.622,455,2140.889,455C2287.157,455,2424.351,573.573,2424.351,719.84z"/>
			<path style="opacity:0.65;fill:#FFFFFF;" d="M2366.417,719.84c0.044,27.728-5.341,55.526-15.786,81.312
				c-10.428,25.801-25.91,49.563-45.328,69.653c-19.425,20.069-42.76,36.559-68.602,47.861
				c-25.779,11.404-53.964,17.736-82.362,18.426c-28.382,0.681-57.163-4.168-83.944-14.613
				c-26.752-10.468-51.557-26.236-72.332-46.363c-20.779-20.11-37.554-44.489-48.897-71.282
				c-5.648-13.399-10.032-27.364-12.894-41.642c-2.864-14.275-4.309-28.826-4.358-43.352c0.049-14.526,1.494-29.077,4.358-43.352
				c2.861-14.278,7.245-28.243,12.894-41.642c11.343-26.793,28.119-51.172,48.897-71.282c20.776-20.127,45.58-35.895,72.332-46.363
				c26.781-10.444,55.562-15.294,83.944-14.613c28.398,0.69,56.583,7.022,82.362,18.426c25.843,11.302,49.178,27.792,68.602,47.861
				c19.419,20.091,34.901,43.852,45.328,69.653C2361.076,664.314,2366.461,692.112,2366.417,719.84z M2337.451,719.84
				c-0.052-12.006-1.308-23.985-3.779-35.724c-2.469-11.74-6.265-23.204-11.138-34.212c-9.794-22.003-24.298-42.045-42.259-58.542
				c-17.961-16.512-39.381-29.364-62.364-37.847c-23.026-8.452-47.664-12.285-72.089-11.614
				c-48.925,1.274-95.93,21.631-128.895,54.773c-16.539,16.478-29.689,35.902-38.525,56.913
				c-8.846,21.008-13.418,43.568-13.383,66.254c-0.035,22.686,4.537,45.246,13.383,66.253c8.836,21.011,21.986,40.436,38.525,56.913
				c32.965,33.141,79.971,53.499,128.895,54.773c24.425,0.671,49.063-3.162,72.089-11.614c22.983-8.483,44.403-21.335,62.364-37.847
				c17.962-16.497,32.466-36.539,42.259-58.542c4.873-11.008,8.668-22.472,11.138-34.212
				C2336.143,743.825,2337.399,731.846,2337.451,719.84z"/>
			<path style="fill:#FFFFFF;" d="M2211.067,615.352c-24.661,0-46.623,12.933-60.866,33.081
				c-14.243-20.148-36.206-33.081-60.866-33.081c-42.937,0-77.745,39.159-77.745,87.464c0,3.907,0.63,8.116,1.779,12.55h16.858
				l40.274-44.109c2.418-2.648,6.001-3.901,9.555-3.348c3.545,0.56,6.572,2.863,8.056,6.132l32.588,71.691l33.174-60.026
				c1.978-3.581,5.825-5.709,9.916-5.499c4.085,0.217,7.688,2.75,9.276,6.521l13.8,32.777h38.104
				c5.899,0,10.681,4.783,10.681,10.681c0,5.899-4.782,10.681-10.681,10.681h-45.197c-4.297,0-8.176-2.576-9.845-6.537
				l-8.007-19.022l-32.803,59.357c-1.885,3.411-5.471,5.514-9.346,5.514c-0.139,0-0.28-0.004-0.419-0.009
				c-4.035-0.158-7.635-2.576-9.306-6.253l-34.684-76.303l-32.536,35.635c-2.024,2.217-4.887,3.479-7.887,3.479h-12.985
				c22.139,42.574,75.137,95.218,112.55,119.223c9.474,6.079,21.742,5.543,30.676-1.304
				c41.636-31.906,123.633-109.322,123.633-151.832C2288.812,654.511,2254.004,615.352,2211.067,615.352z"/>
		</g>
		<g>
			<path style="fill:#91B3FA;" d="M2926.441,902.985c0,128.042-120.1,231.841-248.142,231.841s-231.84-103.799-231.84-231.841
				s103.798-231.84,231.84-231.84S2926.441,774.943,2926.441,902.985z"/>
			<path style="opacity:0.65;fill:#FFFFFF;" d="M2875.726,902.985c0.038,24.273-4.676,48.608-13.819,71.18
				c-9.128,22.586-22.681,43.387-39.68,60.974c-17.004,17.569-37.432,32.004-60.054,41.898c-22.567,9.983-47.24,15.526-72.1,16.13
				c-24.845,0.596-50.041-3.649-73.484-12.792c-23.418-9.163-45.133-22.967-63.319-40.586c-18.189-17.604-32.875-38.946-42.804-62.4
				c-4.945-11.73-8.782-23.954-11.287-36.453c-2.507-12.497-3.772-25.234-3.815-37.95c0.043-12.716,1.308-25.454,3.815-37.951
				c2.505-12.499,6.343-24.723,11.287-36.453c9.93-23.454,24.615-44.796,42.804-62.4c18.187-17.619,39.901-31.423,63.319-40.586
				c23.444-9.143,48.639-13.388,73.484-12.792c24.859,0.604,49.532,6.147,72.1,16.13c22.623,9.894,43.05,24.329,60.054,41.898
				c16.999,17.587,30.552,38.388,39.68,60.974C2871.05,854.378,2875.764,878.712,2875.726,902.985z M2850.368,902.985
				c-0.045-10.51-1.145-20.997-3.308-31.272c-2.162-10.278-5.484-20.313-9.75-29.949c-8.573-19.261-21.27-36.806-36.994-51.247
				c-15.723-14.455-34.474-25.705-54.593-33.131c-20.157-7.399-41.725-10.754-63.107-10.167
				c-42.828,1.115-83.977,18.936-112.834,47.948c-14.478,14.424-25.99,31.429-33.724,49.822
				c-7.744,18.39-11.746,38.139-11.715,57.998c-0.031,19.859,3.971,39.608,11.715,57.998c7.735,18.393,19.247,35.397,33.724,49.822
				c28.858,29.012,70.006,46.833,112.834,47.948c21.382,0.587,42.95-2.768,63.107-10.167c20.12-7.426,38.871-18.677,54.593-33.131
				c15.724-14.441,28.42-31.986,36.994-51.247c4.265-9.636,7.588-19.672,9.75-29.949
				C2849.224,923.982,2850.323,913.496,2850.368,902.985z"/>
			<path style="fill:#FFFFFF;" d="M2723.851,782.705v142.092c0,2.586-2.846,4.258-5.036,2.883
				c-15.841-9.946-40.174-12.306-64.743-4.532c-36.779,11.638-60.116,41.548-52.123,66.806
				c7.992,25.258,44.715,37.576,81.066,24.661c56.419-20.044,53.302-63.679,53.302-63.679v-138.44c0-3.925,4.103-6.508,7.624-4.773
				c13.945,6.874,42.339,25.315,44.511,62.245c0.14,2.376,3.617,2.509,3.897,0.146c3.086-26.046-2.06-67.195-53.976-95.92
				C2731.862,770.591,2723.851,775.262,2723.851,782.705z"/>
		</g>
		<g>
			
				<linearGradient id="SVGID_00000005961050513213259540000007317075752372715702_" gradientUnits="userSpaceOnUse" x1="2346.1521" y1="627.8544" x2="1523.4904" y2="4932.8457">
				<stop  offset="0" style="stop-color:#09005D"/>
				<stop  offset="1" style="stop-color:#1A0F91"/>
			</linearGradient>
			<path style="fill:url(#SVGID_00000005961050513213259540000007317075752372715702_);" d="M3205.027,3255H521.936
				c-20.147,0-36.479-16.332-36.479-36.479v-117.669h2703.378l46.404,108.34C3244.528,3230.879,3228.619,3255,3205.027,3255z"/>
			
				<linearGradient id="SVGID_00000163792288446871511050000017960238856829783170_" gradientUnits="userSpaceOnUse" x1="2941.3147" y1="3442.0518" x2="2820.3032" y2="1573.0847">
				<stop  offset="0" style="stop-color:#09005D"/>
				<stop  offset="1" style="stop-color:#1A0F91"/>
			</linearGradient>
			<polygon style="fill:url(#SVGID_00000163792288446871511050000017960238856829783170_);" points="3235.794,3225.448 
				2691.058,1780.103 2527.637,1817.68 3056.031,3255 			"/>
			
				<linearGradient id="SVGID_00000156579222210026054030000017025328710011037836_" gradientUnits="userSpaceOnUse" x1="2480.887" y1="-373.8063" x2="2531.3064" y2="-30.955">
				<stop  offset="0" style="stop-color:#FF928E"/>
				<stop  offset="1" style="stop-color:#FE7062"/>
			</linearGradient>
			<path style="fill:url(#SVGID_00000156579222210026054030000017025328710011037836_);" d="M2503.65,1806.222l613.912-381.891
				c8.355-5.198,8.425-17.335,0.129-22.628l-61.28-39.098c-16.767-10.698-38.284-10.419-54.769,0.709l-575.429,388.446
				c-12.201,8.236-13.553,25.688-2.766,35.705l13.258,12.313C2455.012,1816.778,2482.436,1819.418,2503.65,1806.222z"/>
			
				<linearGradient id="SVGID_00000029755118526017541080000004787195340242691729_" gradientUnits="userSpaceOnUse" x1="2818.0674" y1="3450.0332" x2="2697.0557" y2="1581.0608">
				<stop  offset="0" style="stop-color:#09005D"/>
				<stop  offset="1" style="stop-color:#1A0F91"/>
			</linearGradient>
			<path style="fill:url(#SVGID_00000029755118526017541080000004787195340242691729_);" d="M3184.698,1430.921l-40.4-25.774
				c-10.594-6.761-24.191-6.163-34.608,0.87l-481.186,325.214c-30.079,20.329-65.553,31.192-101.857,31.192h-293.649
				c-17.785,0-32.203,14.418-32.203,32.203v34.022c0,14.509,11.871,26.38,26.38,26.38h314.167l138.82-48.585l504.181-313.633
				C3207.196,1478.596,3207.387,1445.396,3184.698,1430.921z"/>
			
				<linearGradient id="SVGID_00000070107724105872724500000001563764133898268292_" gradientUnits="userSpaceOnUse" x1="1771.3499" y1="1290.8389" x2="1766.3081" y2="1936.2029">
				<stop  offset="0" style="stop-color:#4042E2"/>
				<stop  offset="1" style="stop-color:#4F52FF"/>
			</linearGradient>
			<path style="fill:url(#SVGID_00000070107724105872724500000001563764133898268292_);" d="M3028.794,3150.756H485.457v-78.191
				c0-6.046,4.901-10.947,10.947-10.947h2532.391V3150.756z"/>
			
				<linearGradient id="SVGID_00000132087222542586527860000000446218255599724418_" gradientUnits="userSpaceOnUse" x1="5123.543" y1="893.4073" x2="3832.7434" y2="2170.76">
				<stop  offset="0" style="stop-color:#09005D"/>
				<stop  offset="1" style="stop-color:#1A0F91"/>
			</linearGradient>
			<path style="fill:url(#SVGID_00000132087222542586527860000000446218255599724418_);" d="M2495.367,3132.013
				c104.749,58.124,491.394,102,725.193,42.306c61.737-116.878-18.961-358.74-133.98-382.909
				c-193.541,52.142-391.791,162.101-592.895,307.052C2481.938,3106.93,2482.705,3124.987,2495.367,3132.013z"/>
		</g>
		<g>
			
				<linearGradient id="SVGID_00000060736152110936051920000011459565013741004935_" gradientUnits="userSpaceOnUse" x1="2225.2253" y1="2793.7034" x2="2170.656" y2="3300.9949">
				<stop  offset="0" style="stop-color:#09005D"/>
				<stop  offset="1" style="stop-color:#1A0F91"/>
			</linearGradient>
			<path style="fill:url(#SVGID_00000060736152110936051920000011459565013741004935_);" d="M2068.45,2959.998l-7.577,24.826
				c-2.036,6.672-0.347,13.949,4.474,18.991c44.313,46.349,90.454,87.578,142.775,111.136c14.887,6.703,31.26,9.384,47.566,8.576
				c41.481-2.056,83.969-9.338,80.137-22.121l-1.106-28.851L2068.45,2959.998z"/>
			<g>
				
					<linearGradient id="SVGID_00000028290270181234221100000012254166498084527016_" gradientUnits="userSpaceOnUse" x1="1748.1614" y1="953.6177" x2="1009.8782" y2="1062.7999">
					<stop  offset="0" style="stop-color:#4042E2"/>
					<stop  offset="1" style="stop-color:#4F52FF"/>
				</linearGradient>
				<path style="fill:url(#SVGID_00000028290270181234221100000012254166498084527016_);" d="M1461.2,887.446
					c0,0-148.216-114.426-243.945,55.858c-95.728,170.284-136.301,221.291-164.625,175.695c-1.454,10.464-2.181,27.607,6.116,43.726
					c15.783,30.664,52.852,35.531,72.292,38.084c56.286,7.39,108.134-11.003,119.535-25.719
					C1414.069,964.063,1460.281,956.726,1461.2,887.446z"/>
				
					<linearGradient id="SVGID_00000092451990986133326860000009980463744373740434_" gradientUnits="userSpaceOnUse" x1="526.3823" y1="2547.0308" x2="1507.9301" y2="2513.416">
					<stop  offset="0" style="stop-color:#FEBBBA"/>
					<stop  offset="1" style="stop-color:#FF928E"/>
				</linearGradient>
				<path style="fill:url(#SVGID_00000092451990986133326860000009980463744373740434_);" d="M1274.671,2395.028
					c-4.882,29.031,0.079,56.677-4.536,85.047c-1.603,9.846-6.475,21.279-16.374,22.497c-6.081,0.748-11.756-2.788-16.981-5.983
					c-67.634-41.365-151.534-46.855-230.353-38.316c-78.804,8.538-155.827,29.838-234.682,37.884
					c-22.862,2.332-47.02,3.621-69.601-1.635c-27.46-6.392-34.042-25.406-53.667-35.55c-20.767-10.733-10.581-18.597-33.422-13.611
					c-11.995,2.619-45.164,26.278-48.005,38.221c-5.22,21.959-4.435,21.184-19.547,42.701
					c-10.624,15.131-31.586,20.203-44.889,32.402c-32.242,29.566-31.225,73.396-25.633,113.71
					c1.278,9.22,10.179,21.341,16.702,14.702c2.456-2.5,2.413-6.429,2.559-9.931c1.519-36.538,37.864-60.284,70.026-77.688
					c39.183-21.2,79.954-42.875,124.413-45.69c37.216-2.356,73.773,8.74,109.931,17.859c144.04,36.312,294.765,38.62,440.513,68.822
					c55.795,11.562,85.873-15.309,113.097-62.019c28.671-49.194,56.131-99.089,82.428-149.586
					c-50.601-24.154-103.902-40.84-159.462-48.258C1276.343,2385.411,1275.48,2390.215,1274.671,2395.028z"/>
				
					<linearGradient id="SVGID_00000000203822597925514780000007437859334304179623_" gradientUnits="userSpaceOnUse" x1="1400.0372" y1="2242.0188" x2="1642.0514" y2="1707.5719">
					<stop  offset="0" style="stop-color:#09005D"/>
					<stop  offset="1" style="stop-color:#1A0F91"/>
				</linearGradient>
				<path style="fill:url(#SVGID_00000000203822597925514780000007437859334304179623_);" d="M1529.73,2015.762
					c-38.122-15.113-82.812-22.272-122.484-8.892c-44.18,14.902-54.359,61.102-67.347,101.86
					c-20.913,65.631-38.714,132.253-53.331,199.565c-7.31,33.657-13.818,67.486-19.532,101.45
					c-1.895,11.274-2.3,22.337-2.364,33.317c51.654,2.121,103.84,10.062,148.52,30.528c28.786-54.023,56.236-108.754,82.225-164.176
					c22.929-48.894,44.636-98.328,65.446-148.158C1588.446,2095.241,1615.127,2049.614,1529.73,2015.762z"/>
				
					<linearGradient id="SVGID_00000010270854652563556720000017361212720347712921_" gradientUnits="userSpaceOnUse" x1="1813.9388" y1="1394.8351" x2="2499.6411" y2="1288.9545">
					<stop  offset="0" style="stop-color:#FEBBBA"/>
					<stop  offset="1" style="stop-color:#FF928E"/>
				</linearGradient>
				<path style="fill:url(#SVGID_00000010270854652563556720000017361212720347712921_);" d="M2133.102,1395.733
					c51.006-13.253,97.249-41.734,136.566-76.303c20.788-18.278,74.755-105.88,102.641-102.323c6.501,0.829,12.163,4.704,17.434,8.6
					c10.578,7.818,20.748,16.187,30.454,25.063c49.977,45.703-20.863,65.411-52.067,87.33c6.597-4.634,11.037-23.029,13.37-30.294
					c-4.974-4.617-9.554-3.313-14.615,0.981c-71.035,60.281-140.941,123.948-224.447,165.26
					c-117.999,58.376-252.097,51.436-361.184-23.412c-55.119-37.818-66.542-80.397-71.015-145.696
					c-1.688-24.646,6.969-57.763,35.805-39.968c63.357,39.098,117.833,90.618,187.65,116.484
					C1997.459,1405.08,2067.163,1412.865,2133.102,1395.733z"/>
				
					<linearGradient id="SVGID_00000109743358583500800520000016297615172527291583_" gradientUnits="userSpaceOnUse" x1="1154.9022" y1="1933.1223" x2="1786.7886" y2="849.8868">
					<stop  offset="0" style="stop-color:#FEBBBA"/>
					<stop  offset="1" style="stop-color:#FF928E"/>
				</linearGradient>
				<path style="fill:url(#SVGID_00000109743358583500800520000016297615172527291583_);" d="M1410.516,1430.314
					c-75.314,11.861-144.641,39.537-199.475,112.335c-46.652,61.936-70.427,139.202-62.042,216.669
					c9.398,86.825,58.54,147.479,106.822,216.464c10.163,14.52,20.078,30.784,19.259,48.497
					c-1.347,28.978-39.504,74.251-67.15,50.875c-15.925-13.466-6.802-58.745-31.8-63.489c10.511,1.995,21.022,3.99,31.534,5.984
					c-12.623-35.952-41.233-63.452-64.793-93.399c-56.048-71.243-85.788-162.72-82.351-253.303
					c7.769-204.741,193.927-402.3,386.565-455.118c82.794-22.701,174.967-16.022,252.778,20.952
					c33.335,15.84,90.847,34.92,101.768,75.214c15.189,56.038-65.175,83.943-106.077,92.709
					C1601.842,1424.789,1501.783,1415.94,1410.516,1430.314z"/>
				
					<linearGradient id="SVGID_00000049919919771062160550000017851547726321813436_" gradientUnits="userSpaceOnUse" x1="2136.5015" y1="2604.7336" x2="1360.0433" y2="1777.855">
					<stop  offset="0" style="stop-color:#09005D"/>
					<stop  offset="1" style="stop-color:#1A0F91"/>
				</linearGradient>
				<path style="fill:url(#SVGID_00000049919919771062160550000017851547726321813436_);" d="M1445.976,1753.712
					c-16.446,41.961-108.277,224.026-112.282,253.997c-4.003,29.971,10.737,73.113,31.55,95.05
					c15.849,16.706,155.461,57.079,210.549,39.221c41.529-13.464,108.517-223.085,99.842-303.919
					c-1.59-14.818-1.793-29.716-1.022-44.579C1594.472,1789.145,1526.718,1770.837,1445.976,1753.712z"/>
				
					<linearGradient id="SVGID_00000048481444336159005200000011714700551484210340_" gradientUnits="userSpaceOnUse" x1="1883.7002" y1="2138.2456" x2="2166.063" y2="2965.1633">
					<stop  offset="0" style="stop-color:#FEBBBA"/>
					<stop  offset="1" style="stop-color:#FF928E"/>
				</linearGradient>
				<path style="fill:url(#SVGID_00000048481444336159005200000011714700551484210340_);" d="M2231.714,3012.375
					c-12.451-13.862-24.898-27.719-37.35-41.581c-39.758-41.014-38.026-84.295-43.257-137.081
					c-5.86-59.107-12.351-118.15-19.471-177.119c-8.793-72.808-18.546-145.499-29.258-218.049c-6.557-44.412-3.099-91.559-20.03-134
					c-29.458-73.841-143.451-87.806-183.996-140.436c-35.176,59.642-59.731,98.092-94.425,156.584
					c51.613,13.283,103.825,37.989,156.818,49.461c-9.523,53.645-4.395,92.603,13.621,144.94
					c27.293,79.294,53.818,158.925,76.014,239.82c10.629,38.747,15.911,80.827,28.891,118.666
					c9.136,26.636,29.455,49.838,3.266,75.868c-6.885,6.843-16.239,12.059-13.141,25.728c0.874,3.856,2.724,7.48,5.286,10.491
					c8.05,9.461,19.934,13.179,30.573,18.785c26.251,13.833,44.403,38.769,64.327,60.759s45.14,42.803,74.808,43.453
					c25.475,0.557,76.094-6.172,81.749-36.122C2284.245,3055.121,2264.449,3051.584,2231.714,3012.375z"/>
				
					<linearGradient id="SVGID_00000082365133883834331940000017007718840902691484_" gradientUnits="userSpaceOnUse" x1="2105.1479" y1="2634.1753" x2="1328.6906" y2="1807.2974">
					<stop  offset="0" style="stop-color:#09005D"/>
					<stop  offset="1" style="stop-color:#1A0F91"/>
				</linearGradient>
				<path style="fill:url(#SVGID_00000082365133883834331940000017007718840902691484_);" d="M1945.921,2196.89
					c-80.894-55.745-161.787-111.491-242.681-167.236c-78.153-53.858-160.839-109.038-260.543-99.554
					c-43.094,4.099-87.1,26.626-104.691,66.178c-17.179,38.627-5.491,85.2,18.874,119.747
					c37.638,53.361,102.247,94.427,161.167,120.468c120.819,53.398,243.552,87.668,370.356,116.886
					c23.654-49.724,53.285-96.993,88.583-137.769C1966.014,2209.54,1955.421,2203.437,1945.921,2196.89z"/>
				
					<linearGradient id="SVGID_00000123439285166934226600000002589462662250363533_" gradientUnits="userSpaceOnUse" x1="1343.5736" y1="-206.5569" x2="1393.993" y2="136.2946">
					<stop  offset="0" style="stop-color:#FF928E"/>
					<stop  offset="1" style="stop-color:#FE7062"/>
				</linearGradient>
				<path style="fill:url(#SVGID_00000123439285166934226600000002589462662250363533_);" d="M1380.233,1239.323
					c36.078-22.959,40.406,56.146,28.379,180.011l38.452,344.115c47.487,39.367,175.134,59.792,227.549,30.033
					c24.957-148.743,106.635-345.452,91.428-390.307c-26.141-48.857-33.806-99.339-32.01-146.696
					c-14.266-19.001-58.947-32.432-102.34-47.314l-99.893-6.027C1485.443,1202.52,1442.538,1203.119,1380.233,1239.323z"/>
				<g>
					
						<linearGradient id="SVGID_00000060749684818846830520000012082033628761523597_" gradientUnits="userSpaceOnUse" x1="-1443.2543" y1="1463.1025" x2="-1487.9382" y2="1176.3817" gradientTransform="matrix(-0.9973 0.0737 0.0737 0.9973 25.4728 54.5626)">
						<stop  offset="0" style="stop-color:#FEBBBA"/>
						<stop  offset="1" style="stop-color:#FF928E"/>
					</linearGradient>
					<path style="fill:url(#SVGID_00000060749684818846830520000012082033628761523597_);" d="M1669.154,1086.936
						c-1.004,4.52-42.804,147.874-45.237,150.355c-2.433,2.482-72.516,11.469-107.309-8.718l70.272-166.767L1669.154,1086.936z"/>
					
						<linearGradient id="SVGID_00000133503766329040347830000010628013720432289152_" gradientUnits="userSpaceOnUse" x1="-3123.0352" y1="272.7943" x2="-2821.908" y2="477.3334" gradientTransform="matrix(-0.9999 0.0171 0.0171 0.9999 -1388.1543 709.9029)">
						<stop  offset="0" style="stop-color:#FEBBBA"/>
						<stop  offset="1" style="stop-color:#FF928E"/>
					</linearGradient>
					<path style="fill:url(#SVGID_00000133503766329040347830000010628013720432289152_);" d="M1638.569,857.215
						c0,0,62.451,25.123,106.14,113.999c43.691,88.876,12.914,130.782-26.536,137.136c-39.449,6.355-98.603,6.5-162.149-50.308
						C1492.481,1001.233,1557.439,827.558,1638.569,857.215z"/>
					
						<linearGradient id="SVGID_00000091007067882677270490000011299068817080023981_" gradientUnits="userSpaceOnUse" x1="1742.6398" y1="916.2798" x2="1004.357" y2="1025.4618">
						<stop  offset="0" style="stop-color:#4042E2"/>
						<stop  offset="1" style="stop-color:#4F52FF"/>
					</linearGradient>
					<path style="fill:url(#SVGID_00000091007067882677270490000011299068817080023981_);" d="M1597.259,1009.491
						c0,0-49.017-130.285,67.173-133.82l27.673,18.645c0,0,15.101-55.032-55.48-88.529
						c-70.582-33.497-148.187-19.196-176.361,75.604c-28.172,94.8-9.7,155.39,40.623,199.656
						c50.321,44.268,76.267-4.757,76.267-4.757s-34.103-44.212-23.505-66.974c10.601-22.763,34.439,11.608,34.439,11.608
						L1597.259,1009.491z"/>
				</g>
			</g>
			
				<linearGradient id="SVGID_00000164514834745307570070000009480563001333463484_" gradientUnits="userSpaceOnUse" x1="2594.7925" y1="1788.7318" x2="2519.1638" y2="2025.702">
				<stop  offset="0" style="stop-color:#FF928E"/>
				<stop  offset="1" style="stop-color:#FE7062"/>
			</linearGradient>
			<path style="fill:url(#SVGID_00000164514834745307570070000009480563001333463484_);" d="M2095.189,2925.939l-26.739,34.059
				c-4.953,6.31-5.753,14.928-1.983,22.008c17.411,32.698,66.723,81.988,138.728,118.338c19.505,9.847,41.597,13.585,63.293,10.998
				c60.093-7.164,71.374-21.398,66.231-38.787l-170.427-150.106C2140.455,2935.408,2117.341,2937.708,2095.189,2925.939z"/>
			
				<linearGradient id="SVGID_00000183955727198205842990000003753584513318220222_" gradientUnits="userSpaceOnUse" x1="3419.9209" y1="-1724.4606" x2="3367.1479" y2="-1233.8685" gradientTransform="matrix(-0.1274 0.9919 -0.9761 -0.1254 -463.7035 -982.0609)">
				<stop  offset="0" style="stop-color:#09005D"/>
				<stop  offset="1" style="stop-color:#1A0F91"/>
			</linearGradient>
			<path style="fill:url(#SVGID_00000183955727198205842990000003753584513318220222_);" d="M647.233,2451.433l-23.267-10.627
				c-6.238-2.849-13.57-2.093-19.058,2.02c-51.51,38.606-88.813,73.453-118.657,123.335c-13.276,22.189-24.152,61.665-23.918,87.522
				c0.24,26.431,3.808,46.748,12.816,45.221l13.324,1.186c9.131,0.813,17.903-3.754,22.474-11.701L647.233,2451.433z"/>
			
				<linearGradient id="SVGID_00000021816011228224320210000000749338383202458795_" gradientUnits="userSpaceOnUse" x1="992.2904" y1="1277.2937" x2="916.6616" y2="1514.2644">
				<stop  offset="0" style="stop-color:#FF928E"/>
				<stop  offset="1" style="stop-color:#FE7062"/>
			</linearGradient>
			<path style="fill:url(#SVGID_00000021816011228224320210000000749338383202458795_);" d="M677.609,2482.292l-30.376-30.859
				c-5.627-5.717-12.437-3.313-19.94-0.475c-34.65,13.104-84.164,61.728-129.39,128.516c-12.251,18.092-23.407,33.229-23.605,55.078
				c-0.549,60.516,9.475,69.53,27.377,66.643l170.218-145.083C662.077,2530.818,663.114,2502.765,677.609,2482.292z"/>
			<g>
				
					<linearGradient id="SVGID_00000106122687796224248660000013942606426276177046_" gradientUnits="userSpaceOnUse" x1="1090.1992" y1="853.1829" x2="1072.9447" y2="1357.0189" gradientTransform="matrix(0.9897 -0.143 0.143 0.9897 259.4709 -226.6568)">
					<stop  offset="0" style="stop-color:#09005D"/>
					<stop  offset="1" style="stop-color:#1A0F91"/>
				</linearGradient>
				<path style="fill:url(#SVGID_00000106122687796224248660000013942606426276177046_);" d="M1566.36,957.022l-100.244,75.834
					c-8.649,6.543-10.285,18.969-3.496,27.426c6.636,8.267,15.579,15.433,28.612,16.897l93.957-84.237L1566.36,957.022z"/>
				
					<linearGradient id="SVGID_00000165928751219517060890000003079524004038187166_" gradientUnits="userSpaceOnUse" x1="404.849" y1="-2967.9043" x2="455.2699" y2="-2625.0427" gradientTransform="matrix(0.9939 -0.1101 0.121 1.0922 379.4119 -700.8869)">
					<stop  offset="0" style="stop-color:#FF928E"/>
					<stop  offset="1" style="stop-color:#FE7062"/>
				</linearGradient>
				<path style="fill:url(#SVGID_00000165928751219517060890000003079524004038187166_);" d="M1556.641,949.708l43.551,68.655
					c3.761,5.929,12.173,7.889,18.763,4.372l112.325-59.954c9.097-4.856,11.629-15.733,5.427-23.312l-55.556-67.885
					c-7.47-9.128-21.933-10.654-31.783-3.353l-89.564,66.385C1554.812,938.316,1553.471,944.711,1556.641,949.708z"/>
				
					<linearGradient id="SVGID_00000154388278482725942440000017095657424610325121_" gradientUnits="userSpaceOnUse" x1="1558.1661" y1="865.6732" x2="1393.6892" y2="1106.063" gradientTransform="matrix(0.9897 -0.143 0.143 0.9897 259.4709 -226.6568)">
					<stop  offset="0" style="stop-color:#09005D"/>
					<stop  offset="1" style="stop-color:#1A0F91"/>
				</linearGradient>
				<path style="fill:url(#SVGID_00000154388278482725942440000017095657424610325121_);" d="M1583.537,923.932l35.93,83.419
					c3.388,7.866,11.798,11.19,18.759,7.415l106.53-57.777c8.722-4.73,11.787-16.963,6.569-26.217l-46.739-82.886
					c-6.285-11.145-19.532-14.219-29.113-6.756l-88.785,69.165C1582.794,913.328,1581.459,919.107,1583.537,923.932z"/>
			</g>
		</g>
	</g>
</g>
</svg>
