<?xml version="1.0" encoding="utf-8"?>
<!-- Generator: Adobe Illustrator 27.5.0, SVG Export Plug-In . SVG Version: 6.00 Build 0)  -->
<svg version="1.1" xmlns="http://www.w3.org/2000/svg" xmlns:xlink="http://www.w3.org/1999/xlink" x="0px" y="0px"
	 viewBox="0 0 650 500" style="enable-background:new 0 0 650 500;" xml:space="preserve">
<g id="background">
	<rect x="0.001" y="0.002" style="fill:#FFFFFF;" width="649.999" height="500"/>
</g>
<g id="objects">
	<g>
		<g>
			<g>
				<path style="fill:#FBBF62;" d="M478.667,326.081c0.373-14.263-2.515-28.989-6.875-42.526
					c-3.414-10.602-8.345-20.595-12.955-30.704c-4.538-9.951-8.445-20.193-9.773-31.116c-1.641-13.495,1.292-26.523,4.268-39.607
					c2.921-12.839,6.064-25.663,7.884-38.718c1.493-10.718,2.033-21.8-0.631-32.383c-2.587-10.275-8.712-18.527-16.993-24.962
					c-8.752-6.802-17.396-13.751-26.489-20.098c-9.15-6.385-18.81-11.988-29.122-16.278c-11.552-4.805-23.813-7.591-36.247-8.785
					c-16.303-1.565-34.665-2.062-48.634,7.784c-8.284,5.838-14.64,14.12-20.247,22.443c-7.865,11.677-14.459,24.259-20.464,36.977
					c-7.862,16.648-13.844,34.82-27.42,47.881c-16.732,16.1-39.403,22.997-59.834,32.916c-9.145,4.44-18.093,9.85-24.639,17.775
					c-6.144,7.439-9.238,16.672-9.715,26.233c-1.043,20.913,8.645,42.324,21.281,58.483c6.311,8.072,14.055,15.268,23.126,20.125
					c9.941,5.322,22.01,7.529,33.191,6.327c10.784-1.16,20.798-5.741,30.972-9.184c11.709-3.961,23.768-6.485,36.15-5.143
					c12.737,1.38,25.071,6.032,36.511,11.613c12.43,6.063,24.095,13.675,35.069,22.063c10.814,8.267,20.235,18.275,31.762,25.59
					c9.802,6.22,20.911,10.392,32.516,11.349c20.754,1.713,44.41-8.844,53.209-28.461c0.523-1.167-1.199-2.185-1.727-1.01
					c-10.22,22.784-38.772,31.469-61.665,25.774c-14.106-3.51-26.444-11.883-37.049-21.571
					c-10.089-9.218-20.989-17.578-32.497-24.946c-20.125-12.886-44.843-24.792-69.402-22.589
					c-12.125,1.088-23.597,5.439-34.952,9.528c-10.889,3.921-21.733,6.442-33.344,4.622c-11.335-1.776-21.295-6.674-29.877-14.21
					c-8.34-7.323-15.023-16.462-20.28-26.194c-9.626-17.818-16.121-41.682-6.067-60.675c4.943-9.337,13.586-15.777,22.648-20.786
					c9.977-5.515,20.703-9.57,31.071-14.266c18.447-8.355,36.071-19.101,46.749-36.822c4.74-7.866,8.237-16.443,11.989-24.802
					c5.421-12.08,11.313-23.925,18.012-35.352c9.747-16.628,22.106-34.941,42.284-38.972c8.49-1.696,17.568-1.348,26.159-0.882
					c13.077,0.709,25.985,3.375,38.219,8.054c21.493,8.222,39.385,22.93,57.339,36.903c8.815,6.86,14.688,15.492,17.037,26.483
					c2.435,11.391,1.067,23.432-0.83,34.791c-2.214,13.253-5.549,26.299-8.458,39.409c-2.744,12.37-4.359,24.544-2.361,37.162
					c2.405,15.202,9.889,28.85,16.064,42.744c8.011,18.023,13.558,38.161,13.038,58.015
					C476.633,327.371,478.633,327.368,478.667,326.081L478.667,326.081z"/>
			</g>
		</g>
		<g>
			<g>
				<path style="fill:#292A80;" d="M484.553,325.909c7.894-24.886-2.707-49.759-14.726-71.297
					c-6.108-10.946-12.724-21.617-18.143-32.935c-2.969-6.199-5.584-12.566-6.849-19.347c-1.418-7.604-1.026-15.475-0.136-23.114
					c0.899-7.716,2.509-15.335,3.877-22.976c1.309-7.309,1.283-14.717,1.599-22.111c0.324-7.58,0.668-14.918-0.423-22.466
					c-0.986-6.828-3.109-13.483-6.1-19.692c-2.583-5.364-6.111-10.227-10.282-14.463c-4.566-4.637-10.103-8.233-15.475-11.852
					c-6.168-4.157-12.526-8.047-19.184-11.373c-6.446-3.22-13.196-5.28-20.054-7.413c-14.681-4.566-29.499-9.249-44.967-9.974
					c-11.813-0.554-23.92,1.048-34.957,5.375c-5.247,2.057-10.145,4.848-14.574,8.329c-4.927,3.871-8.593,8.793-12.06,13.954
					c-8.199,12.203-14.528,25.635-19.408,39.479c-4.843,13.738-8.218,27.791-14.728,40.918c-6.481,13.07-15.835,23.968-27.489,32.7
					c-10.889,8.159-23.15,14.023-35.024,20.549c-10.664,5.861-21.191,12.639-28.026,22.968c-8.014,12.112-7.62,27.316-3.87,40.808
					c0.345,1.241,2.275,0.714,1.929-0.531c-4.088-14.705-3.652-30.342,6.165-42.72c7.918-9.983,19.682-16.064,30.688-21.982
					c12.033-6.47,23.998-12.817,34.539-21.624c10.76-8.99,18.787-20.288,24.639-32.971c5.968-12.932,9.168-26.772,14.009-40.108
					c5.152-14.193,12.087-27.781,20.811-40.114c15.299-21.629,45.018-25.792,69.477-21.713c7.864,1.312,15.57,3.479,23.196,5.772
					c7.276,2.188,14.729,4.19,21.813,6.945c7.063,2.747,13.707,6.568,20.115,10.579c6.063,3.794,12.24,7.763,17.722,12.37
					c10.415,8.754,16.424,21.265,18.865,34.485c1.463,7.924,1.034,15.781,0.652,23.768c-0.375,7.849-0.439,15.578-1.844,23.337
					c-2.607,14.4-5.739,28.932-3.713,43.618c1.743,12.628,8.48,24.521,14.611,35.496c12.115,21.691,27.143,43.543,28.005,69.242
					c0.222,6.62-0.606,13.239-2.609,19.556C482.233,326.61,484.165,327.134,484.553,325.909L484.553,325.909z"/>
			</g>
		</g>
		<g>
			<g>
				<path style="fill:#292A80;" d="M165.266,302.407c8.736,10.01,19.643,18.113,32.508,21.863c14.512,4.23,28.85,0.951,42.735-3.922
					c1.209-0.424,0.689-2.356-0.531-1.928c-7.025,2.465-14.239,4.765-21.665,5.603c-6.715,0.758-13.507,0.118-20.008-1.682
					c-12.526-3.468-23.188-11.682-31.626-21.349C165.831,300.02,164.422,301.44,165.266,302.407L165.266,302.407z"/>
			</g>
		</g>
		<g>
			<g>
				<path style="fill:#292A80;" d="M149.748,278.195c1.479,3.153,3.091,6.235,4.843,9.246c0.648,1.114,2.376,0.107,1.727-1.01
					c-1.752-3.011-3.363-6.093-4.843-9.246C150.928,276.019,149.204,277.035,149.748,278.195L149.748,278.195z"/>
			</g>
		</g>
		<g>
			<g>
				<path style="fill:#292A80;" d="M424.704,361.286c18.124,1.478,36.985-4.054,49.554-17.633c0.875-0.944-0.536-2.362-1.414-1.414
					c-12.24,13.224-30.506,18.485-48.14,17.047C423.418,359.182,423.428,361.182,424.704,361.286L424.704,361.286z"/>
			</g>
		</g>
		<g>
			<g>
				<path style="fill:#292A80;" d="M366.436,329.436c3.372,2.759,6.579,5.702,10.046,8.346c1.026,0.783,2.021-0.956,1.01-1.727
					c-3.33-2.54-6.402-5.383-9.642-8.033C366.861,327.213,365.438,328.619,366.436,329.436L366.436,329.436z"/>
			</g>
		</g>
	</g>
	<g>
		<g>
			<path style="fill:#FF96BD;" d="M181.084,416.255c-6.582,0.904-22.706,0.057-30.801,0.534c-8.095,0.475-19.907,0.521-19.907,0.521
				s-9.993,11.017-17.818,19.557c-7.825,8.539-29.223,29.072-30.632,32.242c8.577,0.092,9.89-2.205,20.085-2.242
				c10.194-0.037,43.75,1.643,51.614,1.6c7.864-0.042,70.403,4.228,95.7,2.398s50.721-3.848,85.251-2.098
				c42.559-2.145,70.809-3.508,86.51-3.797c15.697-0.291,55.139-2.505,73.115-3.338c17.978-0.833,54.638-1.563,64.853-1.539
				c10.217,0.023,19.541,1.087,21.391,0.293c1.851-0.791,1.535-2.578-8.997-14.09c-10.534-11.512-18.405-24.116-23.715-28.986
				c-5.31-4.871-4.017-5.273-7.984-6.469c-3.967-1.196-82.985-1.184-92.5,0C437.734,412.024,193.735,414.67,181.084,416.255z"/>
		</g>
		<g>
			<g>
				<path style="fill:#292A80;" d="M128.588,412.962c-4.604,2.96-7.963,7.967-11.488,12.072c-4.079,4.752-8.085,9.56-12.377,14.124
					c-8.367,8.896-17.539,16.996-25.493,26.286c-0.604,0.705-0.169,1.601,0.707,1.707c7.261,0.879,14.008-1.987,21.143-2.642
					c7.857-0.721,15.814,0.135,23.653,0.672c8.243,0.563,16.521,0.338,24.776,0.407c8.287,0.07,16.535,0.784,24.802,1.284
					c32.959,1.993,65.809,1.85,98.753-0.305c8.077-0.528,16.158-1.019,24.255-1.083c8.018-0.064,16.046,0.365,24.06,0.577
					c16.382,0.432,32.531-0.043,48.851-1.478c32.55-2.863,65.29-1.564,97.882-3.646c18.794-1.2,37.512-2.509,56.343-3.071
					c9.185-0.274,18.371-0.707,27.562-0.756c4.583-0.024,9.166,0.093,13.742,0.364c4.56,0.271,9.109,1.071,13.667,1.219
					c1.29,0.042,1.286-1.958,0-2c-3.572-0.115-7.158-0.708-10.723-1.008c-4.243-0.357-8.503-0.501-12.761-0.56
					c-8.19-0.113-16.366,0.307-24.55,0.54c-16.528,0.472-33.061,0.977-49.553,2.214c-16.317,1.225-32.589,2.045-48.952,2.369
					c-16.334,0.322-32.674,0.479-48.99,1.372c-8.163,0.447-16.279,1.31-24.428,1.938c-8.141,0.628-16.314,0.772-24.478,0.737
					c-16.113-0.07-32.209-1.228-48.32-0.52c-16.275,0.717-32.503,2.057-48.794,2.48c-16.554,0.431-33.122,0.104-49.662-0.646
					c-9.277-0.42-18.542-1.025-27.806-1.66c-9.563-0.654-19.165-0.262-28.74-0.473c-8.927-0.197-17.792-1.343-26.732-1.154
					c-8.412,0.178-16.59,3.845-25.001,2.827c0.236,0.569,0.471,1.138,0.707,1.707c7.754-9.057,16.635-17.031,24.871-25.632
					c4.103-4.284,7.926-8.821,11.769-13.337c2.037-2.393,4.209-4.695,6.174-7.146c1.811-2.261,3.681-4.474,6.14-6.055
					C130.679,413.994,129.677,412.262,128.588,412.962L128.588,412.962z"/>
			</g>
		</g>
		<g>
			<g>
				<path style="fill:#292A80;" d="M456.953,409.011c27.612-0.012,55.219-1.031,82.831-0.529c-0.333-0.333-0.667-0.667-1-1
					c0,1.911,2.546,2.826,3.852,3.956c2.434,2.105,4.524,4.61,6.483,7.151c3.495,4.534,6.541,9.395,10.149,13.845
					c2.133,2.63,4.681,4.962,6.962,7.469c2.134,2.346,4.102,4.907,6.395,7.096c1.528,1.459,8.43,6.938,6.853,9.35
					c-0.453,0.692,0.307,1.798,1.129,1.469c0.74-0.296,1.069-0.72,1.367-1.441c0.493-1.192-1.443-1.706-1.928-0.531
					c0.01,0.015,0.02,0.029,0.029,0.044c0.377,0.49,0.753,0.979,1.129,1.47c1.887-2.886-2.004-6.591-3.782-8.467
					c-1.334-1.407-2.781-2.699-4.161-4.06c-2.901-2.86-5.429-6.182-8.216-9.162c-2.45-2.619-4.826-5.128-6.961-8.021
					c-1.993-2.7-3.871-5.485-5.844-8.2c-1.712-2.356-3.521-4.641-5.492-6.786c-1.022-1.111-2.124-2.143-3.265-3.129
					c-0.565-0.489-2.7-1.883-2.7-2.052c0-0.553-0.455-0.99-1-1c-27.612-0.502-55.219,0.518-82.831,0.529
					C455.663,407.012,455.663,409.012,456.953,409.011L456.953,409.011z"/>
			</g>
		</g>
		<g>
			<g>
				<path style="fill:#292A80;" d="M176.927,411.804c-6.642,2.435-13.956,0.177-20.804,0.545
					c-9.176,0.493-18.372,0.477-27.558,0.477c-1.289,0-1.289,2,0,2c9.518,0,19.036-0.019,28.542-0.529
					c6.769-0.363,13.75,1.856,20.351-0.564C178.659,413.292,178.14,411.358,176.927,411.804L176.927,411.804z"/>
			</g>
		</g>
	</g>
	<g>
		<g>
			<g>
				<path style="fill:#FF96BD;" d="M273.737,128.808c-5.851-4.121-11.468-8.501-17.711-12.039
					c-7.922-4.491-16.623-7.553-25.748-8.162c-11.517-0.768-22.679,3.095-32.337,9.148c-11.7,7.333-22.229,17.896-28.794,30.093
					c-5.014,9.315-7.095,19.869-6.172,30.386c0.832,9.49,4.086,18.592,8.274,27.086c4.924,9.986,11.963,18.787,15.771,29.32
					c4.581,12.674,4.099,26.182,2.293,39.33c-1.673,12.173-4.246,24.203-5.932,36.375c-1.485,10.726-2.584,21.957-0.314,32.652
					c0.901,4.246,2.583,8.293,5.265,11.722c1.906,2.436,4.547,4.239,7.129,5.895c4.451,2.855,9.381,4.877,14.525,6.074
					c16.494,3.84,34.423,0.09,50.511-3.854c14.168-3.473,27.927-8.224,41.832-12.589c13.528-4.248,27.212-7.974,40.896-11.676
					c23.563-6.374,47.501-12.54,69.483-23.398c19.249-9.507,37.507-23.49,48.376-42.327c5.252-9.102,8.331-19.52,7.546-30.078
					c-0.941-12.66-7.842-23.742-16.591-32.578c-14.814-14.962-36.307-21.534-56.19-26.516c-10.465-2.623-21.043-4.764-31.551-7.203
					c-9.101-2.113-18.307-4.378-26.905-8.101c-3.432-1.486-6.747-3.275-9.744-5.52c-4.594-3.441-9.417-6.421-14.433-9.208
					c-12.222-6.791-24.702-13.018-35.728-21.727c-1.207-0.954-2.382-1.946-3.548-2.948c-0.973-0.836-2.394,0.572-1.414,1.414
					c10.625,9.134,22.776,15.857,35.055,22.467c5.283,2.844,10.553,5.733,15.511,9.122c3.425,2.341,6.554,4.834,10.276,6.718
					c7.873,3.985,16.557,6.319,25.081,8.438c10.31,2.563,20.73,4.648,31.071,7.074c20.52,4.814,42.582,10.747,58.684,25.104
					c9.883,8.812,17.477,20.696,18.476,34.127c0.825,11.088-3.176,21.876-8.97,31.151c-11.888,19.031-31.529,32.389-51.619,41.524
					c-22.965,10.442-47.823,16.28-72.07,22.892c-13.996,3.816-27.942,7.816-41.714,12.385c-13.14,4.357-26.424,8.362-39.963,11.288
					c-15.012,3.245-31.782,5.813-46.693,0.7c-4.947-1.696-9.864-4.398-13.811-7.848c-7.624-6.661-8.189-18.633-7.992-27.982
					c0.522-24.751,9.531-48.73,8.768-73.546c-0.405-13.185-4.892-25.09-11.909-36.138c-4.996-7.865-9.487-16.096-12.502-24.939
					c-3.327-9.76-4.475-20.183-2.369-30.33c2.688-12.957,10.693-23.955,20.14-32.906c14.595-13.83,33.613-22.721,53.809-17.522
					c12.551,3.231,22.567,11.068,32.945,18.378C273.785,131.279,274.783,129.544,273.737,128.808z"/>
			</g>
		</g>
		<g>
			<g>
				<path style="fill:#292A80;" d="M413.721,332.978c10.565-4.257,20.846-9.291,29.817-16.389
					c8.613-6.816,15.212-15.645,19.422-25.775c4.771-11.48,4.892-23.377,0.724-35.063c-4.232-11.864-12.179-22.277-21.268-30.853
					c-11.688-11.027-26.296-18.464-40.987-24.652c-7.526-3.17-15.196-5.99-22.791-8.989c-8.293-3.274-16.166-7.142-24.049-11.299
					c-1.14-0.602-2.15,1.125-1.01,1.727c5.585,2.946,11.172,6.054,17.016,8.465c6.52,2.69,13.103,5.216,19.678,7.767
					c12.646,4.907,25.02,10.346,36.587,17.486c20.906,12.904,41.76,38.109,37.406,64.266c-2.035,12.226-9.225,23.697-18.154,32.073
					c-9.345,8.766-21.147,14.563-32.922,19.308C412.009,331.526,412.523,333.461,413.721,332.978L413.721,332.978z"/>
			</g>
		</g>
		<g>
			<g>
				<path style="fill:#292A80;" d="M373.546,343.787c3.846-0.656,7.676-1.389,11.488-2.215c1.261-0.272,0.726-2.2-0.531-1.928
					c-3.813,0.825-7.643,1.558-11.488,2.215C371.745,342.076,372.285,344.003,373.546,343.787L373.546,343.787z"/>
			</g>
		</g>
		<g>
			<g>
				<path style="fill:#292A80;" d="M255.767,358.624c6.334-0.72,12.648-1.587,18.955-2.503c1.272-0.185,0.73-2.111-0.531-1.928
					c-6.131,0.889-12.268,1.731-18.424,2.431C254.5,356.768,254.486,358.77,255.767,358.624L255.767,358.624z"/>
			</g>
		</g>
		<g>
			<g>
				<path style="fill:#292A80;" d="M292.301,124.525c-8.579-8.304-18.289-15.636-29.797-19.272
					c-11.591-3.663-24.369-2.54-35.614,1.794c-21.549,8.306-41.383,26.482-46.106,49.782c-2.575,12.704,0.448,25.177,4.782,37.112
					c4.624,12.734,10.457,25.469,9.962,39.317c-0.51,14.303-5.074,27.949-9.894,41.286c-4.681,12.953-9.113,25.902-11.713,39.462
					c-1.142,5.952-1.692,12.056-0.634,18.06c1.092,6.192,4.823,11.208,9.298,15.444c9.371,8.871,21.946,11.187,34.346,12.264
					c1.286,0.111,1.275-1.89,0-2c-13.378-1.162-26.114-4.003-35.506-14.303c-9.736-10.678-6.733-24.914-3.629-37.677
					c3.339-13.727,8.568-26.748,13.066-40.107c4.336-12.877,7.935-26.951,6.307-40.628c-1.568-13.175-7.717-25.233-11.772-37.722
					c-4.09-12.594-4.965-25.631-0.345-38.206c4.335-11.802,13.009-21.763,22.926-29.275c10.228-7.749,22.451-13.388,35.305-14.61
					c18.702-1.778,34.667,8.171,47.605,20.694C291.814,126.836,293.229,125.424,292.301,124.525L292.301,124.525z"/>
			</g>
		</g>
	</g>
	<g>
		<g>
			<path style="fill:#99C793;" d="M519.088,227.773c-4.757-1.322-10.042-8.457-12.156-12.687
				c-2.642-5.021-3.964-11.364-4.493-16.913c-0.793-11.629,5.286-22.463,3.7-34.092c-0.792-5.287-1.057-10.836-1.85-16.121
				c9.249,10.572,21.671,19.027,26.957,32.242c2.113,5.285,4.757,10.834,4.491,16.385c-0.528,5.551-1.849,12.157-3.699,17.443
				c-2.114,5.285-6.344,12.156-12.685,13.214"/>
		</g>
		<g>
			<path style="fill:#99C793;" d="M488.168,195.001c-3.436-10.57-5.551-21.936-13.215-30.392
				c-10.836-11.629-26.427-13.214-41.491-12.156c-7.137,0.527-14.271,1.056-21.407,1.585c11.1,10.836,19.292,24.049,29.864,35.148
				c8.722,9.25,19.557,16.65,32.507,16.122c5.549,0,10.307-2.38,14.271-5.813"/>
		</g>
		<g>
			<path style="fill:#99C793;" d="M533.889,257.636c-8.194,4.756-8.458,19.027,0,23.785c4.228,2.114,10.042,2.114,14.8,2.906
				c5.021,0.529,9.513,1.322,14.534,3.173c5.55,1.849,11.1,2.905,15.857,6.606c-0.529-4.758-1.851-9.515-3.172-14.271
				c-1.32-4.759-2.114-10.044-3.964-14.801c-3.964-10.308-14.8-20.613-26.692-17.178c-5.551,1.585-10.57,4.757-13.214,10.042"/>
		</g>
		<g>
			<g>
				<path style="fill:#292A80;" d="M452.658,170.602c5.178,4.034,10.676,7.625,15.9,11.595c5.778,4.39,10.725,9.511,14.779,15.535
					c7.839,11.647,12.598,25.629,16.482,39.015c2.038,7.024,3.564,14.158,5.1,21.304c1.598,7.436,3.249,14.861,4.48,22.37
					c1.279,7.803,1.898,15.653,1.656,23.558c-0.234,7.662-1.218,15.286-2.049,22.898c-0.14,1.281,1.861,1.268,2,0
					c0.832-7.62,1.757-15.232,2.049-22.898c0.283-7.446-0.349-14.85-1.435-22.212c-1.109-7.524-2.764-14.96-4.372-22.39
					c-1.681-7.767-3.318-15.516-5.5-23.162c-3.882-13.601-8.88-27.604-16.685-39.493c-3.622-5.519-8.101-10.289-13.206-14.456
					c-5.705-4.656-11.98-8.555-17.786-13.078C453.068,168.405,451.642,169.81,452.658,170.602L452.658,170.602z"/>
			</g>
		</g>
		<g>
			<g>
				<path style="fill:#292A80;" d="M511.07,190.774c1.174,5.859,3.025,11.557,4.091,17.44c1.163,6.424,0.56,13.009-0.652,19.378
					c-2.32,12.189-7.153,23.962-12.552,35.073c-2.577,5.304-5.171,10.596-7.272,16.111c-1.997,5.238-2.383,10.858-2.529,16.412
					c-0.148,5.653-0.554,11.393,0.176,17.016c0.669,5.15,2.396,10.042,4.613,14.715c0.553,1.165,2.276,0.149,1.727-1.01
					c-2.44-5.142-4.094-10.489-4.611-16.169c-0.513-5.626-0.044-11.522,0.182-17.162c0.261-6.487,1.776-12.186,4.347-18.118
					c2.432-5.61,5.283-11.028,7.854-16.574c4.874-10.51,8.858-21.909,10.617-33.383c0.86-5.612,0.954-11.216,0.03-16.82
					c-0.973-5.895-2.918-11.586-4.092-17.439C512.745,188.979,510.817,189.515,511.07,190.774L511.07,190.774z"/>
			</g>
		</g>
		<g>
			<g>
				<path style="fill:#292A80;" d="M494.006,296.749c0.141-7.482,3.5-14.358,7.416-20.573c3.448-5.474,8.599-10.035,14.143-13.296
					c5.733-3.37,12.463-4.916,18.976-3.187c7.053,1.873,13.067,6.983,18.014,12.128c0.896,0.932,2.308-0.484,1.414-1.414
					c-5.134-5.34-11.052-10.028-18.148-12.413c-6.674-2.244-13.783-0.679-19.897,2.412c-6.186,3.126-11.961,8.275-15.776,14.059
					c-4.365,6.62-7.989,14.223-8.141,22.283C491.981,298.039,493.981,298.037,494.006,296.749L494.006,296.749z"/>
			</g>
		</g>
		<g>
			<g>
				<path style="fill:#292A80;" d="M515.472,226.808c-5.517-1.771-9.445-8.066-11.927-12.953
					c-3.287-6.471-4.515-14.554-3.852-21.723c0.66-7.143,3.071-13.999,3.711-21.157c0.351-3.928-0.314-7.724-0.737-11.614
					c-0.425-3.892-0.738-7.791-1.297-11.667c-0.557,0.324-1.114,0.648-1.671,0.973c4.957,5.612,10.597,10.556,15.766,15.966
					c2.583,2.704,4.988,5.565,7.089,8.661c2.401,3.541,3.972,7.448,5.561,11.396c1.617,4.019,3.105,8.304,2.66,12.696
					c-0.452,4.471-1.372,8.907-2.585,13.23c-1.803,6.423-5.829,14.231-12.985,15.663c-1.265,0.253-0.728,2.181,0.531,1.929
					c6.838-1.369,10.925-7.911,13.384-13.913c1.709-4.169,2.502-8.903,3.191-13.331c0.734-4.71,0.491-8.817-0.988-13.368
					c-2.684-8.249-6.627-15.606-12.361-22.115c-5.626-6.387-12.211-11.848-17.848-18.229c-0.739-0.837-1.799,0.087-1.671,0.973
					c0.623,4.329,0.936,8.692,1.438,13.035c0.506,4.385,0.792,8.452,0.162,12.849c-1.073,7.489-3.55,14.692-3.555,22.325
					c-0.005,6.839,1.972,14.153,5.22,20.141c2.603,4.801,6.828,10.426,12.233,12.162
					C516.172,229.132,516.694,227.201,515.472,226.808L515.472,226.808z"/>
			</g>
		</g>
		<g>
			<g>
				<path style="fill:#292A80;" d="M485.777,197.899c-2.03-7.767-3.977-15.557-7.172-22.947
					c-3.281-7.591-8.292-13.701-15.476-17.887c-7.102-4.138-15.464-5.556-23.572-5.847c-10.426-0.375-20.998,1.049-31.385,1.82
					c-0.838,0.062-1.365,1.058-0.707,1.707c13.025,12.834,22.167,29.295,36.192,41.144c5.851,4.943,12.719,8.714,20.32,10.016
					c8.018,1.373,15.33-0.459,21.542-5.702c0.987-0.833-0.435-2.24-1.414-1.414c-13.606,11.484-31.377,3.148-42.569-7.485
					c-12.136-11.528-20.734-26.224-32.657-37.972c-0.235,0.569-0.472,1.138-0.707,1.707c9.411-0.698,18.878-1.769,28.319-1.858
					c8.34-0.079,16.803,1.116,24.315,4.901c15.34,7.727,19.065,25.142,23.042,40.35
					C484.175,199.678,486.104,199.148,485.777,197.899L485.777,197.899z"/>
			</g>
		</g>
		<g>
			<g>
				<path style="fill:#292A80;" d="M529.501,256.772c-8.74,5.379-9.02,19.511-0.497,25.215c2.674,1.79,6.323,2.145,9.428,2.544
					c4.321,0.556,8.673,0.94,12.955,1.766c3.983,0.767,7.77,2.228,11.642,3.399c4.15,1.256,8.155,2.655,11.664,5.273
					c0.576,0.43,1.593-0.143,1.505-0.863c-0.523-4.294-1.542-8.466-2.681-12.634c-1.122-4.111-1.993-8.28-3.092-12.396
					c-1.768-6.615-5.182-12.559-10.318-17.126c-4.495-3.997-10.712-6.599-16.787-5.545c-6.637,1.151-12.838,4.955-16.027,10.988
					c-0.602,1.14,1.124,2.15,1.727,1.01c2.997-5.669,8.989-9.316,15.298-10.127c6.099-0.784,11.789,2.464,15.985,6.594
					c4.604,4.531,7.086,10.339,8.654,16.501c1.899,7.469,4.308,15.076,5.241,22.734c0.502-0.288,1.003-0.575,1.505-0.863
					c-5.249-3.918-11.754-5.256-17.849-7.318c-6.709-2.27-13.827-2.596-20.787-3.578c-3.111-0.44-6.257-1.152-8.63-3.326
					c-1.963-1.799-2.99-4.363-3.479-6.924c-0.974-5.091,1.078-10.843,5.554-13.598C531.606,257.825,530.602,256.095,529.501,256.772
					L529.501,256.772z"/>
			</g>
		</g>
		<g>
			<g>
				<path style="fill:#292A80;" d="M471.623,329.776c1.317,14.126,0.63,29.113,6.421,42.387
					c4.238,9.714,13.707,13.438,23.741,13.873c11.157,0.484,23.329-1.434,30.557-10.743c4.192-5.401,5.894-12.57,7.435-19.091
					c1.143-4.837,1.94-9.395,2.151-14.364c0.143-3.358,0.149-6.73-0.017-10.089c-0.067-1.358,0.115-4.095-0.956-5.177
					c-1.212-1.224-5.188-0.668-6.715-0.703c-4.22-0.097-8.4,0.074-12.608,0.332c-5.672,0.348-11.35,0.531-17.028,0.263
					c-5.769-0.272-11.471-1.314-17.231-1.709c-4.179-0.287-8.44,0.013-12.588,0.551c-2.682,0.348-3.914,2.127-3.125,4.736
					c0.372,1.231,2.303,0.706,1.928-0.531c-0.795-2.631,2.048-2.261,3.829-2.395c4.029-0.303,7.834-0.545,11.882-0.218
					c7.967,0.644,15.715,1.815,23.739,1.676c6.421-0.112,12.801-0.774,19.227-0.733c2.234,0.014,4.473,0.068,6.701,0.224
					c0.837,0.058,0.437-0.426,0.603,0.301c0.185,0.809,0.227,1.655,0.288,2.479c0.342,4.599,0.217,9.266-0.08,13.862
					c-0.372,5.773-1.91,11.453-3.467,17.006c-2.038,7.268-5.284,13.872-11.797,18.04c-5.16,3.303-11.579,3.877-17.551,4.228
					c-10.343,0.607-21.532-1.568-26.629-11.591c-3.28-6.448-4.399-14.147-5.139-21.253c-0.738-7.102-0.907-14.251-1.57-21.36
					C473.504,328.504,471.503,328.492,471.623,329.776L471.623,329.776z"/>
			</g>
		</g>
		<g>
			<g>
				<path style="fill:#292A80;" d="M478.275,346.614c4.27-0.262,8.447,1.18,12.719,1.21c2.433,0.018,4.85-0.381,7.279-0.441
					c2.584-0.064,5.171,0.014,7.752,0.112c5.17,0.196,10.33,0.584,15.504,0.688c4.433,0.089,8.875-0.292,13.303,0.017
					c1.288,0.09,1.279-1.911,0-2c-4.103-0.286-8.225,0.014-12.333-0.004c-5.173-0.022-10.34-0.421-15.505-0.659
					c-5.084-0.235-10.038,0.022-15.108,0.267c-4.587,0.222-9.031-1.469-13.61-1.188
					C476.994,344.692,476.986,346.693,478.275,346.614L478.275,346.614z"/>
			</g>
		</g>
	</g>
	<g>
		<path style="fill:#FBBF62;" d="M133.55,322.586c-0.328-11.768,6.166-18.499,6.166-18.499c1.278-3.213,1.898-6.574,3.392-9.693
			c1.312-2.74,2.924-5.208,4.545-7.789c3.084-4.904,8.65-9.158,9.306-15.265c0.676-6.293-6.518-9.413-11.781-7.247
			c-8.394,3.457-10.636,13.063-11.47,21.207c0.006-0.258,0.011-0.512,0.018-0.77c0.176-9.865,0.353-24.665-8.985-31.185
			c-3.524-2.466-8.281-2.466-11.804,0.176c-4.053,3.172-5.286,8.634-5.11,13.392c0.881,12.684,9.69,23.785,14.8,35.06
			c4.052,8.634,6.167,17.796,8.281,26.956l2.819-1.057C133.726,326.11,133.55,324.349,133.55,322.586z"/>
		<path style="fill:#FBBF62;" d="M166.673,311.31c-7.751-3.875-15.857-1.231-22.2,3.876c-4.382,3.33-8.762,7.534-9.847,13.129
			c5.549-2.701,11.416-5.57,17.599-5.904c5.639-0.354,11.805,2.994,17.443,1.232C177.244,321.177,170.901,313.602,166.673,311.31z"
			/>
		<path style="fill:#FBBF62;" d="M134.607,328.399c0.005-0.027,0.013-0.055,0.019-0.084c-0.301,0.147-0.602,0.293-0.9,0.439
			L134.607,328.399z"/>
		<path style="fill:#FBBF62;" d="M142.711,300.741c-4.933,6.341-8.632,13.035-8.809,21.142l1.234,3.171
			c3.171-7.752,7.4-16.914,16.209-19.381c6.871-1.762,16.034,1.057,20.966-5.285c5.638-7.225-3.524-12.862-10.043-12.51
			C153.811,288.229,147.469,294.572,142.711,300.741z"/>
		<path style="fill:#FBBF62;" d="M95.846,300.916c5.638,3.171,11.981,4.404,17.972,7.048c7.047,2.994,11.276,8.456,15.152,14.799
			l-1.586-15.504l-10.923-16.561c-2.819-4.054-6.166-7.93-10.747-10.043c-5.991-2.82-14.624-2.291-17.619,4.404
			C84.923,291.755,90.384,297.744,95.846,300.916z"/>
		<path style="fill:#FBBF62;" d="M116.107,314.483c-6.519-2.997-13.742-4.404-20.614-1.234c-2.114,0.881-5.462,2.994-4.757,5.815
			c0.705,2.819,4.757,3.876,7.224,4.58c5.462,1.233,10.748,1.233,16.385,0.883c5.814-0.178,11.276,0,15.856,4.402l-0.175-3.699
			C126.679,320.12,121.745,317.124,116.107,314.483z"/>
		<g>
			<g>
				<path style="fill:#292A80;" d="M129.178,327.05c-1.707-7.392-3.455-14.774-6.132-21.887c-2.408-6.396-5.816-12.311-9.095-18.284
					c-3.368-6.134-6.474-12.463-7.591-19.435c-1.084-6.763,1.407-15.859,9.419-16.528c6.654-0.556,10.829,6.485,12.514,11.91
					c1.653,5.32,1.802,11.045,1.785,16.571c-0.046,15.344-0.628,30.635-0.059,45.98c0.004,0.294,0.009,0.587,0.013,0.881
					c0.019,1.288,2.019,1.29,2,0c-0.118-7.923-0.399-15.832-0.355-23.761c0.042-7.499,0.321-14.994,0.397-22.492
					c0.099-9.819-0.424-21.966-8.802-28.602c-4.284-3.394-10.144-3.208-14.297,0.266c-4.261,3.564-5.256,10.04-4.688,15.241
					c1.484,13.584,11.042,24.791,16.157,37.082c3.15,7.568,4.967,15.627,6.805,23.588
					C127.539,328.838,129.467,328.305,129.178,327.05L129.178,327.05z"/>
			</g>
		</g>
		<g>
			<g>
				<path style="fill:#292A80;" d="M131.855,285.385c0.487-5.648,1.393-11.446,4.415-16.352c3.151-5.116,10.601-8.845,15.582-3.89
					c5.169,5.143-3.171,13.16-6.116,17.029c-2.198,2.888-4.103,6.075-5.783,9.288c-1.777,3.397-2.539,7.185-3.895,10.747
					c-0.46,1.207,1.475,1.725,1.929,0.531c1.753-4.604,2.91-9.119,5.448-13.408c2.282-3.856,5.025-7.177,7.727-10.725
					c3.775-4.956,6.629-12.3,0.188-16.399c-5.382-3.426-12.221-0.263-15.731,4.31c-4.117,5.363-5.196,12.307-5.762,18.868
					C129.745,286.67,131.746,286.659,131.855,285.385L131.855,285.385z"/>
			</g>
		</g>
		<g>
			<g>
				<path style="fill:#292A80;" d="M132.877,327.054c1.646-7.599,9.388-13.86,16.271-16.755c6.811-2.864,15.02-1.442,19.266,4.88
					c0.709,1.057,1.266,2.349,1.013,3.639c-0.38,1.935-3.229,2.477-4.787,2.671c-3.894,0.486-7.895-1.012-11.722-1.533
					c-7.904-1.076-15.519,2.982-22.391,6.323c-1.16,0.564-0.145,2.288,1.01,1.727c4.77-2.318,9.523-4.666,14.74-5.79
					c5.206-1.121,10.06,0.622,15.189,1.229c3.28,0.389,7.482-0.092,9.467-3.069c1.494-2.24-0.047-5.231-1.41-7.086
					c-4.855-6.608-13.603-7.695-20.906-4.918c-4.166,1.583-7.815,4.467-11.08,7.442c-3.17,2.889-5.671,6.478-6.587,10.709
					C130.676,327.779,132.604,328.315,132.877,327.054L132.877,327.054z"/>
			</g>
		</g>
		<g>
			<g>
				<path style="fill:#292A80;" d="M132.208,320.271c0.394-10.711,7.303-20.713,15.134-27.626c3.813-3.365,8.737-5.694,13.906-5.346
					c3.932,0.266,9.269,2.959,9.107,7.475c-0.194,5.39-6.97,7.104-11.162,7.41c-4.311,0.315-8.668-0.039-12.762,1.597
					c-8.011,3.2-11.898,11.958-14.955,19.396c-0.49,1.193,1.445,1.707,1.929,0.531c1.977-4.813,4.152-9.642,7.62-13.584
					c3.996-4.542,9.006-5.615,14.793-5.8c4.649-0.148,9.328-0.335,13.106-3.367c3.235-2.598,4.499-7.024,2.157-10.571
					c-2.191-3.318-6.614-4.868-10.4-5.124c-5.233-0.354-10.229,2.313-14.173,5.48c-4.443,3.567-8.095,8.436-11.108,13.233
					c-3.099,4.934-4.977,10.462-5.192,16.296C130.161,321.56,132.161,321.557,132.208,320.271L132.208,320.271z"/>
			</g>
		</g>
		<g>
			<g>
				<path style="fill:#292A80;" d="M114.628,288.58c-4.562-6.476-10.466-11.975-18.795-12.15c-6.659-0.14-13.543,5.25-12.251,12.496
					c1.599,8.965,11.414,12.78,18.987,15.345c5.021,1.7,10.061,3.311,14.232,6.7c3.577,2.906,6.215,6.799,8.609,10.686
					c0.675,1.096,2.405,0.092,1.727-1.01c-3.623-5.882-7.846-11.27-14.092-14.505c-7.443-3.855-16.286-4.632-22.862-10.165
					c-3.187-2.682-5.435-6.493-4.402-10.732c0.921-3.785,4.252-5.977,7.87-6.656c8.245-1.55,14.924,4.859,19.251,11.002
					C113.638,290.635,115.373,289.638,114.628,288.58L114.628,288.58z"/>
			</g>
		</g>
		<g>
			<g>
				<path style="fill:#292A80;" d="M128.195,323.111c-4.5-6.611-12.013-10.772-19.521-13.108
					c-6.586-2.049-16.362-1.804-20.941,4.216c-1.599,2.102-0.562,5,1.442,6.38c2.792,1.922,6.407,2.67,9.711,3.081
					c4.806,0.598,9.523,0.289,14.341,0.197c5.02-0.096,9.745,0.655,13.573,4.145c0.951,0.867,2.369-0.543,1.414-1.414
					c-4.709-4.294-10.438-4.862-16.563-4.695c-3.985,0.108-7.884,0.293-11.863-0.121c-3.207-0.334-7.291-1.006-9.854-3.143
					c-3.891-3.242,3.552-6.325,5.723-7.029c4.068-1.32,8.449-0.822,12.486,0.312c6.929,1.946,14.226,6.168,18.326,12.189
					C127.189,325.18,128.923,324.181,128.195,323.111L128.195,323.111z"/>
			</g>
		</g>
		<g>
			<g>
				<path style="fill:#292A80;" d="M120.201,283.536c2.457,7.005,4.657,14.24,5.856,21.576c1.186,7.254,2.145,14.718,2.909,22.029
					c0.133,1.27,2.134,1.282,2,0c-0.752-7.197-1.808-14.433-2.834-21.6c-1.098-7.666-3.444-15.244-6.002-22.537
					C121.706,281.796,119.772,282.316,120.201,283.536L120.201,283.536z"/>
			</g>
		</g>
		<g>
			<g>
				<path style="fill:#292A80;" d="M112.706,299.658c3.907,3.855,7.361,7.453,10.126,12.251c2.707,4.697,3.63,10.001,5.927,14.854
					c0.551,1.165,2.275,0.149,1.727-1.01c-2.299-4.859-3.296-10.104-5.926-14.854c-2.768-4.998-6.414-8.685-10.439-12.656
					C113.202,297.338,111.787,298.752,112.706,299.658L112.706,299.658z"/>
			</g>
		</g>
		<g>
			<g>
				<path style="fill:#292A80;" d="M98.927,349.028c0.69,4.791,1.872,9.511,2.645,14.296c0.788,4.879,1.897,10.068,3.609,14.706
					c0.589,1.596,1.371,3.568,2.591,4.789c1.455,1.455,4.348,2.248,6.261,2.901c4.947,1.69,10.335,2.029,15.521,1.958
					c4.913-0.067,9.823-0.684,14.725-0.996c4.619-0.294,9.157-1.197,12.486-4.638c7.319-7.561,4.24-19.469,5.533-28.737
					c0.176-1.261-1.751-1.805-1.929-0.531c-1.258,9.017,1.49,19.524-4.563,27.328c-3.101,3.997-8.416,4.408-13.079,4.672
					c-4.398,0.248-8.767,0.793-13.173,0.902c-4.801,0.119-9.601-0.318-14.225-1.647c-1.817-0.521-5.213-1.354-6.387-2.978
					c-1.368-1.891-2.12-4.186-2.77-6.399c-1.212-4.127-2.136-8.542-2.822-12.785c-0.724-4.478-1.851-8.888-2.497-13.373
					C100.672,347.225,98.745,347.768,98.927,349.028L98.927,349.028z"/>
			</g>
		</g>
		<g>
			<g>
				<path style="fill:#292A80;" d="M93.737,329.961c-0.426,4.675-0.918,9.501-0.253,14.173c0.413,2.9,1.246,4.496,4.188,4.89
					c6.751,0.903,13.536,0.771,20.335,0.702c9.32-0.093,18.64-0.317,27.958-0.561c3.555-0.093,7.109-0.192,10.663-0.293
					c2.763-0.078,6.218,0.332,8.628-1.181c1.038-0.651,1.361-1.802,1.459-2.948c0.197-2.314,0.163-4.769,0.229-7.09
					c0.08-2.803-0.329-5.588-0.399-8.386c-0.034-1.377-0.67-2.52-1.901-3.151c-2.312-1.186-5.486-0.254-8.013-0.126
					c-3,0.153-6.005,0.229-9.007,0.307c-15.274,0.398-30.556,0.581-45.834,0.712c-2.909,0.024-7.427-1.183-8.017,2.687
					c-0.192,1.261,1.735,1.803,1.929,0.531c0.308-2.018,2.955-1.199,4.475-1.206c0.767-0.004,1.534-0.011,2.3-0.018
					c2.894-0.026,5.788-0.058,8.681-0.092c8.549-0.1,17.099-0.221,25.647-0.379c6.852-0.127,13.72-0.2,20.564-0.581
					c0.677-0.037,1.355-0.076,2.028-0.161c1.361-0.172,2.759-0.317,4.105,0.019c1.112,0.277,1.042,1.383,1.061,2.291
					c0.067,3.171,0.482,6.27,0.298,9.455c-0.106,1.839,0.176,4.054-0.254,5.84c-0.488,2.023-6.148,1.426-7.979,1.478
					c-3.218,0.092-6.436,0.181-9.654,0.267c-8.756,0.232-17.513,0.438-26.27,0.556c-6.158,0.083-12.427,0.363-18.574-0.159
					c-1.749-0.148-3.558-0.313-5.281-0.649c-1.01-0.197-1.159-1.987-1.354-2.829c-1.022-4.431-0.166-9.621,0.242-14.096
					C95.854,328.676,93.853,328.688,93.737,329.961z"/>
			</g>
		</g>
	</g>
	<g>
		<path style="fill:#FBBF62;" d="M458.81,18.976c-6.871,2.115-11.627,2.115-16.385,8.457c-4.757,7.4-3.7,16.914,1.586,23.785
			c11.627,16.385,40.698,0.527,33.299-17.972c-2.113-5.814-7.4-13.214-14.27-12.155"/>
		<g>
			<g>
				<path style="fill:#292A80;" d="M454.42,16.442c-4.854,1.46-9.809,2.251-13.855,5.517c-4.63,3.736-6.51,9.842-6.264,15.616
					c0.41,9.636,7.443,18.754,17.226,19.833c8.042,0.887,16.361-3.646,20.847-10.172c5.352-7.788,2.669-17.474-3.14-24.188
					c-2.597-3.002-6.292-4.993-10.319-4.527c-1.266,0.146-1.28,2.148,0,2c9.582-1.109,15.911,12.545,14.04,20.584
					c-1.776,7.631-9.366,12.865-16.728,14.157c-9.624,1.689-17.035-5.272-19.389-14.195c-1.615-6.124,0.042-12.875,4.641-17.254
					c3.605-3.433,8.9-4.066,13.473-5.441C456.184,18,455.658,16.069,454.42,16.442L454.42,16.442z"/>
			</g>
		</g>
	</g>
	<g>
		<g>
			<path style="fill:#FF96BD;" d="M158.59,81.874c-7.4,15.329,11.627,26.956,24.842,17.972
				c16.385-11.629,2.114-38.056-16.386-30.128c-3.699,1.586-7.399,4.229-7.928,8.456"/>
		</g>
		<g>
			<g>
				<path style="fill:#292A80;" d="M153.601,79.8c-3.875,8.402-0.553,17.561,8.142,21.123c8.706,3.567,19.006,0.321,23.685-7.955
					c4.034-7.136,1.827-16.255-3.594-21.982c-6.395-6.757-16.593-6.648-23.767-1.168c-2.142,1.637-3.582,3.864-4.04,6.522
					c-0.217,1.261,1.711,1.801,1.929,0.531c0.904-5.252,6.368-8.003,11.159-8.957c3.64-0.724,7.367,0.208,10.47,2.146
					c6.137,3.833,9.153,11.89,7.356,18.815c-2.235,8.609-11.811,12.984-20.053,11.006c-8.794-2.109-13.371-10.812-9.562-19.072
					C155.864,79.646,154.141,78.63,153.601,79.8L153.601,79.8z"/>
			</g>
		</g>
	</g>
	<g>
		<g>
			<path style="fill:#2DAABD;" d="M114.72,92.446c-4.757,10.57,12.685,16.384,16.914,4.757c3.7-11.629-14.8-15.857-16.386-6.343"/>
		</g>
		<g>
			<g>
				<path style="fill:#292A80;" d="M109.63,90.61c-2.235,5.322,0.636,10.346,5.991,11.994c5.634,1.733,11.383-1.686,13.004-7.23
					c1.591-5.443-2.002-10.173-7.062-11.807c-4.653-1.503-10.371,0.22-11.405,5.456c-0.248,1.259,1.679,1.796,1.929,0.531
					c0.811-4.107,4.931-5.057,8.546-4.171c4.158,1.018,6.996,4.632,6.187,8.946c-1.996,10.633-19.635,7.228-15.261-3.188
					C112.058,89.953,110.122,89.439,109.63,90.61L109.63,90.61z"/>
			</g>
		</g>
	</g>
	<g>
		<g>
			<g>
				<path style="fill:#292A80;" d="M48.224,371.126c13.625,0,27.25,0,40.875,0c1.29,0,1.29-2,0-2c-13.625,0-27.25,0-40.875,0
					C46.935,369.126,46.935,371.126,48.224,371.126L48.224,371.126z"/>
			</g>
		</g>
		<g>
			<g>
				<path style="fill:#292A80;" d="M162.012,369.343c15.039-0.855,30.112,0.686,45.137-0.326c1.28-0.086,1.288-2.087,0-2
					c-15.025,1.013-30.098-0.529-45.137,0.326C160.73,367.416,160.723,369.416,162.012,369.343L162.012,369.343z"/>
			</g>
		</g>
		<g>
			<g>
				<path style="fill:#292A80;" d="M542.25,370.426c14.108,0,28.155-0.466,42.252-0.878c13.868-0.406,27.742,0.162,41.612,0.174
					c1.29,0.001,1.29-1.999,0-2c-13.872-0.012-27.741-0.539-41.612-0.174c-14.097,0.37-28.144,0.878-42.252,0.878
					C540.96,368.426,540.96,370.426,542.25,370.426L542.25,370.426z"/>
			</g>
		</g>
		<g>
			<g>
				<path style="fill:#292A80;" d="M246.371,370.904c4.662-0.014,9.32-0.228,13.981-0.241c1.29-0.004,1.29-2.004,0-2
					c-4.662,0.014-9.32,0.228-13.981,0.241C245.081,368.908,245.081,370.908,246.371,370.904L246.371,370.904z"/>
			</g>
		</g>
		<g>
			<g>
				<path style="fill:#292A80;" d="M380.159,369.722c5.293-0.01,10.584-0.172,15.877-0.182c1.29-0.002,1.29-2.002,0-2
					c-5.293,0.01-10.584,0.172-15.877,0.182C378.869,367.724,378.869,369.724,380.159,369.722L380.159,369.722z"/>
			</g>
		</g>
		<g>
			<g>
				<path style="fill:#292A80;" d="M435.155,369.017c12.565-0.003,25.131-0.118,37.696-0.135c1.29-0.002,1.29-2.002,0-2
					c-12.565,0.017-25.131,0.132-37.696,0.135C433.865,367.017,433.865,369.017,435.155,369.017L435.155,369.017z"/>
			</g>
		</g>
	</g>
	<g>
		<g>
			<path style="fill:#2ABED4;" d="M326.473,434.993c6.079-1.057,32.546,2.973,48.118,5.584c15.574,2.609,39.862,7.866,60.753,1.67
				c20.89-6.195,27.497-17.561,24.061-28.659c-3.436-11.101-23.256-24.849-47.834-27.356c-24.578-2.508-53.768,13.047-69.507,24.185
				c-9.694,4.608-13.696,7.664-13.696,7.664S323.566,426.537,326.473,434.993z"/>
		</g>
		<g>
			<path style="fill:#2ABED4;" d="M263.221,380.2c-1.261,2.129,0.631,5.806-3.74,6.482c-4.371,0.68-36.078,3.26-45.855,7.154
				c-9.779,3.895-33.66,13.916-38.105,26.875c-3.916,4.769,2.919,14.93,8.241,22.267c2.643,3.644,9.514,14.218,29.864,14.612
				c20.35,0.396,48.403-4.375,66.223-12.561c17.819-8.185,37.111-19.995,37.111-19.995s-0.086-16.996-10.219-27.832
				c10.219-0.716,10.219-0.716,10.219-0.716l5.457-8.183c-12.233,0.496-18.417-0.136-23.174-1.248
				C294.484,385.942,264.147,376.999,263.221,380.2z"/>
		</g>
		<g>
			<path style="fill:#743AA1;" d="M402.85,258.985c-0.047-0.053-0.093-0.099-0.141-0.148c-3.298-8.168-8.566-17.311-13.328-21.107
				c-5.823-4.645-11.991-6.23-19.744-5.701c-7.75,0.528-14.621-1.614-14.621-1.614c-5.285,9.543-16.045,38.085-18.691,41.608
				c-2.647,3.523-6.73,11.117-12.068,6.355c-5.34-4.764-11.104-13.016-15.545-17.984c-4.439-4.969-17.826-19.206-20.647-30.48
				c-8.809,1.057-17.442-1.409-25.899,1.41c-8.134,2.712-18.548,15.857-25.446,32.691c-1.148,1.742-1.772,3.366,0.118,4.626
				c2.334,1.554,7.356,3.647,7.533,3.294c0.123-0.246,0.075-4.784,0.034-7.532c2.917,0.015,5.456,0.915,8.306,3.03
				c5.227,3.885,10.256,8.936,13.181,10.186c2.924,1.25,4.782,1.625,4.782,1.625s4.617,29.844,5.719,41.969
				c1.101,12.124,0.558,23.624-2.544,32.146c-3.101,8.522-8.359,21.867-10.626,26.842c4.053-1.409,15.741,3.701,23.181,4.976
				c7.441,1.273,32.66,6.294,37.854,2.776c9.899-4.359,21.408,4.596,38.418-0.169c17.006-4.764,18.77-7.827,18.77-7.827
				s-6.134-15.12-8.722-22.988c-2.589-7.869-5.902-17.186-4.67-25.871c1.235-8.686,6.169-23.717,7.177-30.599
				c1.01-6.884,2.25-27.77,2.25-27.77s11.16-6.606,19.169-9.297c-0.115,4.996,0.009,11.583,0.945,13.188
				C403.467,274.577,410.691,268.323,402.85,258.985z"/>
		</g>
		<path style="fill:#FFC8B5;" d="M305.066,396.673c2.206,1.874,11.54,9.594,11.893,28.361c-8.985,5.203-13.214,8.199-13.214,8.199
			l21.936,1.344c-0.618-5.924-0.878-12.622,2.688-16.497c10.085-8.456,32.709-19.732,41.25-22.991
			c8.544-3.262,27.326-8.867,31.646-8.857c-0.45-2.774-1.301-4.094-3.822-4.886c-2.52-0.794-7.326-3.583-10.256-3.964
			c-2.931-0.381-9.926-1.493-16.995,3.394c-7.071,4.888-18.115,6.595-25.515,5.362c-7.4-1.232-9.958-3.988-15.226-1.703
			c-5.269,2.284-10.201,7.02-12.491,12.052C312.202,397.819,305.066,396.673,305.066,396.673z"/>
		<path style="fill:#FFC8B5;" d="M257.759,398.523c-1.391-3.517-0.834-6.946,3.195-8.054s11.604,3.824,18.3,5.676
			C271.502,394.825,257.759,398.523,257.759,398.523z"/>
		<path style="fill:#FFC8B5;" d="M244.37,265.327c-0.881,7.928,3.444,39.346-0.701,49.801c-4.145,10.455-5.713,16.513-14.971,27.094
			c-9.259,10.58-14.254,22.606-16.525,27.117c-2.27,4.512-4.172,11.552-9.576,11.492c-5.404-0.058-12.456,0.188-15.135-0.631
			c-2.68-0.816-6.775-2.463-9.554-4.49c-2.779-2.028-5.408-0.091-6.12,1.671c-0.712,1.763,2.195,4.493,2.195,4.493
			c-2.113,2.377-5.202,6.076-4.054,13.215c-3.963-5.903-5.9-5.411-7.31-1.252c-1.411,4.16,2.481,14.022,8.464,12.526
			c5.983-1.495,7.393-3.769,7.393-3.769c3.7,4.21,8.809,5.441,10.307,3.328c6.39,1.406,14.167,0.293,21.932-7.41
			c7.764-7.703,23.269-21.16,31.791-28.559c8.521-7.398,26-23.744,29.524-31.15c3.524-7.406,4.643-20.168,2.851-27.354
			c-1.793-7.186-4.209-32.207-4.209-32.207s-4.279-0.175-8.86-4.754C257.231,269.908,250.712,264.623,244.37,265.327z"/>
		<path style="fill:#FFC8B5;" d="M371.137,318.889c0.792,5.284,7.986,23.22,13.399,29.923c5.411,6.705,23.335,24.791,27.035,29.891
			c3.697,5.1,9.706,13.383,16.04,15.545c6.334,2.162,9.751,2.637,11.647,3.52c1.895,0.883,7.376,2.694,10.722-1.094
			c5.989,3.613,8.82,1.85,9.045,0c2.406,2.379,6.033,1.5,6.684,0c2.947,2.907,6.857,1.15,6.703-1.584
			c-0.155-2.737,1.009-6.803,0.002-7.666c-1.006-0.861-2.525-3.345-5.522,2.645c-1.057-3.699-1.615-5.633-1.615-5.633
			c1.521-1.502,3.765-3.988,0.344-5.387c-3.42-1.398-9.404-3.965-13.845-2.842c-4.441,1.127-9.824,3.291-12.116,2.587
			c-2.29-0.706-7.71-6.663-13.672-16.899c-5.96-10.235-11.797-19.834-17.337-27.455c-5.537-7.622-9.941-17.49-9.941-27.003
			c0-9.515,0.354-20.413-0.792-27.913c-1.148-7.502-1.01-16.311-1.01-16.311l-19.43,8.811
			C377.743,283.827,376.157,301.096,371.137,318.889z"/>
		<path style="fill:#FFC8B5;" d="M305.596,116.092c-5.375-4.048-10.662-11.624-3.79-20.08c6.871-8.457,22.73-10.397,29.249-5.814
			c6.518,4.581,13.175,13.24,2.622,25.032c12.882,6.329,19.501,12.849,20.42,23.772c0.919,10.923,0.69,16.907,0.69,16.907
			c5.514-1.579,8.58,1.101,7.752,10.243c-0.83,9.145-4.421,11.786-10.025,8.262c-1.024,20.087-8.783,24.757-12.921,29.028
			c3.44,17.134,5.908,26.819,15.95,26.998c-10.747,24.493-17.833,41.406-21.867,45.106c-4.032,3.7-6,6.695-12.857,0
			c-6.857-6.696-11.26-13.717-17.868-21.747c-6.607-8.03-15.063-23.005-14.889-23.886c10.044-2.818,18.146-5.813,19.382-13.037
			c1.232-7.225,2.115-14.448,2.115-14.448c-1.94-1.938-12.335-10.571-15.506-26.956c-7.928,5.638-11.58-3.013-12.397-8.025
			c-0.817-5.012,1.825-11.531,10.459-8.624C289.298,140.939,288.768,126.479,305.596,116.092z"/>
		<g>
			<path style="fill:#2ABED4;" d="M347.086,134.244c2.82,8.457,6.131,15.999,7.293,19.98c0.143-0.63,0.282-1.26,0.422-1.889
				c-0.042-2.846-0.2-7.341-0.704-13.334c-0.919-10.923-7.538-17.442-20.42-23.772c10.553-11.792,3.896-20.451-2.622-25.032
				c-6.519-4.582-22.378-2.643-29.249,5.814c-6.872,8.456-1.585,16.032,3.79,20.08c-16.828,10.388-16.298,24.848-13.48,42.73
				c1.762,1.32,5.462-3.965,5.815-11.364c0.353-7.4,2.114-12.26,7.664-16.084c5.549-3.826,7.311-6.997,7.663-9.11
				c7.4,1.057,5.99,5.813,13.743,6.693C334.754,129.839,344.267,125.787,347.086,134.244z"/>
		</g>
		<g>
			<g>
				<path style="fill:#292A80;" d="M323.696,149.283c1.723,5.057,1.312,10.338,1.286,15.591c-0.002,0.462,0.31,0.824,0.734,0.964
					c1.251,0.415,2.474,0.828,3.476,1.721c1.534,1.367-1.229,3.686-1.958,4.737c0.621,0.168,1.242,0.336,1.863,0.505
					c-0.01,0.059-0.02,0.119-0.029,0.179c0.844-0.967-0.564-2.388-1.414-1.414c-0.369,0.423-0.487,0.682-0.557,1.235
					c-0.136,1.082,1.362,1.227,1.863,0.505c1.146-1.651,3.793-3.759,2.448-6.047c-1.136-1.931-3.128-2.676-5.161-3.35
					c0.245,0.321,0.489,0.643,0.734,0.964c0.027-5.43,0.423-10.899-1.357-16.122C325.211,147.538,323.279,148.059,323.696,149.283
					L323.696,149.283z"/>
			</g>
		</g>
		<g>
			<g>
				<path style="fill:#292A80;" d="M303.448,157.186c1.436,2.161,3.724,4.076,6.404,4.215c2.356,0.122,3.958-2.256,5.101-3.951
					c0.724-1.073-1.01-2.073-1.727-1.01c-0.818,1.213-1.763,2.812-3.374,2.961c-1.817,0.168-3.775-1.867-4.678-3.225
					C304.465,155.108,302.732,156.109,303.448,157.186L303.448,157.186z"/>
			</g>
		</g>
		<g>
			<g>
				<path style="fill:#292A80;" d="M332.254,156.922c1.273,1.743,2.924,3.101,5.158,3.204c2.282,0.105,3.921-1.849,4.761-3.732
					c0.521-1.167-1.202-2.186-1.727-1.01c-0.595,1.333-1.435,2.666-3.034,2.742c-1.423,0.067-2.662-1.161-3.432-2.214
					C333.228,154.882,331.491,155.878,332.254,156.922L332.254,156.922z"/>
			</g>
		</g>
		<g>
			<g>
				<path style="fill:#292A80;" d="M315.341,175.686c2.42,4.105,8.301,7.686,12.996,5.38c1.157-0.568,0.144-2.293-1.01-1.727
					c-3.651,1.793-8.448-1.59-10.26-4.663C316.413,173.566,314.684,174.572,315.341,175.686L315.341,175.686z"/>
			</g>
		</g>
		<g>
			<g>
				<path style="fill:#292A80;" d="M311.975,121.827c2.653,0.167,4.287,2.272,6.127,3.926c1.635,1.47,3.617,2.215,5.752,2.626
					c5.6,1.079,12.297-2.115,17.506,0.784c2.513,1.399,3.831,4.693,4.755,7.224c1.152,3.158,1.864,6.431,3.125,9.558
					c1.018,2.524,2.295,4.615,2.139,7.405c-0.109,1.946-0.408,3.921,0.571,5.697c0.622,1.129,2.35,0.121,1.727-1.01
					c-1.106-2.007-0.102-4.895-0.313-7.095c-0.265-2.751-2.266-5.565-3.196-8.154c-1.781-4.953-2.498-11.791-7.279-15.004
					c-4.951-3.327-11.594-0.987-17.108-1.188c-3.428-0.125-5.727-1.727-8.108-3.986c-1.645-1.561-3.399-2.638-5.696-2.783
					C310.686,119.746,310.694,121.747,311.975,121.827L311.975,121.827z"/>
			</g>
		</g>
		<g>
			<g>
				<path style="fill:#292A80;" d="M288.191,155.717c-5.979-1.703-9.821,5.188-8.786,10.361c0.576,2.878,1.994,6.321,4.396,8.164
					c2.056,1.577,5.152,2.872,7.536,1.273c1.065-0.714,0.065-2.447-1.01-1.727c-1.775,1.19-4.266-0.167-5.659-1.43
					c-1.681-1.522-2.647-4.037-3.206-6.169c-0.991-3.783,1.426-9.903,6.198-8.544C288.903,158,289.43,156.07,288.191,155.717
					L288.191,155.717z"/>
			</g>
		</g>
		<g>
			<g>
				<path style="fill:#292A80;" d="M289.832,156.239c0.64,8.36,1.132,16.522,4.158,24.428c2.762,7.217,6.645,14.162,12.632,19.185
					c8.741,7.334,23.432,10.161,32.786,2.37c0.992-0.826-0.431-2.233-1.414-1.414c-9.254,7.708-23.637,3.57-31.638-3.854
					c-5.291-4.909-8.539-11.703-11.02-18.361c-2.666-7.154-2.928-14.823-3.504-22.354
					C291.734,154.962,289.733,154.952,289.832,156.239L289.832,156.239z"/>
			</g>
		</g>
		<g>
			<g>
				<path style="fill:#292A80;" d="M352.503,154.565c-1.851,9.373-1.739,18.995-3.582,28.368c-0.835,4.246-2.594,7.83-5.084,11.343
					c-1.227,1.731-2.631,3.338-4.099,4.867c-0.693,0.722-1.923,1.435-2.215,2.452c-0.623,2.177,0.01,4.769,0.392,6.938
					c0.56,3.178,1.354,6.373,2.561,9.369c2.271,5.639,6.747,11.167,13.255,11.399c1.29,0.046,1.286-1.954,0-2
					c-6.968-0.249-10.789-7.519-12.512-13.399c-0.832-2.839-1.459-5.78-1.796-8.72c-0.067-0.594-0.439-2.442-0.015-2.96
					c0.925-1.129,2.167-2.086,3.152-3.181c4.871-5.414,7.601-11.255,8.805-18.404c1.426-8.467,1.4-17.104,3.065-25.54
					C354.68,153.837,352.752,153.3,352.503,154.565L352.503,154.565z"/>
			</g>
		</g>
		<g>
			<g>
				<path style="fill:#292A80;" d="M307.311,200.55c-1.381,5.766-0.551,11.934-3.477,17.291c-2.675,4.898-8.319,7.544-13.531,8.701
					c-1.259,0.28-0.725,2.208,0.531,1.929c5.106-1.134,10.322-3.575,13.532-7.859c4.364-5.823,3.271-12.841,4.874-19.531
					C309.54,199.828,307.611,199.296,307.311,200.55L307.311,200.55z"/>
			</g>
		</g>
		<g>
			<g>
				<path style="fill:#292A80;" d="M291.796,155.974c-1.512-9.028-3.198-19.045,0.815-27.683
					c4.254-9.16,14.778-14.471,24.432-15.547c9.598-1.069,19.35,2.185,26.262,8.93c9.108,8.89,10.035,21.176,9.161,33.157
					c-0.094,1.288,1.906,1.278,2,0c0.474-6.487,0.641-12.985-0.97-19.338c-1.452-5.73-4.652-11.035-8.777-15.233
					c-7.15-7.279-17.651-10.45-27.676-9.516c-10.111,0.942-20.522,6.457-25.606,15.461c-5.157,9.132-3.21,20.5-1.569,30.3
					C290.081,157.775,292.007,157.235,291.796,155.974L291.796,155.974z"/>
			</g>
		</g>
		<g>
			<g>
				<path style="fill:#292A80;" d="M304.639,113.615c-5.547-3.574-8.396-9.539-5.181-15.725c2.895-5.569,9.411-8.457,15.267-9.657
					c5.414-1.109,11.36-0.523,15.997,2.633c2.781,1.893,4.562,4.92,5.501,8.086c1.265,4.263-0.627,8.452-3.09,11.848
					c-0.759,1.046,0.978,2.043,1.727,1.01c2.457-3.387,4.3-7.49,3.607-11.773c-0.604-3.731-2.436-7.109-5.198-9.679
					c-5.049-4.697-12.616-5.243-19.076-4.054c-6.853,1.261-13.935,5.11-16.98,11.627c-3.21,6.87,0.512,13.605,6.417,17.409
					C304.717,116.043,305.719,114.311,304.639,113.615L304.639,113.615z"/>
			</g>
		</g>
		<g>
			<g>
				<path style="fill:#292A80;" d="M303.493,142.48c2.528-1.924,5.425-2.34,8.483-2.805c1.272-0.193,0.729-2.121-0.531-1.929
					c-3.227,0.491-6.299,0.98-8.962,3.007C301.472,141.523,302.466,143.261,303.493,142.48L303.493,142.48z"/>
			</g>
		</g>
		<g>
			<g>
				<path style="fill:#292A80;" d="M333.117,138.388c2.733,0.002,5.533-0.012,7.75,1.822c0.985,0.815,2.409-0.591,1.414-1.414
					c-2.682-2.219-5.813-2.406-9.164-2.408C331.827,136.387,331.827,138.387,333.117,138.388L333.117,138.388z"/>
			</g>
		</g>
		<g>
			<g>
				<path style="fill:#292A80;" d="M355.846,155.303c4.011,0.012,4.534,5.77,4.376,8.747c-0.244,4.576-2.403,12.174-8.486,8.926
					c-1.138-0.607-2.147,1.119-1.01,1.727c2.599,1.388,5.663,1.496,7.979-0.569c2.448-2.185,3.023-6.178,3.427-9.259
					c0.568-4.34-0.723-11.555-6.285-11.571C354.556,153.299,354.557,155.299,355.846,155.303L355.846,155.303z"/>
			</g>
		</g>
		<g>
			<g>
				<path style="fill:#292A80;" d="M280.086,228.182c-5.716,0.254-11.422-0.921-17.104,0.119c-4.792,0.877-8.906,3.885-12.263,7.264
					c-3.641,3.664-6.518,8.097-9.078,12.555c-1.317,2.293-2.495,4.658-3.831,6.941c-1.558,2.661-3.126,5.349-3.793,8.39
					c-0.275,1.257,1.652,1.791,1.929,0.531c1.065-4.858,4.39-9.341,6.76-13.669c2.387-4.36,5.12-8.552,8.43-12.271
					c3.355-3.768,7.414-6.67,12.378-7.811c5.37-1.235,11.128,0.194,16.572-0.047C281.371,230.124,281.376,228.124,280.086,228.182
					L280.086,228.182z"/>
			</g>
		</g>
		<g>
			<g>
				<path style="fill:#292A80;" d="M235.134,265.282c4.798-3.695,12.455-0.789,16.961,2.114c3.131,2.018,5.832,4.665,8.792,6.916
					c2.536,1.928,5.355,2.854,8.023,4.456c1.109,0.666,2.114-1.063,1.01-1.727c-1.04-0.624-2.054-1.113-3.194-1.509
					c-2.155-0.746-4.2-2.436-5.966-3.827c-2.982-2.348-5.741-5.002-9.062-6.885c-4.891-2.773-12.638-5.066-17.574-1.266
					C233.118,264.33,234.112,266.069,235.134,265.282L235.134,265.282z"/>
			</g>
		</g>
		<g>
			<g>
				<path style="fill:#292A80;" d="M233.313,265.39c0.747,3.391,6.158,5.419,9.155,5.983c1.26,0.238,1.798-1.689,0.531-1.928
					c-1.423-0.269-2.786-0.829-4.084-1.457c-1.281-0.619-3.336-1.598-3.674-3.13C234.964,263.599,233.036,264.133,233.313,265.39
					L233.313,265.39z"/>
			</g>
		</g>
		<g>
			<g>
				<path style="fill:#292A80;" d="M265.731,231.03c-1.701,5.421-1.732,10.893-0.353,16.389c0.314,1.251,2.243,0.72,1.929-0.531
					c-1.298-5.174-1.248-10.226,0.353-15.326C268.047,230.328,266.116,229.804,265.731,231.03L265.731,231.03z"/>
			</g>
		</g>
		<g>
			<g>
				<path style="fill:#292A80;" d="M285.817,228.743c3.6,10.275,10.301,18.635,17.384,26.727c3.564,4.072,7.276,8.079,10.415,12.496
					c2.435,3.427,4.881,7.041,8.453,9.382c8.657,5.674,14.789-8.554,17.483-14.396c5.197-11.267,9.691-22.952,15.396-33.97
					c0.592-1.144-1.134-2.155-1.727-1.01c-2.68,5.176-4.921,10.551-7.227,15.9c-2.089,4.846-4.414,9.581-6.537,14.413
					c-2.007,4.57-4.063,9.135-6.867,13.282c-1.342,1.985-2.965,4.145-5.331,4.914c-2.133,0.693-4.297-0.792-5.824-2.102
					c-2.922-2.506-4.833-5.904-7.167-8.906c-3.061-3.938-6.365-7.67-9.652-11.418c-6.852-7.812-13.392-15.914-16.87-25.844
					C287.322,227.003,285.39,227.523,285.817,228.743L285.817,228.743z"/>
			</g>
		</g>
		<g>
			<g>
				<path style="fill:#292A80;" d="M242.086,263.715c-0.597,14.287,1.39,28.661,0.381,42.933
					c-1.086,15.35-12.335,28.356-20.871,40.401c-2.148,3.03-3.94,6.391-5.919,9.541c-2.038,3.246-3.78,6.478-5.348,9.97
					c-1.414,3.148-2.962,6.266-5.136,8.966c-2.575,3.199-6.028,3.124-9.773,2.559c-2.937-0.443-5.8-0.73-8.768-0.908
					c-1.847-0.111-3.695-0.377-5.344-1.256c-1.44-0.767-2.708-1.846-4.124-2.66c-3.356-1.929-8.805-0.209-7.249,4.368
					c0.432,1.271,1.454,2.225,2.523,2.969c1.061,0.739,2.06-0.995,1.01-1.727c-1.156-0.806-2.565-2.463-1.365-3.839
					c1.46-1.673,3.909-0.184,5.283,0.686c2.553,1.616,4.524,2.974,7.625,3.306c3.311,0.354,6.582,0.456,9.878,0.989
					c2.687,0.435,5.413,0.691,8.028-0.212c2.365-0.816,3.915-3.021,5.285-4.983c2.024-2.902,3.412-6.239,4.84-9.457
					c1.462-3.296,3.443-6.301,5.361-9.348c2.143-3.404,4.146-6.876,6.483-10.151c8.272-11.596,17.972-23.708,19.505-38.34
					c0.751-7.168,0.134-14.562,0.014-21.755c-0.118-7.097-0.581-14.19-0.351-21.289c0.011-0.254,0.021-0.509,0.032-0.763
					C244.14,262.425,242.14,262.43,242.086,263.715L242.086,263.715z"/>
			</g>
		</g>
		<g>
			<g>
				<path style="fill:#292A80;" d="M267.104,262.306c0.761,11.011,1.869,21.994,3.343,32.933
					c1.396,10.356,3.299,20.611,3.667,31.077c0.344,9.773-0.5,19.721-3.719,29.004c-3.311,9.549-8.445,18.402-11.688,27.979
					c-0.415,1.225,1.518,1.746,1.929,0.531c3.241-9.572,8.233-18.482,11.688-27.979c3.312-9.1,4.02-19.091,3.814-28.696
					c-0.213-9.963-1.988-19.726-3.369-29.566c-1.643-11.712-2.85-23.484-3.665-35.282
					C269.016,261.026,267.016,261.018,267.104,262.306L267.104,262.306z"/>
			</g>
		</g>
		<g>
			<g>
				<path style="fill:#292A80;" d="M373.874,258.782c0.289,5.011,0.923,9.992,1.253,15.001c0.355,5.385-0.151,10.762-0.782,16.109
					c-1.254,10.641-4.301,20.815-6.713,31.217c-1.071,4.623-1.932,9.229-1.847,13.992c0.088,4.968,1.256,9.884,2.677,14.618
					c1.44,4.801,3.563,9.33,5.241,14.043c1.492,4.189,2.446,8.555,4.535,12.513c0.602,1.141,2.328,0.13,1.727-1.01
					c-2.136-4.047-3.104-8.585-4.632-12.874c-1.581-4.438-3.542-8.697-4.942-13.204c-1.516-4.877-2.531-9.878-2.622-14.995
					c-0.091-5.165,1.233-10.298,2.44-15.285c2.337-9.66,4.906-19.124,6.136-29.015c0.626-5.027,1.068-10.105,0.836-15.17
					c-0.245-5.327-1-10.617-1.307-15.94C375.8,257.5,373.8,257.493,373.874,258.782L373.874,258.782z"/>
			</g>
		</g>
		<g>
			<g>
				<path style="fill:#292A80;" d="M306.163,321.154c11.241-12.044,28.315-14.782,41.378-24.157c1.037-0.744,0.041-2.48-1.01-1.727
					c-13.214,9.484-30.401,12.275-41.782,24.47C303.87,320.682,305.281,322.099,306.163,321.154L306.163,321.154z"/>
			</g>
		</g>
		<g>
			<g>
				<path style="fill:#292A80;" d="M319.111,302.03c5.183-1.795,9.884-4.542,14.687-7.147c1.134-0.615,0.124-2.342-1.01-1.727
					c-4.647,2.521-9.191,5.207-14.208,6.945C317.369,300.522,317.89,302.454,319.111,302.03L319.111,302.03z"/>
			</g>
		</g>
		<g>
			<g>
				<path style="fill:#292A80;" d="M217.604,415.481c7.161-5.329,14.828-10.4,23.21-13.571c8.544-3.232,17.987-4.76,27.042-5.634
					c9.191-0.887,18.458-0.683,27.673-0.383c9.653,0.313,19.219-0.026,28.866-0.361c1.286-0.045,1.291-2.045,0-2
					c-9.646,0.335-19.214,0.686-28.866,0.361c-9.863-0.332-19.742-0.451-29.571,0.574c-8.651,0.902-17.487,2.538-25.676,5.514
					c-8.568,3.113-16.414,8.359-23.688,13.773C215.572,414.516,216.567,416.253,217.604,415.481L217.604,415.481z"/>
			</g>
		</g>
		<g>
			<g>
				<path style="fill:#292A80;" d="M316.904,393.741c1.227-3.372,4.623-6.456,7.6-8.318c3.749-2.345,8.012-2.327,12.205-1.455
					c3.486,0.726,6.841,1.803,10.415,2.051c3.472,0.241,7.069-0.378,10.439-1.153c7.469-1.718,13.566-6.6,21.081-8.14
					c4.699-0.964,8.69,0.359,12.901,2.339c2.094,0.983,7.2,1.621,7.434,4.368c0.108,1.275,2.109,1.286,2,0
					c-0.232-2.729-2.271-3.889-4.668-4.702c-3.832-1.3-7.396-3.402-11.395-4.19c-9.288-1.829-17.238,5.208-25.548,7.769
					c-4.216,1.3-8.71,1.955-13.117,1.648c-4.585-0.319-8.911-2.229-13.514-2.575c-7.232-0.544-15.302,5.063-17.763,11.827
					C314.533,394.425,316.466,394.943,316.904,393.741L316.904,393.741z"/>
			</g>
		</g>
		<g>
			<g>
				<path style="fill:#292A80;" d="M212.846,411.518c3.396-2.277,7.837-1.322,11.653-2.278c1.251-0.313,0.72-2.241-0.531-1.928
					c-4.037,1.011-8.504,0.047-12.132,2.479C210.771,410.505,211.771,412.238,212.846,411.518L212.846,411.518z"/>
			</g>
		</g>
		<g>
			<g>
				<path style="fill:#292A80;" d="M195.452,395.255c-1.06,0.791-1.946,1.677-2.737,2.737c0.523-0.067,1.047-0.135,1.57-0.202
					c-2.382-2.793-6.6-9.137-11.1-6.445c-3.363,2.013,0.088,8.049,1.377,10.224c1.154,1.948,2.729,3.801,4.816,4.759
					c2.312,1.062,5.662,0.396,8.027-0.214c5.621-1.448,10.078-5.851,14.058-9.817c11.1-11.063,23.129-20.85,34.982-31.069
					c5.431-4.683,10.591-9.754,15.69-14.797c4.678-4.626,8.355-9.738,10.843-15.851c2.143-5.266,2.944-11.053,2.204-16.688
					c-0.165-1.26-2.167-1.276-2,0c0.911,6.938-0.678,13.656-3.828,19.844c-2.801,5.502-7.092,9.864-11.523,14.073
					c-4.697,4.463-9.292,9.008-14.219,13.222c-5.46,4.67-11.06,9.17-16.497,13.867c-5.182,4.478-10.244,9.093-15.078,13.946
					c-4.136,4.153-8.234,8.711-13.817,10.902c-2.506,0.983-6.402,1.772-8.848,0.322c-2.251-1.334-3.719-4.328-4.684-6.659
					c-0.843-2.037-1.755-5.327,1.8-4.405c2.659,0.689,4.707,4.237,6.381,6.2c0.457,0.536,1.216,0.272,1.57-0.202
					c0.58-0.777,1.243-1.441,2.02-2.021C197.482,396.22,196.487,394.482,195.452,395.255L195.452,395.255z"/>
			</g>
		</g>
		<g>
			<g>
				<path style="fill:#292A80;" d="M183.178,394.003c-0.615-3.008-1.849-8.835-5.825-8.818c-3.408,0.014-4.372,4.884-3.98,7.398
					c0.977,6.274,6.198,15.746,13.864,12.691c1.183-0.471,0.668-2.406-0.531-1.928c-5.393,2.147-8.951-3.532-10.546-7.89
					c-0.842-2.299-1.397-4.848-0.163-7.106c2.345-4.289,4.909,4.497,5.253,6.184C181.507,395.798,183.435,395.262,183.178,394.003
					L183.178,394.003z"/>
			</g>
		</g>
		<g>
			<g>
				<path style="fill:#292A80;" d="M177.364,386.076c0.632-2.326,0.218-5.894-2.132-7.149c-2.777-1.483-5.399,2.746-6.247,4.724
					c-2.607,6.084-1.848,16.94,6.621,17.432c1.289,0.074,1.282-1.926,0-2c-6.103-0.354-6.471-7.818-5.521-12.311
					c0.44-2.084,1.354-4.344,3.119-5.646c2.329-1.717,2.573,3.162,2.231,4.42C175.097,386.791,177.026,387.319,177.364,386.076
					L177.364,386.076z"/>
			</g>
		</g>
		<g>
			<g>
				<path style="fill:#292A80;" d="M169.7,399.024c-0.616-3.279-0.734-6.947-2.575-9.839c-2.085-3.274-5.491-0.69-6.283,2.105
					c-1.129,3.986,0.002,9.054,2.566,12.216c3.955,4.876,9.639,1.858,13.435-1.396c0.981-0.841-0.441-2.249-1.414-1.414
					c-1.677,1.438-3.399,2.713-5.542,3.348c-2.29,0.679-4.445-1.005-5.665-2.757c-1.766-2.533-2.043-6.501-1.45-9.465
					c0.236-1.178,1.52-3.083,2.627-1.627c0.655,0.861,0.938,2.007,1.216,3.031c0.564,2.075,0.762,4.222,1.158,6.329
					C168.009,400.822,169.936,400.284,169.7,399.024L169.7,399.024z"/>
			</g>
		</g>
		<g>
			<g>
				<path style="fill:#292A80;" d="M176.952,383.769c2.1,1.008,4.397,1.594,6.342,2.905c-0.153-0.376-0.306-0.753-0.459-1.129
					c-0.525,1.277-1.17,2.51-2.121,3.523c-0.881,0.939,0.53,2.356,1.414,1.414c1.199-1.278,1.974-2.797,2.635-4.405
					c0.175-0.427-0.12-0.9-0.46-1.129c-1.95-1.315-4.24-1.896-6.342-2.905C176.805,381.486,175.79,383.211,176.952,383.769
					L176.952,383.769z"/>
			</g>
		</g>
		<g>
			<g>
				<path style="fill:#292A80;" d="M256.154,395.589c-0.02-0.852-0.073-1.699-0.058-2.552c0.038-2.102,2.364-2.901,4.061-3.125
					c2.249-0.296,4.689,0.225,6.844,0.828c4.682,1.31,8.565,4.371,13.525,4.792c1.286,0.109,1.275-1.892,0-2
					c-3.506-0.298-6.599-2.075-9.754-3.484c-2.513-1.123-5.079-1.772-7.805-2.102c-2.417-0.292-5.016-0.007-6.996,1.494
					c-2.075,1.572-1.87,3.816-1.817,6.148C254.184,396.877,256.184,396.879,256.154,395.589L256.154,395.589z"/>
			</g>
		</g>
		<g>
			<g>
				<path style="fill:#292A80;" d="M214.969,392.343c1.487-0.188,2.896-0.821,4.335-1.222c2.064-0.574,4.367-0.644,6.482-1.018
					c4.693-0.831,9.375-1.652,14.088-2.373c4.594-0.701,9.177-1.244,13.822-0.986c2.605,0.145,5.922-0.154,6.939-2.915
					c0.447-1.213-1.487-1.731-1.929-0.531c-0.958,2.599-6.871,1.208-8.934,1.36c-4.121,0.305-8.185,0.792-12.268,1.428
					c-4.099,0.638-8.172,1.336-12.251,2.089c-1.893,0.35-3.806,0.524-5.703,0.838c-1.565,0.26-3.02,1.133-4.583,1.33
					C213.707,390.502,213.692,392.504,214.969,392.343L214.969,392.343z"/>
			</g>
		</g>
		<g>
			<g>
				<path style="fill:#292A80;" d="M186.994,403.447c-4.293,3.302-8.606,6.649-11.68,11.177c-3.279,4.83-3.269,10.197-0.769,15.342
					c2.663,5.479,5.828,11.113,9.802,15.753c3.899,4.553,9.125,7.705,14.799,9.521c7.022,2.247,14.694,1.844,21.952,1.507
					c7.834-0.363,15.657-1.473,23.406-2.638c14.871-2.237,29.323-6.963,42.8-13.6c21.539-10.605,41.375-24.35,62.084-36.418
					c9.924-5.783,20.392-10.656,31.363-14.089c5.362-1.678,10.856-2.918,16.411-3.752c6.321-0.949,12.213-0.475,18.408,1.052
					c1.252,0.309,1.783-1.62,0.531-1.928c-3.355-0.827-6.728-1.456-10.179-1.699c-3.689-0.261-7.41,0.339-11.044,0.918
					c-7.309,1.164-14.457,3.223-21.395,5.772c-14.079,5.175-26.839,12.929-39.572,20.734c-13.518,8.286-26.981,16.675-40.943,24.203
					c-13.757,7.418-28.23,12.923-43.589,15.939c-10.497,2.061-21.297,3.27-31.984,3.655c-10.313,0.373-20.595-0.679-28.718-7.658
					c-2.966-2.549-5.274-5.752-7.292-9.074c-2.409-3.967-5.355-8.444-6.521-12.947c-2.236-8.641,7.303-15.557,13.138-20.045
					C189.011,404.399,188.017,402.66,186.994,403.447L186.994,403.447z"/>
			</g>
		</g>
		<g>
			<g>
				<path style="fill:#292A80;" d="M303.075,395.769c8.629,6.81,11.542,16.271,11.6,26.954c0.007,1.289,2.007,1.29,2,0
					c-0.06-11.162-3.167-21.252-12.186-28.368C303.489,393.565,302.063,394.97,303.075,395.769L303.075,395.769z"/>
			</g>
		</g>
		<g>
			<g>
				<path style="fill:#292A80;" d="M326.175,415.963c-3.368,5.046-3.943,11.554-2.085,17.267c0.397,1.221,2.329,0.698,1.928-0.531
					c-1.707-5.246-1.211-11.091,1.883-15.726C328.62,415.897,326.887,414.897,326.175,415.963L326.175,415.963z"/>
			</g>
		</g>
		<g>
			<g>
				<path style="fill:#292A80;" d="M339.443,409.892c6.191,0.013,12.36,0.29,18.509-0.581c7.244-1.026,14.167-3.206,21.165-5.244
					c7.185-2.093,14.884-2.186,22.314-2.05c3.523,0.065,7.1,0.155,10.608,0.471c3.39,0.305,6.062,2.482,9.345,3.052
					c1.261,0.22,1.801-1.708,0.531-1.928c-3.07-0.534-5.658-2.432-8.767-2.98c-3.173-0.561-6.579-0.45-9.795-0.563
					c-7.337-0.255-14.943-0.211-22.142,1.384c-7.1,1.571-13.887,4.156-21.07,5.484c-6.875,1.271-13.746,0.969-20.699,0.955
					C338.153,407.889,338.153,409.889,339.443,409.892L339.443,409.892z"/>
			</g>
		</g>
		<g>
			<g>
				<path style="fill:#292A80;" d="M368.852,315.249c0.84,6.972,3.464,13.455,6.249,19.848c2.756,6.327,6.517,11.88,10.892,17.197
					c4.429,5.383,9.185,10.647,14.123,15.566c2.442,2.433,4.965,4.776,7.288,7.325c2.45,2.689,4.433,5.73,6.551,8.675
					c1.581,2.199,3.344,4.179,5.506,5.82c2.631,1.998,6.087,2.898,9.206,3.791c3.323,0.951,6.237,2.25,9.31,3.81
					c2.572,1.308,5.207,1.888,7.998,0.957c2.675-0.893,6.34-4.687,6.088-7.689c-0.119-1.424-1.406-1.895-2.628-2.04
					c-3.285-0.391-6.641,3.182-9.634,0.823c-1.001-0.789-2.427,0.616-1.414,1.414c1.419,1.118,2.954,1.755,4.795,1.326
					c0.898-0.209,7.268-2.669,6.827-0.79c-0.371,1.586-1.895,3.033-3.055,4.084c-2.581,2.339-5.944,1.217-8.657-0.162
					c-2.249-1.143-4.338-2.214-6.754-2.977c-3.036-0.958-6.121-1.652-9.008-3.038c-5.315-2.551-8.029-8.388-11.541-12.808
					c-3.749-4.72-8.39-8.554-12.424-13.008c-3.943-4.353-7.975-8.62-11.708-13.157c-3.877-4.712-7.231-9.755-9.69-15.347
					c-2.764-6.284-5.492-12.75-6.319-19.622C370.7,313.985,368.698,313.971,368.852,315.249L368.852,315.249z"/>
			</g>
		</g>
		<g>
			<g>
				<path style="fill:#292A80;" d="M451.773,390.481c0.343-1.306,3.307-9.927,5.034-8.357c1.854,1.685-0.015,6.417,0.044,8.71
					c0.038,1.501,0.365,3.043-0.278,4.471c-1.154,2.559-4.898,0.377-6.491-0.311c-1.171-0.507-2.19,1.216-1.01,1.727
					c3.495,1.513,8.353,3.295,9.735-1.781c0.607-2.229-0.134-4.722,0.246-7.017c0.364-2.204,0.803-4.207-0.156-6.315
					c-1.222-2.686-4.028-1.772-5.412,0.112c-1.746,2.378-2.896,5.388-3.64,8.23C449.519,391.199,451.447,391.728,451.773,390.481
					L451.773,390.481z"/>
			</g>
		</g>
		<g>
			<g>
				<path style="fill:#292A80;" d="M459.426,386.317c0.768-1.166,1.88-2.339,3.209-2.846c1.07-0.408,1.128,3.085,1.248,3.88
					c0.276,1.843,0.579,3.746,0.302,5.609c-0.413,2.775-3.631,3.235-5.822,2.206c-1.16-0.545-2.177,1.179-1.01,1.727
					c2.495,1.172,5.98,1.142,7.818-1.176c1.779-2.241,1.096-5.775,0.722-8.358c-0.263-1.81,0.025-5.682-2.561-5.936
					c-2.332-0.23-4.479,2.131-5.633,3.885C456.988,386.389,458.721,387.39,459.426,386.317L459.426,386.317z"/>
			</g>
		</g>
		<g>
			<g>
				<path style="fill:#292A80;" d="M466.472,388.959c0.209-0.34,2.499-4.396,3.085-3c0.407,0.971,0.336,2.167,0.338,3.2
					c0.003,1.584,0.223,3.159,0.233,4.745c0.018,2.705-2.668,2.063-4.343,2.008c-1.29-0.042-1.286,1.958,0,2
					c2.309,0.075,4.597,0.518,5.973-1.729c1.223-1.996,0.189-5.962,0.117-8.21c-0.053-1.652-0.35-4.057-2.319-4.413
					c-2.462-0.445-3.816,2.768-4.811,4.389C464.068,389.052,465.799,390.056,466.472,388.959L466.472,388.959z"/>
			</g>
		</g>
		<g>
			<g>
				<path style="fill:#292A80;" d="M394.663,262.481c-0.214,7.263,0.966,14.431,1.619,21.643c0.632,6.982,0.136,13.958,0.253,20.95
					c0.11,6.573,1.405,12.743,4.281,18.665c2.881,5.932,6.817,11.3,10.639,16.646c3.969,5.553,7.65,11.163,10.77,17.242
					c1.539,3,3.06,6.003,4.802,8.892c1.507,2.499,3.651,4.57,5.211,7.071c1.07,1.715,2.475,3.529,4.394,4.333
					c3.128,1.312,5.852,0.299,8.848-0.914c3.352-1.357,7.048-2.798,10.686-1.896c1.751,0.434,3.395,1.406,5.034,2.142
					c1.204,0.539,5.41,1.357,3.353,3.62c-0.865,0.951,0.545,2.37,1.414,1.414c4.223-4.643-3.612-6.705-6.74-8.138
					c-6.305-2.889-11.509,0.222-17.563,2.157c-4.438,1.419-6.811-2.263-8.776-5.486c-1.658-2.719-3.934-4.891-5.521-7.69
					c-3.58-6.317-6.599-12.801-10.706-18.82c-3.722-5.454-7.755-10.686-11.208-16.322c-4.05-6.608-6.44-13.377-6.854-21.146
					c-0.389-7.259,0.3-14.516-0.235-21.779c-0.557-7.543-1.921-14.994-1.697-22.584
					C396.701,261.191,394.701,261.194,394.663,262.481L394.663,262.481z"/>
			</g>
		</g>
		<g>
			<g>
				<path style="fill:#292A80;" d="M454.247,380.796c-1.167-0.265-2.328-0.643-3.508-0.242c-1.195,0.407-2.15,1.287-3.367,1.651
					c-1.233,0.368-0.707,2.299,0.531,1.928c0.832-0.248,1.572-0.637,2.317-1.077c0.478-0.283,0.988-0.637,1.558-0.696
					c0.617-0.065,1.342,0.229,1.938,0.364C454.972,383.008,455.505,381.08,454.247,380.796L454.247,380.796z"/>
			</g>
		</g>
		<g>
			<g>
				<path style="fill:#292A80;" d="M410.553,401.574c3.056-0.779,6.071-1.739,9.249-1.813c1.288-0.029,1.29-2.029,0-2
					c-3.359,0.077-6.549,1.06-9.78,1.885C408.772,399.965,409.303,401.894,410.553,401.574L410.553,401.574z"/>
			</g>
		</g>
		<g>
			<g>
				<path style="fill:#292A80;" d="M300.981,433.024c15.008,0.777,30.099,0.703,45.032,2.525c16.024,1.955,31.77,5.688,47.789,7.683
					c13.765,1.714,28.243,2.112,41.649-1.972c10.597-3.229,21.806-10.581,23.914-22.249c1.624-8.989-3.759-17.361-10.783-22.436
					c-1.048-0.757-2.044,0.979-1.01,1.727c5.372,3.881,9.43,9.547,10.017,16.279c0.586,6.714-3.224,12.665-8.034,16.976
					c-9.652,8.649-23.909,10.612-36.351,10.848c-16.425,0.311-32.634-3.198-48.726-6.015c-7.735-1.353-15.494-2.577-23.308-3.388
					c-7.516-0.779-15.085-0.968-22.631-1.249c-5.854-0.217-11.708-0.426-17.559-0.728
					C299.692,430.958,299.698,432.958,300.981,433.024L300.981,433.024z"/>
			</g>
		</g>
		<g>
			<g>
				<path style="fill:#292A80;" d="M354.084,229.477c2.96-0.041,5.764,0.921,8.614,1.593c2.67,0.63,5.439,0.379,8.158,0.346
					c5.494-0.067,10.812,1.411,15.36,4.517c8.601,5.872,12.222,17.391,16.864,26.172c0.603,1.141,2.329,0.13,1.727-1.01
					c-4.867-9.206-8.506-19.977-17.071-26.521c-4.011-3.063-9.2-4.724-14.185-5.101c-3.432-0.259-6.93,0.381-10.321-0.332
					c-3.063-0.644-5.978-1.709-9.146-1.665C352.795,227.495,352.794,229.496,354.084,229.477L354.084,229.477z"/>
			</g>
		</g>
		<g>
			<g>
				<path style="fill:#292A80;" d="M376.699,271.978c5.046-2.359,10.132-4.606,15.094-7.145c2.718-1.391,8.475-5.25,11.181-2.262
					c0.867,0.958,2.277-0.461,1.414-1.414c-2.985-3.297-8.018-0.858-11.256,0.736c-5.79,2.852-11.595,5.623-17.442,8.357
					C374.522,270.797,375.538,272.521,376.699,271.978L376.699,271.978z"/>
			</g>
		</g>
		<g>
			<g>
				<path style="fill:#292A80;" d="M368.46,231.713c2.407,4.191,3.525,9.001,4.092,13.766c0.15,1.265,2.152,1.279,2,0
					c-0.609-5.127-1.772-10.261-4.365-14.775C369.545,229.585,367.816,230.592,368.46,231.713L368.46,231.713z"/>
			</g>
		</g>
		<g>
			<g>
				<path style="fill:#292A80;" d="M402.974,262.571c3.551,4.403-1.419,8.109-4.819,10.499c-1.046,0.735-0.049,2.471,1.01,1.727
					c4.705-3.307,9.765-8.009,5.224-13.64C403.578,260.153,402.172,261.577,402.974,262.571L402.974,262.571z"/>
			</g>
		</g>
		<g>
			<g>
				<path style="fill:#292A80;" d="M291.865,159.218c6.242-4.342,5.224-13.065,6.339-19.753c1.45-8.691,12.918-9.936,14.735-18.373
					c0.271-1.257-1.657-1.792-1.929-0.531c-1.561,7.246-11.232,8.749-13.891,15.441c-1.301,3.275-1.527,7.136-1.877,10.621
					c-0.414,4.131-0.675,8.286-4.387,10.868C289.805,158.222,290.803,159.956,291.865,159.218L291.865,159.218z"/>
			</g>
		</g>
		<g>
			<g>
				<path style="fill:#292A80;" d="M261.938,379.588c5.543,0.083,10.778,1.631,16.056,3.172c5.235,1.528,10.527,2.369,15.886,3.323
					c5.314,0.946,10.636,1.822,16.043,1.965c4.065,0.107,9.921,0.263,13.481-2.078c1.072-0.705,0.071-2.438-1.01-1.727
					c-1.741,1.145-4.368,1.379-6.39,1.596c-2.634,0.282-5.311,0.259-7.953,0.143c-5.52-0.239-10.976-1.361-16.403-2.318
					c-5.031-0.886-9.888-1.886-14.797-3.322c-4.892-1.432-9.789-2.678-14.913-2.754
					C260.647,377.568,260.649,379.568,261.938,379.588L261.938,379.588z"/>
			</g>
		</g>
		<g>
			<g>
				<path style="fill:#292A80;" d="M294.533,376.769c13.985-0.023,28.168-1.08,41.315-6.202c1.188-0.463,0.672-2.397-0.531-1.928
					c-12.996,5.063-26.96,6.106-40.784,6.13C293.244,374.771,293.243,376.771,294.533,376.769L294.533,376.769z"/>
			</g>
		</g>
		<g>
			<g>
				<path style="fill:#292A80;" d="M323.869,369.333c5.615-1.299,11.06-3.095,16.273-5.563c1.165-0.552,0.149-2.275-1.01-1.727
					c-5.057,2.394-10.35,4.101-15.794,5.361C322.081,367.695,322.614,369.624,323.869,369.333L323.869,369.333z"/>
			</g>
		</g>
	</g>
</g>
</svg>
