<?xml version="1.0" encoding="utf-8"?>
<!-- Generator: Adobe Illustrator 27.5.0, SVG Export Plug-In . SVG Version: 6.00 Build 0)  -->
<svg version="1.1" xmlns="http://www.w3.org/2000/svg" xmlns:xlink="http://www.w3.org/1999/xlink" x="0px" y="0px"
	 viewBox="0 0 500 500" style="enable-background:new 0 0 500 500;" xml:space="preserve">
<g id="BACKGROUND">
	<rect style="fill:#FFFFFF;" width="500" height="500"/>
</g>
<g id="OBJECTS">
	<path style="fill:#D7EDE6;" d="M399.346,251.186c-5.793-12.851-8.623-26.005-6.605-40.111
		c3.903-27.283,19.788-50.986,25.711-77.733c5.008-22.614,3.427-48.087-14.831-64.559c-8.634-7.789-19.465-12.678-30.627-15.623
		c-12.18-3.214-25.68-5.103-38.245-3.734c-12.959,1.412-24.251,7.576-35.597,13.556c-11.557,6.092-23.041,10.132-36.029,11.836
		c-22.395,2.937-46.125,0.977-67.427,9.671c-22.249,9.08-34.005,28.937-40.195,51.251c-2.832,10.209-4.666,20.772-7.002,31.169
		c-4.386,7.144-9.881,13.288-16.836,18.529c-9.703,7.312-20.603,12.84-30.598,19.722c-18.558,12.778-33.058,30.848-41.369,51.803
		c-7.869,19.84-9.22,42.528-0.952,62.463c4.945,11.923,13.511,22.368,15.167,35.491c1.709,13.548-0.811,27.453,5.323,40.207
		c4.963,10.321,14.49,17.757,24.319,23.168c11.616,6.395,24.363,11.001,37.346,13.651c11.998,2.449,25.964,4.732,37.383-0.983
		c5.909-2.957,10.575-7.8,15.454-12.137c4.657-4.139,9.637-7.857,14.92-11.162c20.184-12.626,43.806-18.854,67.42-20.47
		c12.262-0.839,24.596-0.518,36.815,0.767c12.507,1.316,24.726,4.294,37.18,5.94c11.867,1.568,24.256,1.78,35.391-3.216
		c11.059-4.962,18.74-14.692,23.756-25.48c11.244-24.181,13.072-52.671,5.587-78.219
		C411.127,274.428,404.695,263.054,399.346,251.186z"/>
	<path style="fill:#EFEAE0;" d="M176.375,30.728c-8.063-7.858-19.667-8.27-30.087-6.093c-6.062,1.267-12.291,2.953-18.052,5.246
		c-5.733,2.281-10.385,5.752-15.114,9.632c-8.901,7.302-18.917,11.354-29.81,14.761C63.694,60.409,41.662,66.45,33.208,87.419
		c-8.04,19.943-0.915,41.24,9.864,58.675c2.183,7.18,5.528,13.886,10.055,19.519c14.111,17.561,38.008,12.104,51.647-3.062
		c7.499-8.338,11.768-18.988,15.654-29.35c4.145-11.052,8.288-21.87,14.688-31.863c6.316-9.864,14.232-18.716,23.271-26.163
		c7.312-6.024,15.699-11.277,20.715-19.572C183.984,47.529,183.266,37.443,176.375,30.728z"/>
	<path style="fill:#EAF7FB;" d="M342.367,422.923c-1.105-6.006-4.842-10.61-10.779-12.15c-5.111-3.009-11.638-4.512-17.054-5.576
		c-13.186-2.589-26.658-2.711-39.91-0.527c-22.973,3.786-54.238,16.339-58.715,42.335c-4.792,27.824,24.942,38.28,47.085,39.41
		c13.379,0.683,27.05-1.221,39.744-5.488c11.468-3.854,24.862-9.535,32.807-19.076C343.988,451.712,344.669,435.435,342.367,422.923
		z"/>
	<path style="fill:#F4F0E9;" d="M463.713,350.869c-11.153-8.911-24.225,0.683-30.212,10.691c-1.864,3.117-3.562,6.307-5.333,9.457
		c-1.217,0.219-2.357,0.968-3.129,2.425c-2.902,5.472-6.448,10.363-10.954,14.627c-4.689,4.437-10.244,7.449-15.616,10.947
		c-9.91,6.454-17.329,15.441-19.378,27.361c-3.601,20.948,14.708,50.47,38.307,38.666c6.327-3.165,12.398-7.001,18.545-10.503
		c5.846-3.331,11.887-6.442,17.518-10.129c10.041-6.574,14.532-15.852,15.897-27.569c1.53-13.126,1.348-26.609,1.853-39.808
		C471.555,368.043,471.413,357.022,463.713,350.869z"/>
	<path style="fill:none;stroke:#7B8783;stroke-width:0.6;stroke-miterlimit:10;" d="M329.146,53.785
		c-21.924-10.863-79.998-1.311-118.302,8.795C131.88,83.415,59.27,140.725,35.319,211.396
		c-21.145,62.39-3.679,143.856,68.311,156.183c35.93,6.152,76.687-9.859,113.122-25.361c42.581-18.117,88.904-37.3,126.375-65.311
		c35.304-26.391,56.407-62.324,60.376-98.336c4.617-41.89-37.849-98.038-39.953-100.143S351.07,64.648,329.146,53.785z"/>
	<path style="fill:none;stroke:#7B8783;stroke-width:0.6;stroke-miterlimit:10;" d="M474.211,294.128
		c-1.067-7.033-4.18-12.387-9.142-17.385c-9.855-9.924-20.377-22.836-34.795-25.701c-13.725-2.728-30.75-0.112-42.323,7.962
		c-0.392,0.273-0.769,0.567-1.155,0.85c-5.164,0.856-9.93,2.795-13.485,6.491c-7.846,8.156-10.469,19.994-18.323,28.244
		c-3.237,2.66-7.154,4.508-11.036,6.007c-2.976,1.149-6.042,2.149-9.096,3.189c-0.234,0.035-0.468,0.071-0.702,0.115
		c-0.679,0.129-1.23,0.377-1.668,0.706c-4.54,1.601-8.998,3.397-13.035,6.019c-8.373,5.436-12.866,13.785-14.122,23.572
		c-1.364,10.63,0.642,21.471-1.273,32.043c-2.18,12.033-8.166,22.894-11.908,34.443c-5.493,16.952-4.646,41.077,14.68,48.72
		c3.694,1.461,7.609,2.035,11.526,1.921c18.509,10.398,41.628,11.547,61,2.433c10.011-4.71,18.606-12.096,25.202-20.932
		c7.364-9.864,10.448-20.876,13.085-32.708c1.444-6.478,3.26-12.706,7.048-18.237c3.155-4.607,7.3-8.497,11.478-12.161
		c8.743-7.666,17.977-14.601,24.633-24.301c1.108-1.615,2.133-3.285,3.09-4.992c5.168-7.961,8.702-16.931,10.172-26.386
		C475.091,307.425,475.216,300.752,474.211,294.128z"/>
	<path style="fill:#5C6663;" d="M426.699,354.026c-0.917-0.192-9.029-2.282-11.174-2.336c-2.112-0.054-4.162-0.484-6.105-1.364
		c-0.823-0.373-3.5-0.72-5.678-1.299c-5.989-1.592-8.163-1.368-10.815-2.411c-1.26-0.496-1.745-0.121-8.664-0.695
		c-10.478-0.869-9.767-1.06-20.552-3.758c-8.267-2.068-7.209,0.816-8.409-3.419c-2.609-9.21-3.041-16.698-5.63-32.439
		c-3.243-19.722,0.551-32.699-7.399-42.983c-0.639-0.827-0.731-0.415,3.282-5.779c11.682-15.613,2.491-14.54,18.302-29.65
		c2.772-2.65,5.599-5.75,2.531-9.501c-1.108-1.354-2.499-1.583-2.605-3.585c-0.057-1.07,0.147-2.427-1.009-2.979
		c-1.234-0.589-1.082-1.32-1.19-2.494c-0.162-1.76-1.074-1.481-2.316-2.769c-1.09-1.131-0.095-1.8,0.554-3.273
		c2.453-5.567-5.178-3.986-11.559-7.619c-4.43-2.523,0.505-3.9-10.123-11.044c-2.815-1.892-5.855-3.269-9.236-3.817
		c-3.023-0.49-3.518,0.329-3.357-1.098c0.988-8.757,1.102-9.193-1.534-26.156c-1.041-6.701-1.464-12.593-1.818-16.382
		c-2.001-21.453-1.732-23.908-1.083-27.174c0.275-1.384,3.393-4.913,4.557-5.959c4.434-3.985,15.49-7.543,18.69-14.14
		c0.534-1.1,1.028-0.906,2.206-0.519c2.72,0.896,3.221-1.628,4.605-3.436c0.317-0.415,0.579-0.981,0.31-1.499
		c-0.428-0.823-0.585-1.841-1.518-2.337c-0.399-0.212-1.386,0.332-1.92-1.014c-0.133-0.335-0.514-0.562-0.713-0.882
		c-0.735-1.18-2.879,1.19-5.151,1.178c-15.994-0.088-7.074,0.566-18.004,1.714c0.651-0.544,1.967-1.461,0.816-2.224
		c-2.876-1.907-3.115-0.556-3.839-0.988c-0.725-0.432-1.59-0.531-2.306-0.996c-0.98-0.637-2.037-0.861-3.155-0.383
		c-0.696,0.297-0.922-0.37-1.965-0.922c-1.41-0.746-3.07-0.337-4.013,1.968c-0.513,1.253-0.671,0.455-3.086,0.167
		c-1.919-0.229-2.954,1.084-3.192,2.958c-0.676,5.328-0.569,5.336-1.445,5.761c-4.634,2.254-4.784,2.765-5.886,2.31
		c-0.642-0.265-1.248,0.231-1.782,0.586c-0.409,0.272-0.323,0.753-0.26,1.164c0.068,0.438-0.215,0.602-0.498,0.806
		c-31.699,22.93-22.096,10.624-104.582,61.018c-12.206,7.457-12.104,12.316-13.123,22.59c-0.264,2.662-1.61,13.198-1.922,23.744
		c-0.047,1.577-1.724,0.349-7.18,5.731c-7.015,6.92-16.669,9.232-25.251,20.281c-2.696,3.471-5.49,6.859-7.662,10.705
		c-13.251,23.461-24.242,34.321-48.565,66.326c-18.009,23.697-19.928,22.011-21.468,27.427c-2.221,7.812-2.352,12.585,2.995,22.95
		c6.036,11.7,27.098,9.989,76.045-1.359c18.844-4.369,35.418-11.9,46.879-19.514c1.135-0.754,0.264-0.402,3.607,5.71
		c8.349,15.267,21.02,22.757,34.82,23.413c7.469,0.355,10.553,0.077,16.252,0.807c12.958,1.661,27.321-0.738,36.149-0.745
		c10.195-0.007,16.864-5.236,23.733-12.353c2.12-2.197,4.612-0.375,10.537-0.92c10.998-1.012,14.123-8.605,14.912-8.671
		c10.057,26.418,7.976,24.638,17.323,26.391c17.646,3.31,37.493-4.943,41.448-6.398c0.469-0.173,0.883-0.31,1.407-0.056
		c2.085,1.011,4.254,1.121,6.461,0.431c1.784-0.558,4.03,0.315,7.751-0.234c9.524-1.404,9.055-0.11,12.356-1.378
		c1.066-0.409,5.098-0.603,6.931-0.522c0.747,0.033,1.44-0.187,2.049-0.614c1.204-0.844,2.19-0.283,3.246-1.892
		c0-0.077,0-0.153,0-0.229C428.464,354.874,427.698,354.235,426.699,354.026z M175.25,280.038
		c-23.908,15.974-29.125,13.154-48.446,23.005c-0.248,0.127-0.546,0.463-0.786,0.237c-0.767-0.721,11.171-26.199,14.758-34.891
		c1.451-3.517,5.282-11.203,8.051-13.912c1.055-1.033,2.22-1.379,3.658-0.894c4.874,1.644,9.656,0.375,11.686-4.352
		c0.897-2.088,1.325-4.29,1.654-6.52c1.595-10.829,1.386-10.224,7.098-18.293c0.065,0.021,0.131,0.043,0.196,0.064
		c0.284,4.334-0.618,29.33,2.821,53.96C176.042,279.182,175.891,279.609,175.25,280.038z M294.488,252.494
		c-9.158,12.309-11.703,14.256-14.581,20.499c-4.42,9.589-7.558,11.14-11.989,24.517c-0.89,2.687-2.022,5.245-3.562,7.652
		c-3.159,4.937-9.536,8.043-17.227,6.181c-0.886-0.215-1.407-0.774-1.523-1.76c-0.93-7.93,8.055-24.351-5.906-41.877
		c-5.498-6.902-8.124-5.211-8.862-8.405c-0.714-3.092-1.183-6.214-1.493-9.369c-0.332-3.385-0.434-6.785-0.706-10.172
		c-2.177-27.083-11.956-45.369-13.206-56.314c-0.171-1.502,0.227-2.88,1.119-4.103c2.114-2.899,4.925-4.727,8.427-5.524
		c3.494-0.795,6.99-1.58,10.429-2.602c9.435-2.805,17.178-8.173,23.575-15.559c11.641-13.439,5.106-7.105,28.784-30.984
		c2.643-2.666,5.485-5.1,8.508-7.323c4.518-3.322,5.28-1.625,6.43-0.304c2.124,2.442,3.122,1.551,3.079,3.189
		c-0.155,5.958,0.292,0.428-0.411,14.321c-0.104,2.06-0.13,4.123-0.277,6.184c-0.244,3.409-0.326,4.054-1.173,13.003
		c-1.013,10.7-1.169,14.651-0.698,18.881c-0.484-0.085-0.921-0.053-1.249,0.18c-1.574,1.118-1.488-1.024-5.813-1.559
		c-1.146-0.142-2.313-0.072-3.444-0.377c-1.013-0.273-2.321,0.535-5.246,1.392c-3.936,1.153-3.12,3.714-3.203,4.766
		c-0.102,1.299-0.714,0.46-2.557,0.583c-1.703,0.114-3.15,1.55-3.367,3.239c-0.141,1.092-0.346,2.194-1.562,2.718
		c-0.426,0.183-0.614,0.637-0.781,1.054c-0.775,1.939-1.707,3.848-1.35,6.038c0.089,0.545-0.086,0.945-0.511,1.285
		c-1.181,0.944-2.093,2.189-3.391,3.008c-0.291,0.184-0.481,0.52-0.739,0.762c-0.739,0.695-0.761,1.567-0.304,2.32
		c0.489,0.806,0.592,1.77,1.186,2.511c0.544,0.678-0.133,0.946-0.695,1.226c-1.317,0.655-1.732,2.158-0.84,3.318
		c0.508,0.66,0.956,1.422,1.779,1.776c1.494,0.643-1.58,3.223,2.248,5.925c0.425,0.3,0.692,0.636,0.798,1.165
		c0.517,2.571,2.57,4.071,5.164,3.685c2.909-0.432,5.195,3.961,7.971,4.068c1.229,0.047,1.648,1.809,4.096,0.582
		c0.903-0.452,1.071-0.371,1.181,0.646c0.242,2.227,1.209,4.264,1.621,6.444c0.016,0.085,0.061,0.168,0.105,0.245
		c2.096,3.658,0.784,4.496,3.28,7.397c-0.144,0.659-0.293,1.389-0.446,2.22C295.755,246.838,296.034,250.417,294.488,252.494z"/>
</g>
</svg>
