<?xml version="1.0" encoding="utf-8"?>
<!-- Generator: Adobe Illustrator 27.5.0, SVG Export Plug-In . SVG Version: 6.00 Build 0)  -->
<svg version="1.1" xmlns="http://www.w3.org/2000/svg" xmlns:xlink="http://www.w3.org/1999/xlink" x="0px" y="0px"
	 viewBox="0 0 500 500" style="enable-background:new 0 0 500 500;" xml:space="preserve">
<g id="BACKGROUND">
	<rect style="fill:#FFFFFF;" width="500" height="500"/>
</g>
<g id="OBJECTS">
	<path style="fill:#DEE8F9;" d="M434.202,262.777c-1.507-9.319-3.943-18.495-7.395-27.285c-3.439-8.758-7.962-16.934-13.108-24.796
		c-5.252-8.025-10.928-15.793-15.613-24.176c-4.991-8.93-8.21-18.332-9.683-28.459c-1.517-10.43-1.654-21.003-3.087-31.443
		c-1.204-8.776-3.55-17.287-7.242-25.348c-6.911-15.086-18.065-28.229-31.88-37.429c-15.327-10.207-33.828-15.075-52.19-14.328
		c-9.387,0.382-18.727,2.209-27.532,5.497c-8.65,3.23-16.526,8-24.154,13.143c-7.656,5.161-15.118,10.656-23.215,15.126
		c-8.857,4.889-18.203,7.902-28.286,8.884c-19.672,1.914-40.093-1.648-58.622,6.955c-15.201,7.058-27.218,20.215-34.233,35.305
		c-8.329,17.918-9.845,38.347-7.171,57.734c1.453,10.537,4.411,20.764,6.463,31.185c2.107,10.704,2.707,21.285,0.655,32.046
		c-3.722,19.516-12.858,37.722-12.401,57.962c0.426,18.847,7.544,36.914,17.268,52.837c4.468,7.316,9.53,14.251,14.974,20.868
		c-0.355-0.233-0.708-0.469-1.058-0.711c-0.443-0.306-0.86,0.417-0.421,0.72c8.051,5.573,17.382,8.733,26.82,11.052
		c10.214,2.51,20.6,4.427,30.983,6.085c20.988,3.35,42.207,5.248,63.456,5.69c42.672,0.888,85.481-4.085,126.78-14.875
		c17.369-4.538,35.913-10.288,48.077-24.325c6.079-7.015,10.174-15.485,13.309-24.16c3.248-8.99,5.691-18.3,7.441-27.694
		C436.573,300.385,437.201,281.333,434.202,262.777z"/>
	<g>
		<g>
			<g>
				<path style="fill:#8FB2E5;" d="M419.148,283.88c4.38-11.103,2.538-23.58-0.472-34.781c-0.692-2.574-1.584-5.302-3.612-7.15
					c-1.683-1.533-4.089-2.404-6.309-1.588c-4.441,1.634-5.001,7.573-5.145,11.569c-0.22,6.14,0.611,12.448-1.027,18.458
					c-1.322,4.848-4.269,9.014-6.983,13.166c-2.568,3.929-5.158,8.099-5.853,12.829c-0.816,5.556,1.536,10.663,2.801,15.949
					c0.688,2.877,0.902,5.765,0.29,8.676c-0.571,2.712-1.682,5.271-2.894,7.75c-1.254,2.564-2.633,5.069-3.769,7.69
					c-1.091,2.515-1.926,5.131-2.481,7.816c-2.325,11.235,0.009,22.957,4.187,33.47c0.564,1.42,1.167,2.825,1.801,4.215
					c0.344,1.245,0.639,2.512,1.103,3.715c0.784,2.036,2.373,4.032,4.533,4.688c2.128,0.646,4.138-0.521,5.018-2.48
					c0.959-2.134,0.822-4.621,0.704-6.899c-0.299-5.786-1.472-11.522-1.355-17.33c0.058-2.871,0.468-5.743,1.515-8.43
					c1.036-2.659,2.741-4.955,4.566-7.121c1.791-2.126,3.686-4.172,5.244-6.482c1.511-2.242,2.714-4.692,3.592-7.248
					c1.836-5.346,2.093-10.968,1.072-16.506c-1.087-5.899-3.293-11.785-2.73-17.868C413.487,294.128,417.038,289.227,419.148,283.88
					z"/>
				<path style="fill:#568BC1;" d="M410.876,244.586c-0.298-1.262-0.642-2.512-1.023-3.751c-0.157-0.512-0.963-0.294-0.805,0.222
					c3.066,9.984,3.402,20.745,0.958,30.901c-1.207,5.013-3.243,9.693-5.239,14.428c-1.878,4.453-3.656,9.042-4.056,13.901
					c-0.432,5.241,1.381,10.128,2.186,15.231c0.737,4.67-0.066,9.216-1.738,13.597c-3.314,8.687-9.053,16.334-10.396,25.726
					c-1.501,10.494,1.559,20.999,4.941,30.829c0.436,1.268,0.882,2.532,1.33,3.796c0.178,0.503,0.985,0.286,0.805-0.222
					c-3.537-9.975-7.191-20.452-6.565-31.195c0.294-5.034,1.742-9.758,3.845-14.313c1.905-4.127,4.166-8.083,5.97-12.257
					c1.727-3.995,3.025-8.239,2.948-12.632c-0.093-5.234-2.236-10.157-2.535-15.363c-0.289-5.037,1.252-9.915,3.103-14.535
					c1.871-4.67,4.062-9.209,5.48-14.049C412.961,265.093,413.228,254.531,410.876,244.586z"/>
			</g>
			<g>
				<path style="fill:#8FB2E5;" d="M388.439,283.007c2.415-11.689-1.536-23.666-6.419-34.186c-1.122-2.417-2.468-4.952-4.783-6.426
					c-1.921-1.223-4.44-1.669-6.488-0.484c-4.096,2.37-3.631,8.317-3.088,12.279c0.834,6.088,2.732,12.16,2.147,18.362
					c-0.472,5.003-2.663,9.611-4.626,14.167c-1.857,4.311-3.696,8.863-3.571,13.641c0.147,5.613,3.339,10.243,5.49,15.234
					c1.171,2.716,1.876,5.526,1.771,8.498c-0.098,2.769-0.755,5.481-1.525,8.131c-0.797,2.741-1.726,5.445-2.397,8.221
					c-0.644,2.664-1.019,5.385-1.107,8.125c-0.367,11.467,3.938,22.616,9.854,32.259c0.799,1.303,1.633,2.584,2.496,3.845
					c0.552,1.168,1.06,2.365,1.722,3.472c1.121,1.872,3.028,3.566,5.269,3.843c2.207,0.272,3.988-1.221,4.52-3.302
					c0.579-2.267,0.019-4.693-0.487-6.918c-1.285-5.649-3.423-11.099-4.301-16.842c-0.434-2.839-0.522-5.739,0.05-8.565
					c0.566-2.797,1.853-5.351,3.28-7.797c1.4-2.401,2.918-4.742,4.057-7.284c1.105-2.467,1.871-5.088,2.298-7.756
					c0.894-5.582,0.184-11.164-1.769-16.446c-2.081-5.626-5.261-11.047-5.748-17.137
					C384.615,294.073,387.276,288.636,388.439,283.007z"/>
				<path style="fill:#568BC1;" d="M373.563,245.709c-0.51-1.192-1.062-2.365-1.649-3.521c-0.243-0.477-0.999-0.124-0.755,0.356
					c4.73,9.312,6.903,19.856,6.233,30.281c-0.331,5.146-1.535,10.105-2.692,15.111c-1.088,4.708-2.054,9.534-1.616,14.39
					c0.472,5.238,3.094,9.742,4.761,14.632c1.525,4.475,1.512,9.091,0.615,13.694c-1.778,9.126-6.123,17.642-5.839,27.126
					c0.317,10.596,5.131,20.422,10.146,29.529c0.647,1.174,1.302,2.344,1.96,3.512c0.262,0.465,1.019,0.113,0.755-0.356
					c-5.192-9.223-10.586-18.919-11.808-29.611c-0.572-5.01,0.046-9.912,1.338-14.76c1.17-4.392,2.721-8.677,3.784-13.098
					c1.017-4.231,1.57-8.635,0.742-12.95c-0.987-5.141-3.942-9.624-5.127-14.703c-1.147-4.914-0.464-9.983,0.569-14.851
					c1.044-4.921,2.426-9.768,2.995-14.78C379.127,265.556,377.583,255.104,373.563,245.709z"/>
			</g>
		</g>
		<g>
			<g>
				<path style="fill:#8FB2E5;" d="M157.167,253.242c2.905-11.577-0.538-23.71-4.973-34.426c-1.019-2.462-2.257-5.052-4.508-6.622
					c-1.867-1.302-4.366-1.854-6.462-0.757c-4.192,2.195-3.978,8.157-3.603,12.138c0.577,6.117,2.218,12.264,1.372,18.436
					c-0.683,4.978-3.066,9.491-5.218,13.959c-2.037,4.229-4.066,8.699-4.142,13.479c-0.09,5.615,2.905,10.375,4.844,15.452
					c1.055,2.763,1.642,5.6,1.411,8.565c-0.215,2.763-0.985,5.444-1.866,8.059c-0.911,2.705-1.954,5.368-2.741,8.113
					c-0.756,2.635-1.245,5.337-1.448,8.072c-0.85,11.442,2.982,22.762,8.487,32.646c0.744,1.335,1.523,2.65,2.331,3.947
					c0.502,1.19,0.959,2.408,1.575,3.541c1.041,1.917,2.876,3.691,5.102,4.061c2.194,0.365,4.036-1.052,4.655-3.109
					c0.674-2.241,0.217-4.688-0.195-6.932c-1.046-5.698-2.952-11.234-3.588-17.008c-0.314-2.854-0.28-5.755,0.411-8.555
					c0.684-2.771,2.077-5.268,3.605-7.652c1.5-2.34,3.115-4.615,4.36-7.107c1.208-2.418,2.083-5.004,2.623-7.652
					c1.128-5.539,0.654-11.147-1.075-16.506c-1.842-5.709-4.791-11.259-5.021-17.364
					C152.882,264.137,155.768,258.817,157.167,253.242z"/>
				<path style="fill:#568BC1;" d="M143.876,215.35c-0.459-1.212-0.962-2.407-1.5-3.587c-0.222-0.487-0.993-0.166-0.769,0.324
					c4.333,9.503,6.061,20.13,4.952,30.517c-0.547,5.127-1.96,10.032-3.326,14.985c-1.285,4.658-2.454,9.439-2.221,14.309
					c0.251,5.253,2.681,9.863,4.141,14.819c1.335,4.535,1.128,9.146,0.038,13.708c-2.161,9.043-6.861,17.369-6.977,26.856
					c-0.129,10.6,4.266,20.62,8.893,29.93c0.597,1.201,1.202,2.397,1.81,3.592c0.242,0.475,1.013,0.156,0.769-0.324
					c-4.799-9.433-9.78-19.348-10.55-30.082c-0.361-5.029,0.464-9.901,1.958-14.69c1.354-4.339,3.084-8.554,4.332-12.927
					c1.195-4.184,1.933-8.561,1.287-12.907c-0.77-5.178-3.533-9.782-4.503-14.906c-0.939-4.958-0.043-9.993,1.194-14.814
					c1.25-4.873,2.835-9.658,3.615-14.641C148.599,235.414,147.497,224.906,143.876,215.35z"/>
			</g>
			<g>
				<path style="fill:#8FB2E5;" d="M126.604,256.354c0.881-11.903-4.589-23.268-10.793-33.067c-1.425-2.251-3.089-4.591-5.575-5.752
					c-2.063-0.964-4.619-1.08-6.496,0.36c-3.755,2.88-2.523,8.717-1.472,12.576c1.615,5.928,4.284,11.704,4.507,17.929
					c0.18,5.022-1.396,9.875-2.752,14.647c-1.283,4.515-2.517,9.266-1.774,13.989c0.873,5.547,4.638,9.724,7.417,14.395
					c1.513,2.542,2.576,5.236,2.857,8.197c0.262,2.759-0.038,5.533-0.459,8.26c-0.435,2.821-1.006,5.623-1.312,8.463
					c-0.293,2.725-0.313,5.472-0.045,8.2c1.121,11.418,6.834,21.916,13.95,30.711c0.961,1.188,1.954,2.35,2.973,3.489
					c0.699,1.087,1.357,2.208,2.158,3.22c1.354,1.711,3.465,3.144,5.722,3.128c2.224-0.016,3.796-1.728,4.054-3.86
					c0.281-2.323-0.589-4.656-1.379-6.796c-2.006-5.435-4.832-10.563-6.447-16.143c-0.798-2.758-1.261-5.622-1.06-8.499
					c0.199-2.847,1.144-5.546,2.242-8.157c1.078-2.562,2.279-5.08,3.079-7.748c0.776-2.589,1.196-5.287,1.274-7.988
					c0.163-5.651-1.263-11.094-3.884-16.078c-2.792-5.309-6.648-10.272-7.919-16.248
					C124.246,267.822,126.18,262.086,126.604,256.354z"/>
				<path style="fill:#568BC1;" d="M107.023,221.296c-0.66-1.116-1.36-2.207-2.092-3.277c-0.302-0.442-1.007,0.006-0.702,0.451
					c5.896,8.621,9.417,18.795,10.103,29.219c0.338,5.145-0.214,10.219-0.712,15.333c-0.469,4.81-0.801,9.72,0.261,14.478
					c1.146,5.132,4.33,9.259,6.616,13.892c2.092,4.24,2.677,8.818,2.384,13.499c-0.581,9.28-3.787,18.287-2.277,27.654
					c1.687,10.466,7.733,19.585,13.885,27.966c0.794,1.081,1.595,2.156,2.398,3.229c0.32,0.427,1.025-0.02,0.702-0.451
					c-6.343-8.473-12.947-17.388-15.543-27.832c-1.216-4.893-1.238-9.834-0.585-14.809c0.592-4.507,1.574-8.956,2.056-13.478
					c0.461-4.327,0.439-8.766-0.942-12.937c-1.645-4.97-5.155-9.033-6.988-13.915c-1.774-4.724-1.753-9.839-1.359-14.8
					c0.398-5.015,1.14-10,1.055-15.043C115.111,240.256,112.226,230.092,107.023,221.296z"/>
			</g>
		</g>
		<path style="fill:#6A9AD3;" d="M350.496,335.075c-0.034-1.438-0.313-2.86-1.027-4.122c-0.635-1.121-1.632-2.153-2.923-2.464
			c-2.846-0.686-4.936,2.146-6.332,4.181c-1.556,2.269-2.731,4.777-3.728,7.335c-1.011,2.594-1.836,5.255-2.693,7.902
			c-0.842,2.598-1.707,5.202-2.836,7.693c-0.786,1.736-1.701,3.429-2.806,4.985c-0.201,0.088-0.402,0.178-0.605,0.261
			c-0.256,0.104-0.321,0.474-0.198,0.695c0.012,0.022,0.027,0.04,0.041,0.059c-0.204,0.255-0.414,0.505-0.63,0.75
			c-0.043,0.049-0.09,0.095-0.134,0.144c0.659-2.267,1.269-4.548,1.828-6.843c1.853-7.6,3.163-15.334,3.93-23.12
			c0.155,0.006,0.31-0.066,0.408-0.25c0.263-0.494,0.506-0.996,0.739-1.501c4.042-3.405,7.457-7.551,10.07-12.143
			c2.706-4.756,4.577-10.001,5.418-15.41c0.204-1.313,0.385-2.645,0.431-3.974c0.04-1.161-0.061-2.415-0.66-3.439
			c-0.653-1.117-1.833-1.745-3.118-1.738c-1.296,0.006-2.523,0.577-3.44,1.476c-1.009,0.989-1.646,2.273-2.168,3.568
			c-0.566,1.405-1.027,2.853-1.42,4.315c-0.78,2.905-1.282,5.875-1.737,8.845c-0.903,5.891-1.609,11.949-4.013,17.462
			c-0.057,0.13-0.116,0.26-0.175,0.389c-0.042,0.035-0.083,0.069-0.124,0.104c0.125-1.482,0.233-2.966,0.319-4.451
			c0.405-7.013,0.355-14.047-0.133-21.053c0.081-0.065,0.147-0.155,0.185-0.259c0.236-0.637,0.441-1.281,0.622-1.929
			c2.696-5.388,4.761-11.088,6.13-16.956c0.687-2.946,1.2-5.933,1.54-8.939c0.173-1.528,0.3-3.061,0.379-4.597
			c0.075-1.443,0.143-2.902,0.093-4.347c-0.041-1.182-0.268-2.493-1.226-3.295c-0.926-0.775-2.234-0.885-3.353-0.496
			c-2.675,0.931-3.402,3.943-3.784,6.439c-0.821,5.375-0.307,10.81,0.06,16.2c0.344,5.046,0.587,10.227-0.678,15.168
			c-0.091-0.259-0.181-0.518-0.273-0.776c-0.161-1.738-0.348-3.474-0.564-5.206c-0.398-3.196-0.893-6.379-1.482-9.545
			c0.051-0.097,0.07-0.215,0.032-0.353c-0.094-0.337-0.193-0.672-0.291-1.007c-0.213-1.092-0.438-2.182-0.674-3.27
			c-0.707-3.632-1.151-7.312-1.315-11.009c-0.191-4.317,0.018-8.625,0.521-12.915c0.459-3.915,1.078-7.815,1.355-11.75
			c0.269-3.816,0.209-7.705-0.717-11.436c-0.229-0.924-0.512-1.834-0.851-2.723c-0.361-0.947-0.74-1.936-1.418-2.707
			c-1.277-1.45-3.375-1.492-5.068-0.837c-3.625,1.403-5.615,5.31-6.286,8.932c-0.73,3.936-0.26,7.962,0.547,11.847
			c0.824,3.963,2.07,7.824,3.488,11.61c1.43,3.817,3.034,7.566,4.593,11.332c1.548,3.74,3.051,7.504,4.282,11.362
			c0.191,0.598,0.372,1.199,0.549,1.802c0.391,2.006,0.746,4.018,1.061,6.038c0.304,1.949,0.57,3.904,0.801,5.863
			c-0.513-1.394-1.032-2.785-1.562-4.173c-1.327-3.474-2.707-6.928-4.138-10.361c-1.428-3.422-2.907-6.822-4.439-10.199
			c-1.313-2.895-2.605-6.062-5.032-8.226c-1.139-1.016-2.502-1.722-4.036-1.862c-1.562-0.143-3.251,0.435-3.937,1.946
			c-0.679,1.493-0.344,3.237,0.173,4.726c0.514,1.48,1.171,2.908,1.943,4.27c1.548,2.732,3.525,5.201,5.614,7.536
			c2.09,2.336,4.318,4.544,6.441,6.849c2.047,2.223,4.002,4.549,5.627,7.102c1.591,2.499,2.861,5.22,3.442,8.138
			c0.14,0.703,0.238,1.412,0.292,2.127c0.018,0.233,0.159,0.437,0.38,0.497c0.351,5.328,0.444,10.674,0.279,16.011
			c-0.15,4.812-0.511,9.616-1.078,14.396c-0.02-0.077-0.04-0.154-0.061-0.23c-0.082-2.888-0.361-5.771-0.834-8.621
			c-0.514-3.097-1.258-6.156-2.222-9.143c-0.973-3.015-2.167-5.962-3.572-8.801c-1.4-2.83-3.005-5.573-4.832-8.149
			c-0.949-1.339-2.046-2.693-3.561-3.416c-1.259-0.601-2.757-0.715-4.048-0.143c-1.558,0.69-2.139,2.346-2.166,3.946
			c-0.025,1.518,0.251,3.073,0.659,4.531c0.808,2.884,2.265,5.544,3.975,7.987c1.744,2.491,3.746,4.781,5.774,7.041
			c2.025,2.257,4.057,4.526,5.816,7c1.709,2.403,3.183,5.016,3.984,7.869c0.003,0.012,0.006,0.023,0.009,0.035
			c0.006,0.232,0.013,0.463,0.016,0.694c0.003,0.213,0.113,0.357,0.26,0.433c0.07,0.328,0.132,0.658,0.184,0.989
			c0.027,0.168,0.163,0.293,0.322,0.349c-0.595,4.465-1.372,8.906-2.331,13.308c-0.823,3.779-1.781,7.528-2.87,11.24
			c0.644-5.01,0.67-10.096,0.077-15.114c-0.31-2.628-0.778-5.236-1.417-7.804c-0.319-1.284-0.68-2.558-1.082-3.818
			c-0.391-1.225-0.784-2.473-1.362-3.625c-0.564-1.126-1.371-2.164-2.488-2.783c-1.09-0.604-2.363-0.76-3.519-0.252
			c-0.996,0.437-1.737,1.341-2.165,2.32c-0.497,1.139-0.536,2.384-0.335,3.598c0.215,1.298,0.708,2.536,1.206,3.747
			c0.521,1.266,1.101,2.508,1.71,3.735c1.227,2.472,2.574,4.881,3.829,7.339c2.298,4.5,4.356,9.346,4.489,14.474
			c0.015,0.587,0.001,1.173-0.035,1.759c-1.492,4.687-3.196,9.306-5.112,13.836c-0.508,1.201-1.032,2.394-1.569,3.582
			c-0.268,0.592,0.602,1.13,0.873,0.532c2.593-5.732,4.853-11.609,6.766-17.599c0.024-0.045,0.039-0.098,0.049-0.154
			c0.198-0.621,0.39-1.244,0.581-1.867c0.022-0.015,0.044-0.03,0.065-0.05c1.021-0.955,1.923-2,2.73-3.11
			c2.403-1.076,4.618-2.529,6.672-4.175c2.279-1.826,4.358-3.885,6.372-5.996c2.195-2.3,4.387-4.662,6.042-7.393
			C349.478,341.22,350.57,338.178,350.496,335.075z"/>
		<path style="fill:#6A9AD3;" d="M202.717,344.383c0.003-1.141-0.189-2.274-0.73-3.289c-0.48-0.902-1.25-1.74-2.267-2.014
			c-2.243-0.603-3.958,1.6-5.106,3.185c-1.281,1.767-2.264,3.732-3.106,5.739c-0.855,2.036-1.564,4.129-2.298,6.21
			c-0.721,2.043-1.461,4.089-2.407,6.041c-0.659,1.36-1.419,2.684-2.328,3.895c-0.161,0.066-0.322,0.133-0.485,0.194
			c-0.205,0.077-0.264,0.369-0.172,0.547c0.009,0.018,0.02,0.032,0.031,0.047c-0.167,0.198-0.339,0.392-0.515,0.582
			c-0.035,0.038-0.073,0.074-0.109,0.111c0.569-1.784,1.1-3.58,1.59-5.388c1.625-5.988,2.824-12.093,3.592-18.251
			c0.123,0.008,0.247-0.046,0.328-0.19c0.219-0.387,0.422-0.779,0.617-1.175c3.275-2.617,6.068-5.834,8.234-9.421
			c2.243-3.715,3.835-7.836,4.613-12.107c0.189-1.036,0.36-2.089,0.423-3.142c0.055-0.92,0.001-1.917-0.452-2.741
			c-0.495-0.899-1.417-1.421-2.437-1.442c-1.027-0.021-2.012,0.405-2.757,1.099c-0.82,0.763-1.352,1.768-1.793,2.784
			c-0.478,1.102-0.873,2.241-1.214,3.392c-0.678,2.287-1.137,4.632-1.559,6.978c-0.837,4.653-1.521,9.441-3.542,13.763
			c-0.048,0.102-0.097,0.204-0.146,0.305c-0.034,0.027-0.067,0.053-0.101,0.08c0.13-1.173,0.246-2.347,0.345-3.522
			c0.465-5.552,0.571-11.131,0.328-16.695c0.066-0.05,0.119-0.12,0.152-0.202c0.2-0.5,0.376-1.006,0.533-1.517
			c2.249-4.217,4.003-8.694,5.21-13.318c0.606-2.322,1.074-4.679,1.405-7.056c0.169-1.208,0.301-2.421,0.395-3.637
			c0.089-1.143,0.173-2.298,0.163-3.445c-0.008-0.938-0.161-1.982-0.904-2.638c-0.719-0.634-1.753-0.748-2.648-0.462
			c-2.14,0.683-2.779,3.057-3.132,5.028c-0.762,4.245-0.466,8.565-0.285,12.846c0.169,4.008,0.255,8.121-0.85,12.013
			c-0.067-0.207-0.133-0.414-0.2-0.621c-0.092-1.382-0.204-2.762-0.34-4.14c-0.25-2.542-0.577-5.076-0.979-7.599
			c0.043-0.076,0.06-0.169,0.032-0.279c-0.067-0.269-0.139-0.537-0.21-0.805c-0.146-0.871-0.303-1.739-0.467-2.607
			c-0.486-2.894-0.762-5.821-0.816-8.756c-0.063-3.427,0.192-6.838,0.679-10.229c0.445-3.095,1.015-6.174,1.316-9.289
			c0.292-3.021,0.324-6.105-0.333-9.082c-0.163-0.737-0.368-1.465-0.619-2.177c-0.267-0.758-0.547-1.551-1.069-2.175
			c-0.983-1.176-2.646-1.252-4.001-0.768c-2.903,1.038-4.561,4.095-5.168,6.953c-0.66,3.106-0.37,6.307,0.19,9.405
			c0.571,3.159,1.48,6.246,2.527,9.277c1.056,3.056,2.25,6.062,3.409,9.08c1.15,2.997,2.265,6.012,3.161,9.097
			c0.139,0.478,0.27,0.959,0.398,1.44c0.269,1.598,0.509,3.202,0.717,4.809c0.201,1.552,0.371,3.107,0.515,4.665
			c-0.378-1.116-0.761-2.23-1.152-3.341c-0.981-2.782-2.003-5.549-3.068-8.3c-1.062-2.743-2.165-5.469-3.31-8.179
			c-0.982-2.322-1.941-4.86-3.821-6.626c-0.882-0.829-1.948-1.417-3.162-1.559c-1.236-0.145-2.586,0.278-3.162,1.462
			c-0.569,1.17-0.339,2.56,0.04,3.751c0.377,1.184,0.869,2.329,1.453,3.426c1.171,2.198,2.688,4.197,4.296,6.091
			c1.609,1.896,3.33,3.692,4.966,5.563c1.577,1.804,3.08,3.689,4.315,5.747c1.21,2.015,2.161,4.198,2.562,6.523
			c0.097,0.56,0.16,1.125,0.188,1.693c0.009,0.185,0.117,0.35,0.291,0.402c0.169,4.232,0.133,8.473-0.108,12.701
			c-0.217,3.812-0.603,7.614-1.151,11.393c-0.014-0.062-0.029-0.123-0.044-0.184c-0.005-2.292-0.168-4.583-0.484-6.853
			c-0.344-2.466-0.871-4.907-1.574-7.295c-0.71-2.411-1.596-4.772-2.651-7.052c-1.052-2.273-2.268-4.48-3.664-6.561
			c-0.725-1.081-1.567-2.178-2.753-2.782c-0.986-0.502-2.172-0.623-3.207-0.196c-1.249,0.515-1.744,1.816-1.798,3.084
			c-0.051,1.203,0.136,2.442,0.429,3.606c0.581,2.303,1.682,4.443,2.987,6.414c1.332,2.011,2.872,3.867,4.433,5.702
			c1.559,1.831,3.123,3.672,4.468,5.67c1.306,1.941,2.42,4.043,2.997,6.321c0.002,0.009,0.004,0.018,0.007,0.028
			c0,0.184,0.001,0.367-0.001,0.551c-0.002,0.169,0.083,0.285,0.197,0.349c0.048,0.261,0.091,0.524,0.126,0.788
			c0.018,0.134,0.123,0.236,0.248,0.284c-0.564,3.528-1.271,7.033-2.122,10.504c-0.731,2.979-1.567,5.933-2.507,8.853
			c0.614-3.96,0.739-7.992,0.372-11.982c-0.192-2.09-0.509-4.168-0.963-6.217c-0.227-1.025-0.487-2.042-0.78-3.05
			c-0.285-0.979-0.571-1.977-1.005-2.903c-0.424-0.904-1.042-1.744-1.915-2.258c-0.852-0.501-1.858-0.651-2.785-0.272
			c-0.799,0.326-1.405,1.027-1.764,1.795c-0.418,0.893-0.474,1.88-0.34,2.846c0.144,1.034,0.509,2.025,0.879,2.995
			c0.387,1.015,0.821,2.011,1.279,2.996c0.922,1.985,1.941,3.923,2.885,5.898c1.73,3.616,3.261,7.5,3.261,11.569
			c0,0.465-0.023,0.93-0.064,1.394c-1.279,3.685-2.725,7.313-4.338,10.866c-0.427,0.941-0.867,1.877-1.318,2.808
			c-0.225,0.464,0.454,0.908,0.681,0.44c2.174-4.491,4.086-9.105,5.726-13.814c0.02-0.035,0.033-0.077,0.042-0.121
			c0.169-0.488,0.335-0.978,0.499-1.469c0.018-0.012,0.036-0.023,0.053-0.038c0.829-0.736,1.566-1.546,2.229-2.41
			c1.928-0.804,3.714-1.91,5.376-3.173c1.844-1.401,3.536-2.991,5.176-4.623c1.788-1.779,3.574-3.606,4.942-5.738
			C201.783,349.235,202.711,346.845,202.717,344.383z"/>
		<path style="fill:#6A9AD3;" d="M68.934,369.735c-0.23-1.117-0.267-2.266,0.06-3.369c0.291-0.98,0.879-1.954,1.821-2.424
			c2.078-1.037,4.197,0.78,5.638,2.105c1.607,1.477,2.961,3.206,4.187,5.006c1.243,1.825,2.354,3.735,3.488,5.629
			c1.113,1.859,2.245,3.717,3.561,5.441c0.916,1.202,1.925,2.348,3.056,3.354c0.171,0.032,0.342,0.066,0.514,0.094
			c0.216,0.035,0.332,0.309,0.277,0.502c-0.006,0.019-0.014,0.036-0.021,0.053c0.203,0.16,0.41,0.317,0.62,0.467
			c0.042,0.03,0.086,0.058,0.129,0.087c-0.913-1.635-1.79-3.29-2.631-4.964c-2.784-5.545-5.174-11.289-7.152-17.171
			c-0.119,0.032-0.251,0.004-0.36-0.121c-0.291-0.335-0.568-0.68-0.838-1.029c-3.73-1.913-7.108-4.509-9.944-7.594
			c-2.938-3.194-5.317-6.916-6.93-10.947c-0.391-0.978-0.768-1.976-1.04-2.995c-0.237-0.89-0.383-1.878-0.102-2.776
			c0.306-0.979,1.106-1.674,2.101-1.898c1.002-0.225,2.052-0.003,2.921,0.529c0.956,0.585,1.677,1.464,2.311,2.372
			c0.688,0.985,1.301,2.022,1.865,3.082c1.12,2.107,2.036,4.313,2.917,6.528c1.746,4.393,3.37,8.949,6.209,12.783
			c0.067,0.091,0.136,0.18,0.204,0.27c0.038,0.019,0.076,0.039,0.115,0.058c-0.361-1.123-0.708-2.251-1.039-3.383
			c-1.561-5.348-2.774-10.795-3.644-16.296c-0.075-0.036-0.141-0.093-0.189-0.168c-0.296-0.45-0.569-0.911-0.824-1.381
			c-3.043-3.685-5.653-7.724-7.756-12.015c-1.055-2.155-1.983-4.372-2.781-6.635c-0.406-1.15-0.776-2.313-1.111-3.486
			c-0.315-1.102-0.627-2.218-0.846-3.343c-0.179-0.921-0.236-1.975,0.361-2.765c0.578-0.764,1.569-1.082,2.503-0.98
			c2.233,0.243,3.331,2.443,4.07,4.304c1.591,4.008,2.161,8.301,2.836,12.533c0.632,3.962,1.366,8.009,3.224,11.603
			c0.025-0.216,0.048-0.432,0.073-0.648c-0.185-1.372-0.349-2.747-0.491-4.125c-0.261-2.541-0.445-5.09-0.553-7.642
			c-0.057-0.065-0.092-0.154-0.087-0.267c0.012-0.277,0.029-0.554,0.046-0.831c-0.03-0.882-0.049-1.765-0.061-2.647
			c-0.1-2.933-0.412-5.856-0.943-8.743c-0.62-3.371-1.549-6.663-2.701-9.889c-1.051-2.945-2.223-5.849-3.138-8.841
			c-0.887-2.902-1.533-5.918-1.48-8.967c0.013-0.755,0.069-1.509,0.173-2.256c0.111-0.796,0.227-1.628,0.615-2.345
			c0.729-1.348,2.344-1.754,3.768-1.548c3.051,0.44,5.285,3.105,6.448,5.785c1.265,2.912,1.618,6.108,1.685,9.254
			c0.069,3.209-0.207,6.416-0.63,9.595c-0.426,3.205-0.999,6.388-1.534,9.577c-0.531,3.166-1.023,6.343-1.288,9.544
			c-0.041,0.496-0.074,0.993-0.103,1.49c0.054,1.62,0.138,3.239,0.254,4.855c0.112,1.561,0.254,3.119,0.424,4.674
			c0.148-1.169,0.302-2.337,0.465-3.503c0.407-2.922,0.859-5.837,1.355-8.745c0.494-2.899,1.033-5.791,1.616-8.673
			c0.5-2.471,0.935-5.149,2.426-7.254c0.7-0.988,1.627-1.776,2.788-2.157c1.182-0.388,2.59-0.242,3.39,0.803
			c0.79,1.033,0.842,2.441,0.707,3.684c-0.134,1.235-0.388,2.456-0.742,3.646c-0.711,2.387-1.799,4.648-2.998,6.824
			c-1.2,2.178-2.529,4.281-3.76,6.44c-1.187,2.082-2.284,4.228-3.085,6.491c-0.785,2.215-1.282,4.544-1.213,6.903
			c0.017,0.568,0.067,1.134,0.153,1.696c0.028,0.183-0.045,0.366-0.205,0.452c0.677,4.181,1.556,8.33,2.634,12.425
			c0.972,3.693,2.106,7.342,3.395,10.936c0.002-0.063,0.004-0.126,0.006-0.189c-0.451-2.247-0.748-4.525-0.889-6.812
			c-0.154-2.485-0.123-4.982,0.091-7.463c0.216-2.504,0.614-4.994,1.195-7.439c0.578-2.436,1.331-4.842,2.285-7.159
			c0.496-1.204,1.103-2.446,2.144-3.274c0.866-0.688,2.004-1.043,3.104-0.831c1.327,0.257,2.071,1.433,2.376,2.665
			c0.29,1.169,0.353,2.42,0.297,3.62c-0.111,2.373-0.764,4.688-1.651,6.881c-0.905,2.236-2.045,4.362-3.21,6.47
			c-1.164,2.105-2.33,4.22-3.25,6.446c-0.893,2.162-1.567,4.443-1.679,6.791c-0.001,0.009-0.001,0.019-0.001,0.029
			c0.037,0.18,0.072,0.36,0.111,0.54c0.035,0.165-0.024,0.296-0.124,0.381c0.005,0.266,0.015,0.532,0.034,0.797
			c0.009,0.135-0.074,0.256-0.187,0.327c1.255,3.345,2.645,6.64,4.17,9.871c1.309,2.774,2.717,5.502,4.218,8.177
			c-1.39-3.758-2.314-7.685-2.749-11.668c-0.228-2.087-0.33-4.185-0.294-6.284c0.018-1.049,0.071-2.098,0.157-3.144
			c0.084-1.016,0.166-2.051,0.408-3.045c0.236-0.971,0.674-1.917,1.428-2.594c0.735-0.661,1.691-1.008,2.675-0.821
			c0.848,0.161,1.582,0.727,2.086,1.408c0.587,0.792,0.839,1.748,0.899,2.722c0.065,1.042-0.096,2.086-0.266,3.111
			c-0.178,1.072-0.404,2.135-0.657,3.191c-0.509,2.129-1.121,4.231-1.654,6.354c-0.976,3.888-1.704,7.999-0.894,11.986
			c0.093,0.456,0.208,0.907,0.34,1.353c1.987,3.357,4.126,6.624,6.413,9.785c0.606,0.838,1.224,1.667,1.85,2.489
			c0.313,0.41-0.265,0.98-0.58,0.566c-3.024-3.969-5.816-8.11-8.361-12.399c-0.026-0.031-0.047-0.069-0.065-0.11
			c-0.263-0.445-0.523-0.892-0.781-1.34c-0.02-0.008-0.04-0.016-0.06-0.027c-0.959-0.556-1.842-1.203-2.664-1.918
			c-2.049-0.404-4.02-1.133-5.9-2.04c-2.086-1.006-4.06-2.228-5.992-3.5c-2.106-1.388-4.22-2.823-5.986-4.64
			C70.815,374.303,69.429,372.146,68.934,369.735z"/>
		<path style="fill:#6A9AD3;" d="M437.72,397.842c0.23-1.117,0.267-2.266-0.061-3.369c-0.291-0.98-0.879-1.954-1.82-2.424
			c-2.078-1.037-4.197,0.78-5.638,2.105c-1.607,1.477-2.961,3.206-4.186,5.006c-1.243,1.825-2.354,3.735-3.488,5.629
			c-1.113,1.859-2.245,3.717-3.561,5.441c-0.917,1.202-1.925,2.348-3.056,3.354c-0.171,0.032-0.342,0.066-0.514,0.094
			c-0.216,0.035-0.332,0.309-0.277,0.502c0.005,0.019,0.013,0.036,0.021,0.053c-0.203,0.16-0.41,0.317-0.621,0.467
			c-0.042,0.03-0.086,0.058-0.129,0.087c0.913-1.635,1.79-3.29,2.631-4.964c2.784-5.545,5.174-11.289,7.152-17.171
			c0.119,0.032,0.251,0.004,0.36-0.121c0.291-0.335,0.568-0.68,0.838-1.029c3.73-1.913,7.108-4.509,9.944-7.594
			c2.938-3.194,5.317-6.916,6.93-10.947c0.391-0.978,0.768-1.976,1.04-2.995c0.237-0.89,0.383-1.878,0.102-2.776
			c-0.306-0.979-1.106-1.674-2.101-1.898c-1.003-0.226-2.052-0.003-2.921,0.529c-0.956,0.585-1.677,1.464-2.311,2.372
			c-0.688,0.985-1.301,2.022-1.865,3.082c-1.12,2.107-2.036,4.313-2.917,6.528c-1.746,4.393-3.37,8.949-6.21,12.783
			c-0.067,0.091-0.136,0.18-0.204,0.27c-0.038,0.019-0.076,0.039-0.115,0.058c0.361-1.123,0.708-2.251,1.039-3.383
			c1.561-5.348,2.774-10.795,3.643-16.296c0.075-0.036,0.141-0.093,0.189-0.168c0.296-0.45,0.569-0.911,0.824-1.381
			c3.043-3.685,5.653-7.724,7.756-12.015c1.055-2.155,1.983-4.372,2.781-6.635c0.405-1.15,0.776-2.313,1.111-3.486
			c0.315-1.102,0.627-2.218,0.846-3.343c0.179-0.921,0.236-1.975-0.361-2.765c-0.578-0.764-1.569-1.082-2.503-0.98
			c-2.233,0.243-3.331,2.443-4.07,4.304c-1.591,4.008-2.161,8.301-2.836,12.533c-0.632,3.962-1.366,8.01-3.224,11.604
			c-0.025-0.216-0.048-0.432-0.073-0.648c0.185-1.372,0.349-2.747,0.491-4.125c0.261-2.541,0.445-5.09,0.553-7.642
			c0.057-0.065,0.092-0.154,0.087-0.267c-0.012-0.277-0.03-0.554-0.046-0.831c0.03-0.882,0.05-1.765,0.061-2.648
			c0.1-2.933,0.412-5.856,0.943-8.743c0.62-3.371,1.549-6.663,2.701-9.889c1.051-2.945,2.224-5.849,3.138-8.841
			c0.887-2.902,1.533-5.918,1.48-8.967c-0.013-0.755-0.069-1.509-0.173-2.256c-0.111-0.796-0.227-1.628-0.615-2.345
			c-0.729-1.348-2.344-1.754-3.768-1.548c-3.051,0.44-5.285,3.105-6.448,5.785c-1.265,2.912-1.618,6.108-1.685,9.254
			c-0.069,3.209,0.207,6.416,0.63,9.595c0.426,3.205,0.999,6.388,1.534,9.577c0.531,3.166,1.023,6.343,1.288,9.544
			c0.041,0.496,0.074,0.993,0.103,1.491c-0.054,1.62-0.138,3.239-0.254,4.855c-0.112,1.561-0.254,3.119-0.424,4.674
			c-0.148-1.169-0.302-2.337-0.464-3.503c-0.408-2.922-0.859-5.837-1.355-8.745c-0.494-2.899-1.033-5.791-1.616-8.673
			c-0.5-2.471-0.935-5.149-2.426-7.254c-0.7-0.988-1.627-1.776-2.788-2.157c-1.182-0.388-2.59-0.242-3.39,0.803
			c-0.79,1.033-0.842,2.441-0.707,3.684c0.134,1.235,0.388,2.456,0.742,3.646c0.711,2.387,1.799,4.648,2.998,6.824
			c1.2,2.178,2.529,4.28,3.76,6.44c1.187,2.082,2.284,4.228,3.085,6.491c0.785,2.215,1.282,4.544,1.213,6.903
			c-0.017,0.568-0.067,1.134-0.153,1.696c-0.028,0.183,0.045,0.366,0.205,0.452c-0.677,4.181-1.556,8.33-2.634,12.425
			c-0.972,3.693-2.106,7.342-3.395,10.936c-0.002-0.063-0.004-0.126-0.006-0.189c0.451-2.247,0.748-4.525,0.889-6.812
			c0.154-2.485,0.123-4.982-0.091-7.463c-0.216-2.504-0.615-4.994-1.195-7.439c-0.578-2.436-1.331-4.842-2.285-7.159
			c-0.495-1.204-1.103-2.446-2.144-3.274c-0.866-0.688-2.004-1.043-3.103-0.831c-1.327,0.257-2.071,1.433-2.376,2.665
			c-0.29,1.169-0.353,2.42-0.297,3.62c0.111,2.373,0.764,4.688,1.651,6.881c0.905,2.236,2.045,4.362,3.21,6.47
			c1.164,2.105,2.33,4.22,3.25,6.446c0.893,2.162,1.567,4.443,1.679,6.791c0,0.009,0,0.019,0.001,0.029
			c-0.037,0.18-0.072,0.36-0.111,0.54c-0.035,0.165,0.024,0.296,0.124,0.381c-0.005,0.266-0.015,0.532-0.034,0.797
			c-0.009,0.135,0.074,0.256,0.186,0.327c-1.255,3.345-2.645,6.64-4.17,9.871c-1.309,2.774-2.716,5.502-4.218,8.177
			c1.39-3.758,2.314-7.685,2.749-11.668c0.228-2.087,0.331-4.185,0.294-6.284c-0.018-1.049-0.071-2.098-0.157-3.144
			c-0.084-1.016-0.166-2.051-0.408-3.045c-0.236-0.971-0.674-1.917-1.428-2.594c-0.735-0.661-1.691-1.008-2.675-0.821
			c-0.847,0.161-1.581,0.727-2.086,1.408c-0.587,0.792-0.839,1.748-0.899,2.722c-0.065,1.042,0.096,2.086,0.266,3.111
			c0.178,1.072,0.404,2.135,0.657,3.191c0.509,2.129,1.121,4.231,1.654,6.354c0.976,3.888,1.704,7.999,0.894,11.986
			c-0.093,0.456-0.208,0.907-0.34,1.353c-1.987,3.357-4.126,6.624-6.413,9.785c-0.606,0.838-1.224,1.667-1.85,2.489
			c-0.313,0.41,0.265,0.98,0.58,0.566c3.024-3.969,5.817-8.11,8.361-12.399c0.026-0.031,0.047-0.069,0.065-0.111
			c0.263-0.445,0.523-0.892,0.781-1.34c0.02-0.008,0.04-0.016,0.06-0.027c0.959-0.556,1.842-1.203,2.664-1.918
			c2.049-0.404,4.02-1.133,5.9-2.04c2.086-1.006,4.06-2.228,5.992-3.5c2.106-1.387,4.22-2.823,5.986-4.639
			C435.839,402.41,437.225,400.253,437.72,397.842z"/>
	</g>
	<g>
		<path style="fill:#6A9AD3;" d="M198.242,163.133c-1.917-2.599-4.625-4.499-7.579-5.75c-0.602-0.255-1.213-0.483-1.833-0.688
			c0.164-0.418,0.001-0.985-0.138-1.424c-0.225-0.714-0.514-1.413-0.862-2.076c-0.703-1.337-1.674-2.529-2.876-3.447
			c-2.377-1.815-5.662-2.387-8.389-1.03c-1.085,0.54-2.042,1.375-2.694,2.402c-0.537-3.34-1.694-6.592-3.548-9.431
			c-2.104-3.221-5.064-5.792-8.665-7.192c-3.465-1.347-7.462-1.583-10.978-0.282c-3.332,1.233-5.976,3.743-7.768,6.772
			c-1.809,3.059-2.8,6.555-3.228,10.066c-0.026,0.211-0.049,0.422-0.07,0.633c-1.741-1.29-4.068-1.727-6.174-1.195
			c-2.428,0.613-4.269,2.578-4.942,4.963c-0.27,0.957-0.345,1.971-0.208,2.955c-3.104-1.561-7.005-1.285-9.983,0.471
			c-3.353,1.976-5.342,5.713-5.723,9.518c-0.408,4.072,1.166,8.12,3.712,11.249c2.687,3.302,6.488,5.488,10.453,6.904
			c4.412,1.576,9.147,2.321,13.829,2.254c0.585-0.008,1.17-0.031,1.755-0.064c0.143-0.008,0.252-0.068,0.33-0.152
			c1.742,2.394,4.055,4.344,6.699,5.677c2.702,1.362,5.726,2.105,8.756,2.054c2.971-0.049,5.904-0.874,8.506-2.299
			c2.607-1.428,4.878-3.464,6.559-5.917c0.411-0.599,0.775-1.225,1.114-1.867c0.146-0.277,0.303-0.632,0.661-0.638
			c0.383-0.007,0.789,0.192,1.152,0.295c1.4,0.399,2.85,0.632,4.304,0.713c2.894,0.16,5.833-0.304,8.547-1.318
			c2.729-1.019,5.257-2.577,7.331-4.629c2.3-2.274,4.144-5.182,4.533-8.444C201.206,169.018,200.137,165.702,198.242,163.133z
			 M196.638,178.868c-1.821,2.121-4.115,3.792-6.653,4.954c-2.519,1.154-5.291,1.786-8.06,1.841
			c-1.398,0.028-2.798-0.087-4.168-0.366c-0.702-0.143-1.381-0.345-2.068-0.544c-0.427-0.124-0.883-0.188-1.304-0.008
			c-0.357,0.152-0.61,0.451-0.803,0.779c-0.361,0.614-0.676,1.247-1.069,1.843c-0.385,0.583-0.805,1.141-1.259,1.671
			c-0.917,1.069-1.958,2.039-3.098,2.867c-2.297,1.666-4.96,2.804-7.765,3.252c-2.857,0.456-5.81,0.11-8.525-0.863
			c-2.718-0.974-5.203-2.606-7.161-4.729c-0.476-0.516-0.919-1.06-1.325-1.633c-0.151-0.213-0.423-0.315-0.664-0.174
			c-0.037,0.022-0.07,0.051-0.1,0.084c-0.072-0.049-0.166-0.077-0.281-0.071c-4.573,0.264-9.174-0.263-13.563-1.578
			c-3.874-1.16-7.66-2.978-10.55-5.863c-2.698-2.693-4.587-6.349-4.722-10.202c-0.126-3.589,1.316-7.268,4.111-9.581
			c2.699-2.234,6.777-2.895,9.984-1.402c0.407,0.19,0.797,0.412,1.17,0.662c0.349,0.234,0.839-0.155,0.713-0.548
			c-0.647-2.018-0.149-4.338,1.221-5.952c1.4-1.65,3.599-2.36,5.718-1.966c1.211,0.225,2.343,0.77,3.224,1.638
			c0.361,0.356,0.882-0.029,0.827-0.421c0.033-0.066,0.056-0.14,0.062-0.218c0.268-3.343,1.071-6.705,2.591-9.708
			c1.481-2.923,3.686-5.487,6.647-6.971c3.184-1.595,6.948-1.68,10.323-0.678c3.481,1.033,6.488,3.234,8.656,6.134
			c2.216,2.965,3.584,6.501,4.176,10.142c0.071,0.437,0.129,0.876,0.176,1.316c0.028,0.261,0.203,0.485,0.485,0.485
			c0.215,0,0.453-0.178,0.483-0.402c0.083-0.039,0.154-0.1,0.19-0.187c0.94-2.224,3.257-3.581,5.64-3.549
			c2.646,0.035,5.046,1.592,6.495,3.75c0.407,0.605,0.759,1.254,1.034,1.93c0.144,0.352,0.27,0.712,0.38,1.076
			c0.049,0.163,0.112,0.333,0.137,0.501c0.004,0.029,0.001,0.069,0.003,0.113c-0.176,0.114-0.281,0.314-0.22,0.536
			c0.023,0.084,0.074,0.161,0.141,0.223c0.001,0.192,0.102,0.383,0.337,0.457c2.913,0.913,5.693,2.391,7.861,4.567
			c2.173,2.18,3.664,5.102,3.848,8.202C200.101,173.502,198.703,176.462,196.638,178.868z"/>
		<path style="fill:#6A9AD3;" d="M376.72,182.34c-1.917-2.598-4.625-4.499-7.579-5.75c-0.602-0.255-1.213-0.483-1.833-0.688
			c0.164-0.418,0.001-0.985-0.138-1.424c-0.225-0.714-0.514-1.413-0.862-2.076c-0.703-1.337-1.674-2.529-2.876-3.447
			c-2.377-1.816-5.662-2.387-8.389-1.03c-1.085,0.54-2.042,1.376-2.693,2.402c-0.537-3.34-1.694-6.592-3.548-9.431
			c-2.104-3.221-5.064-5.792-8.665-7.192c-3.465-1.347-7.462-1.583-10.978-0.282c-3.332,1.233-5.976,3.743-7.768,6.772
			c-1.809,3.059-2.8,6.555-3.228,10.066c-0.026,0.211-0.049,0.422-0.07,0.633c-1.741-1.29-4.068-1.727-6.174-1.195
			c-2.428,0.613-4.269,2.578-4.942,4.963c-0.27,0.957-0.345,1.971-0.208,2.955c-3.104-1.561-7.005-1.285-9.983,0.471
			c-3.353,1.976-5.342,5.713-5.723,9.518c-0.408,4.072,1.166,8.12,3.712,11.249c2.687,3.302,6.488,5.488,10.453,6.904
			c4.412,1.576,9.147,2.321,13.829,2.254c0.585-0.008,1.17-0.03,1.755-0.064c0.143-0.008,0.253-0.068,0.33-0.152
			c1.742,2.394,4.055,4.344,6.699,5.677c2.702,1.362,5.725,2.105,8.756,2.054c2.971-0.049,5.904-0.874,8.506-2.299
			c2.607-1.428,4.878-3.464,6.559-5.917c0.411-0.6,0.775-1.225,1.114-1.867c0.146-0.277,0.303-0.632,0.661-0.638
			c0.383-0.007,0.789,0.192,1.152,0.296c1.4,0.399,2.85,0.632,4.304,0.713c2.893,0.16,5.833-0.304,8.547-1.318
			c2.729-1.019,5.257-2.577,7.331-4.629c2.301-2.274,4.144-5.182,4.533-8.444C379.684,188.226,378.616,184.91,376.72,182.34z
			 M375.116,198.076c-1.821,2.121-4.115,3.792-6.653,4.954c-2.519,1.154-5.291,1.786-8.06,1.841
			c-1.398,0.028-2.798-0.087-4.168-0.367c-0.702-0.143-1.381-0.345-2.068-0.544c-0.427-0.124-0.883-0.188-1.304-0.008
			c-0.357,0.152-0.61,0.451-0.803,0.779c-0.361,0.614-0.676,1.247-1.069,1.843c-0.385,0.583-0.805,1.141-1.259,1.671
			c-0.917,1.07-1.958,2.039-3.098,2.867c-2.297,1.666-4.96,2.804-7.765,3.252c-2.857,0.456-5.81,0.11-8.525-0.863
			c-2.718-0.974-5.204-2.606-7.161-4.729c-0.476-0.516-0.919-1.06-1.325-1.633c-0.151-0.213-0.423-0.315-0.664-0.174
			c-0.037,0.022-0.07,0.051-0.1,0.084c-0.073-0.05-0.166-0.077-0.281-0.071c-4.573,0.264-9.174-0.263-13.563-1.578
			c-3.874-1.16-7.66-2.978-10.551-5.863c-2.698-2.693-4.587-6.349-4.722-10.202c-0.126-3.589,1.316-7.268,4.111-9.581
			c2.699-2.234,6.777-2.895,9.984-1.402c0.407,0.189,0.797,0.412,1.17,0.662c0.349,0.234,0.839-0.155,0.713-0.548
			c-0.647-2.018-0.149-4.339,1.221-5.952c1.4-1.65,3.599-2.36,5.718-1.966c1.211,0.225,2.343,0.77,3.224,1.638
			c0.361,0.356,0.882-0.029,0.827-0.421c0.033-0.066,0.056-0.14,0.062-0.218c0.268-3.343,1.071-6.705,2.592-9.708
			c1.481-2.923,3.686-5.487,6.647-6.97c3.184-1.595,6.948-1.68,10.323-0.678c3.481,1.033,6.488,3.233,8.656,6.134
			c2.216,2.965,3.584,6.501,4.176,10.143c0.071,0.437,0.129,0.876,0.176,1.316c0.028,0.261,0.203,0.485,0.485,0.485
			c0.215,0,0.453-0.178,0.483-0.402c0.083-0.039,0.154-0.1,0.19-0.187c0.94-2.224,3.257-3.581,5.64-3.549
			c2.646,0.035,5.046,1.592,6.495,3.75c0.407,0.605,0.759,1.254,1.034,1.93c0.143,0.352,0.27,0.712,0.38,1.076
			c0.049,0.163,0.112,0.333,0.137,0.501c0.004,0.029,0.001,0.069,0.003,0.113c-0.177,0.114-0.281,0.314-0.22,0.536
			c0.023,0.084,0.074,0.161,0.141,0.223c0.001,0.192,0.102,0.383,0.337,0.457c2.913,0.913,5.693,2.391,7.861,4.567
			c2.173,2.18,3.664,5.102,3.848,8.202C378.579,192.71,377.182,195.669,375.116,198.076z"/>
		<path style="fill:#6A9AD3;" d="M351.309,96.401c-1.061-1.943-2.785-3.518-4.802-4.429c-2.241-1.012-4.769-1.219-7.09-0.423
			c0.284-2.274-0.789-4.451-1.834-6.42c-1.062-2.001-2.24-3.944-3.591-5.764c-2.671-3.597-6.039-6.733-10.16-8.585
			c-2.028-0.911-4.183-1.506-6.405-1.668c-2.135-0.156-4.302,0.122-6.346,0.751c-4.108,1.264-7.732,3.887-10.368,7.263
			c-2.721,3.484-4.463,7.654-5.354,11.968c-0.067,0.324-0.127,0.649-0.185,0.975c-1.633-3.675-4.934-6.602-8.917-7.43
			c-2.199-0.457-4.538-0.313-6.648,0.47c-2.067,0.767-3.835,2.101-5.14,3.876c-1.363,1.853-2.144,4.146-2.14,6.45
			c-2.606-2.054-6.782-1.007-8.228,1.955c-0.759,1.554-0.801,3.407-0.212,5.026c0.61,1.677,1.842,3.035,3.451,3.811
			c1.702,0.821,3.663,1.023,5.501,0.611c1.505,4.116,4.406,7.667,8.111,10.007c4.081,2.577,9.012,3.462,13.755,2.65
			c2.583-0.442,5.085-1.402,7.288-2.822c1.511,2.802,3.861,5.108,6.59,6.728c3.195,1.897,6.892,2.812,10.587,2.947
			c3.445,0.126,7.024-0.349,10.226-1.665c1.507-0.619,2.925-1.417,4.185-2.455c0.607-0.5,1.168-1.055,1.667-1.662
			c0.255-0.31,0.497-0.632,0.722-0.964c0.086-0.126,0.168-0.271,0.288-0.37c0.138-0.113,0.314-0.098,0.479-0.066
			c0.427,0.081,0.836,0.198,1.271,0.243c0.428,0.044,0.859,0.033,1.286-0.021c0.85-0.108,1.675-0.379,2.409-0.826
			c1.45-0.882,2.479-2.42,2.752-4.094c0.03-0.182,0.051-0.365,0.066-0.549c2.061-0.147,3.94-1.205,5.328-2.716
			c1.533-1.669,2.433-3.791,2.711-6.03C352.852,100.862,352.427,98.448,351.309,96.401z M349.619,107.907
			c-1.251,1.619-3.097,2.863-5.175,2.995c-0.26-0.351-0.948-0.26-0.922,0.282c0.075,1.549-0.567,3.069-1.747,4.08
			c-1.169,1.001-2.851,1.377-4.34,1.018c-0.442-0.106-0.906-0.239-1.356-0.094c-0.428,0.138-0.699,0.478-0.943,0.836
			c-0.421,0.619-0.893,1.192-1.425,1.719c-1.077,1.065-2.351,1.905-3.711,2.565c-2.912,1.411-6.215,1.982-9.431,2.034
			c-3.581,0.058-7.22-0.605-10.424-2.246c-2.783-1.426-5.236-3.548-6.867-6.233c-0.205-0.338-0.396-0.684-0.576-1.036
			c-0.096-0.189-0.253-0.262-0.411-0.256c-0.136-0.089-0.313-0.106-0.494,0.016c-3.871,2.607-8.736,3.695-13.352,2.987
			c-4.373-0.671-8.345-2.949-11.235-6.285c-1.567-1.809-2.79-3.923-3.553-6.192c-0.087-0.26-0.35-0.435-0.627-0.356
			c-2.93,0.83-6.466-0.176-7.904-3.016c-0.656-1.295-0.816-2.857-0.371-4.243c0.414-1.292,1.406-2.313,2.678-2.784
			c1.361-0.505,3.007-0.466,4.185,0.468c0.216,0.171,0.511,0.211,0.721,0c0.035-0.035,0.063-0.079,0.087-0.127
			c0.253,0.355,0.946,0.264,0.928-0.28c-0.136-4.014,2.326-7.802,5.969-9.437c3.683-1.653,8.108-1.022,11.267,1.447
			c1.7,1.329,3.053,3.122,3.838,5.135c0.1,0.256,0.342,0.435,0.627,0.356c0.055-0.015,0.107-0.043,0.155-0.078
			c0.056,0.058,0.127,0.103,0.217,0.128c0.243,0.067,0.584-0.083,0.627-0.356c0.669-4.196,2.089-8.301,4.47-11.841
			c2.279-3.387,5.491-6.177,9.293-7.718c1.868-0.757,3.858-1.224,5.876-1.294c2.103-0.073,4.19,0.289,6.173,0.985
			c4.063,1.426,7.5,4.199,10.221,7.489c1.387,1.677,2.595,3.499,3.682,5.383c0.562,0.975,1.104,1.966,1.594,2.979
			c0.49,1.013,0.94,2.104,1.058,3.232c0.057,0.547,0.043,1.095-0.075,1.633c-0.058,0.264,0.077,0.465,0.264,0.565
			c0.011,0.036,0.024,0.071,0.042,0.102c0.154,0.263,0.443,0.291,0.698,0.183c3.834-1.624,8.501,0.241,10.7,3.632
			C352.298,99.746,352.155,104.626,349.619,107.907z"/>
	</g>
	<path style="fill:#ADC9F7;" d="M434.962,408.712c-0.841-4.057-2.288-7.995-4.412-11.559c-1.286-2.157-2.816-4.168-4.572-5.958
		c0.166-0.703,0.271-1.426,0.337-2.149c0.177-1.943,0.162-3.915,0.053-5.861c-0.22-3.906-0.919-7.787-2.064-11.527
		c-2.266-7.4-6.273-14.319-11.801-19.76c-5.314-5.23-12.024-9.008-19.383-10.378c-6.976-1.299-14.322-0.613-20.952,1.912
		c-6.531,2.487-12.397,6.786-16.275,12.649c-0.438,0.661-0.845,1.341-1.228,2.036c-8.214-0.203-16.443,2.457-23.033,7.357
		c-1.632,1.214-3.161,2.557-4.568,4.025c-4.998-7.122-11.526-13.119-18.953-17.653c-8.255-5.039-17.605-8.282-27.219-9.354
		c-9.618-1.072-19.389,0.167-28.42,3.652c-8.841,3.411-16.891,8.796-23.501,15.58c-6.064,6.224-10.926,13.642-14.038,21.76
		c-1.101,0.645-2.326,0.852-3.684,0.405c-1.355-0.446-2.573-1.234-3.931-1.687c-4.908-1.635-10.434-0.647-14.55,2.422
		c-3.726-11.959-10.471-23.006-19.654-31.555c-9.202-8.566-20.758-14.394-33.289-15.922c-12.48-1.521-25.61,1.049-36.269,7.821
		c-10.663,6.775-17.852,17.557-21.6,29.486c-3.921,12.481-4.418,25.89-3.266,38.843c0.134,1.507,0.294,3.011,0.474,4.514
		c-10.141,2.377-16.867,13.91-13.874,23.911c0.007,0.023,0.016,0.043,0.026,0.063l-1.26,1.045h363.59l-0.093-0.197
		c0.032-0.017,0.064-0.036,0.093-0.059c2.905-2.314,4.863-5.555,6.107-9.017c1.3-3.617,1.852-7.466,2.081-11.288
		C436.107,417.738,435.884,413.161,434.962,408.712z"/>
	<g>
		<path style="fill:#CEDBEF;" d="M346.149,464.81c0,3.231-49.37,5.85-110.271,5.85s-110.272-2.619-110.272-5.85
			c0-3.231,49.37-5.85,110.272-5.85S346.149,461.579,346.149,464.81z"/>
		<g>
			<path style="fill:#F4B09B;" d="M302.554,148.292l43.706,14.475c0,0,10.681,2.108,11.945,2.67
				c1.265,0.562,5.337,7.584,5.726,10.636c0.388,3.052,0.777,14.484,0.721,14.65c-0.055,0.166-4.828,6.604-4.828,6.604
				s-2.553,1.887-3.663,1.942c-1.11,0.055-8.324-0.721-8.324-0.721s-5.549-2.109-5.938-2.275c-0.388-0.166-1.276-2.053-1.276-2.053
				l-0.056-1.498l-1.11-1.054l-1.276-1.998l-0.111-1.221l-4.384-3.663l-38.235-8.879L302.554,148.292z"/>
			<path style="fill:#F4B09B;" d="M190.35,301.32l34.628-4.661l5.327-5.327l30.965,4.329l8.99,8.657c0,0,7.658,8.324-0.666,21.309
				c-8.324,12.985-37.957,14.317-51.275,15.649c-13.318,1.332-28.967-0.666-28.967-0.666L190.35,301.32z"/>
			<path style="fill:#F4B09B;" d="M288.798,74.831c0,0,9.311-0.274,13.511-5.477c4.199-5.203,2.282-16.614,0.639-22.183
				c-1.643-5.569-7.486-18.805-9.403-20.448c-1.917-1.643-6.299-1.461-6.299-1.461l-10.407,4.382l-2.373,3.743v10.133l-1.187,25.013
				l-5.203-0.183l-4.382,13.693c0,0,6.299,9.037,10.315,11.137c4.017,2.1,7.668,0.822,8.581-0.183
				c0.913-1.004,2.008-1.735,2.465-3.286c0.456-1.552,1.734-8.307,1.734-8.307L288.798,74.831z"/>
			<path style="fill:#E24485;" d="M291.602,55.719c0,2.313-1.875,4.188-4.188,4.188c-2.313,0-4.188-1.875-4.188-4.188
				c0-2.313,1.875-4.188,4.188-4.188C289.727,51.531,291.602,53.406,291.602,55.719z"/>
			<path style="fill:#E24485;" d="M304.147,51.508c0.547,2.247-0.237,4.368-1.752,4.737c-1.515,0.369-3.186-1.154-3.733-3.401
				c-0.547-2.247,0.237-4.368,1.752-4.737C301.928,47.738,303.6,49.261,304.147,51.508z"/>
			<path style="fill:#7B2405;" d="M293.098,26.103c-1.3-1.014-2.82-1.717-4.417-2.117c-3.67-0.92-7.542-0.232-11.103,0.833
				c-3.338,0.999-6.545,2.432-9.549,4.194c-2.992,1.755-5.805,3.838-8.372,6.171c-1.253,1.139-2.439,2.374-3.368,3.795
				c-0.964,1.474-1.561,3.13-1.741,4.883c-0.376,3.658,0.979,7.283,2.443,10.565c0.796,1.783,1.645,3.542,2.546,5.275
				c0.842,1.621,1.697,3.257,2.817,4.706c1.068,1.382,2.392,2.541,4.023,3.202c1.551,0.629,3.257,0.649,4.798-0.013
				c1.442-0.619,2.633-1.763,3.467-3.078c0.962-1.517,1.463-3.288,1.766-5.045c0.666-3.864,0.768-7.863,0.466-11.767
				c-0.074-0.965-0.177-1.927-0.306-2.886c-0.018-0.132-0.075-0.252-0.169-0.33c2.084-3.103,3.032-6.94,2.624-10.663
				c-0.113-1.035-0.322-2.055-0.639-3.045c1.562-0.299,3.171-0.35,4.747-0.137c0.427,0.058,0.846,0.15,1.269,0.229
				c0.413,0.077,0.846,0.103,1.221-0.121c0.349-0.207,0.558-0.58,0.774-0.91c0.249-0.382,0.499-0.764,0.748-1.147
				c0.511-0.783,1.022-1.567,1.533-2.35c2.616,0.274,5.041,1.846,6.367,4.115c0.197,0.337,0.816,0.216,0.777-0.211
				C295.669,28.553,294.393,27.113,293.098,26.103z"/>
			<path style="fill:#2452A5;" d="M279.241,66.372c3.842-2.455,5.373-5.603,5.296-8.98c-0.077-3.377-0.844-5.603-3.07-7.829
				c-2.226-2.226-5.987-3.684-5.987-3.684l-2.533-0.154c0,0-1.458-8.673-1.151-10.822c0.307-2.149,1.612-5.526,5.066-7.292
				s9.21-3.3,9.21-3.3l3.224-0.23c0,0-2.303-2.686-7.061-1.612c-4.759,1.075-13.125,3.377-15.581,8.75
				c-2.456,5.373-0.307,16.502-0.307,16.502s-5.833,6.37-3.914,11.743C264.351,64.837,270.951,71.668,279.241,66.372z"/>
			<path style="fill:#F5BD14;" d="M202.669,139.614c0,0,33.988-43.899,35.072-44.949c7.214-6.992,17.203-13.651,27.303-16.981
				l-1.35,4.359c0,0,6.455,10.402,12.226,11.956c5.771,1.554,8.879-3.329,8.879-3.329l2.553-10.211c0,0,13.429,11.543,16.981,17.869
				c3.552,6.326,4.883,15.538,4.661,20.865c-0.222,5.327-4.328,18.868-4.328,18.868s-0.999,12.319-1.221,12.874
				c-0.222,0.555-2.775,15.427-2.775,15.427s-2.553,3.552-2.997,4.661c-0.444,1.11-1.221,5.216-1.221,5.216l-12.985,6.326
				l-34.739-12.098l-9.101-3.219l2.553-6.437l-2.997-0.333c0,0-12.874-3.219-17.98-6.77c-5.105-3.552-13.984-9.434-13.984-9.434
				L202.669,139.614z"/>
			<path style="fill:#F4B09B;" d="M221.349,197.076c0,0-11.718-0.825-18.154-3.466c-6.436-2.641-12.378-5.941-9.077-19.144
				c3.301-13.203,8.252-22.775,8.252-22.775l19.64,3.796l13.038,3.796l7.133,1.53l-2.553,6.437l19.682,6.992l24.158,8.324
				c0,0,15.501-7.51,17.351-8.472c1.85-0.962,4.809-1.406,5.179-0.37c0.37,1.036-0.074,3.182-0.074,3.182l-8.879,7.473
				c0,0,6.363,2.516,8.657,2.664s7.029-0.666,8.731-0.814c1.702-0.148,6.659-0.962,7.473,0.296s0.74,3.626,0.074,3.995
				c-0.666,0.37-9.027,2.886-9.027,2.886s-6.511,1.48-6.289,1.48c0.222,0,6.141,0.444,6.141,0.444l8.805-0.148
				c0,0,3.404,0.74,3.921,1.924c0.518,1.184,0.296,2.738,0.296,2.738l-0.888,0.518l-1.184,0.518l-1.036,1.702
				c0,0-1.998,2.146-3.996,3.108c-1.998,0.962-6.437,2.664-6.437,2.664s-1.554,1.998-4.439,3.182
				c-2.886,1.184-8.435,2.442-9.323,2.442s-11.469-4.513-11.469-4.513l-10.137-6.289l-49.426-4.735L221.349,197.076z"/>
			<path style="fill:#A70144;" d="M224.81,294.932l1.432-37.512c0,0-5.441-7.302-7.016-21.333
				c-1.575-14.031,1.002-32.358,1.002-32.358l55.982-0.859l2.148,1.145l10.595,6.157l31.642,71.016c0,0-5.297,8.018-15.177,13.888
				c-9.879,5.87-27.633,12.456-44.528,15.32l-5.298-7.159C255.593,303.236,235.835,304.525,224.81,294.932z"/>
			<g>
				<path style="fill:#346FE6;" d="M294.984,296.142c-0.188-0.994-0.392-1.986-0.61-2.974c-0.426-1.929-0.911-3.845-1.468-5.74
					c-2.207-7.511-5.582-14.801-10.814-20.697c-2.869-3.232-6.272-5.913-9.654-8.58c-3.452-2.724-6.825-5.537-10.064-8.512
					c-3.221-2.959-6.319-6.051-9.285-9.266c-2.95-3.198-5.803-6.503-8.356-10.029c-5.041-6.963-8.986-15.057-9.385-23.776
					c-0.049-1.075-0.041-2.151,0.02-3.225c0.013-0.226-0.202-0.416-0.417-0.417c-0.845-0.006-1.69-0.011-2.535-0.017
					c-0.406-0.003-0.811-0.006-1.217-0.008c-0.203-0.001-0.406-0.003-0.608-0.004c-0.006,0-0.119,0.007-0.261,0.022
					c0.08-0.175,0.058-0.399-0.152-0.531c-0.215-0.134-0.457-0.113-0.645,0.008c-0.248-0.215-0.766,0.013-0.688,0.441
					c1.34,7.329,4.191,14.292,7.834,20.765c3.724,6.615,8.261,12.724,13.032,18.614c5.051,6.236,10.369,12.253,15.346,18.55
					c4.799,6.073,9.271,12.436,12.772,19.356c3.381,6.681,5.872,13.908,6.607,21.389c0.092,0.932,0.155,1.867,0.194,2.803
					c0.01,0.248,0.262,0.503,0.528,0.402c2.208-0.835,4.416-1.671,6.623-2.506c0.866-0.328,1.84-0.605,2.516-1.272
					c0.588-0.579,0.848-1.371,0.921-2.176C295.297,297.885,295.147,297.001,294.984,296.142z"/>
				<path style="fill:#346FE6;" d="M276.789,294.741c-1.095-3.707-2.363-7.365-3.88-10.921c-3.006-7.047-7.198-13.392-12.012-19.327
					c-4.819-5.941-10.12-11.464-15.111-17.256c-4.955-5.751-9.655-11.823-13.058-18.641c-3.353-6.717-5.465-14.222-5.071-21.777
					c0.049-0.94,0.137-1.879,0.266-2.811c0.038-0.273-0.104-0.515-0.402-0.528l-3.434-0.147c-0.567-0.024-1.134-0.055-1.701-0.072
					c-0.434-0.013-0.892,0.007-1.275,0.236c-0.708,0.423-0.858,1.299-0.981,2.044c-0.165,1-0.282,2.008-0.35,3.019
					c-0.266,3.987,0.248,8.009,1.31,11.854c2.198,7.958,6.665,15.012,11.944,21.277c5.413,6.425,11.644,12.083,17.553,18.036
					c5.758,5.802,11.299,11.965,15.268,19.161c2.118,3.841,3.652,7.941,4.96,12.119c0.664,2.122,1.293,4.257,1.897,6.396
					c0.607,2.152,1.159,4.355,1.205,6.603c0.023,1.122-0.09,2.23-0.369,3.317c-0.071,0.276,0.131,0.51,0.402,0.528
					c0.973,0.064,1.868-0.351,2.477-1.083c0.008,0,0.015,0.002,0.023,0.002c0.257,0,0.514,0.001,0.772,0.001
					c0.107,0,0.219-0.047,0.295-0.122c0.057-0.057,0.101-0.142,0.116-0.226c0.063-0.048,0.112-0.119,0.139-0.217
					C278.8,302.385,277.882,298.439,276.789,294.741z"/>
			</g>
			<path style="fill:#F4B09B;" d="M272.067,312.578l6.678,9.772v62.056l37.95,6.841c0,0,9.773-55.541,11.564-63.359
				s0.326-24.268-2.769-32.412c-3.095-8.144-6.189-12.542-6.189-12.542l-6.515,6.515l-26.712,17.916L272.067,312.578z"/>
			<path style="fill:#AECDFF;" d="M296.546,175.778c0,0,0.368-3.969,1.838-6.322c1.47-2.352,4.778-5.587,4.999-5.807
				c0.221-0.221,7.498-5.366,7.498-5.366l7.057,1.25c0,0,5.366,8.601,6.028,9.777c0.662,1.176,1.544,7.866,1.397,8.968
				c-0.147,1.103-2.573,9.997-2.573,9.997l-1.176-2.132l-2.352-0.441l-11.468,1.47l-3.382-0.294l-7.057-2.499l3.087-2.279
				c0,0,4.411-3.455,4.925-4.117c0.515-0.662,1.25-3.087,1.029-3.382c-0.221-0.294-1.691-1.323-1.691-1.323l-5.66,1.617
				L296.546,175.778z"/>
			<path style="fill:#AECDFF;" d="M305.955,194.376c0,0,8.16-0.662,10.732-1.691c2.573-1.029,5.954-2.426,5.954-2.426l-0.882,5.44
				c0,0-14.408-0.22-16.099-1.25C303.97,193.421,305.955,194.376,305.955,194.376z"/>
			<path style="fill:#AECDFF;" d="M289.489,210.842c0,0,6.983,3.161,8.601,3.234c1.617,0.074,6.469-1.544,6.469-1.544
				s7.13-3.088,7.719-3.602c0.588-0.515,1.176-1.103,1.176-1.103s6.175-2.793,6.175-2.499c0,0.294-4.705,21.097-4.631,21.318
				c0.074,0.221-0.22,1.985-0.22,1.985s-0.294,3.161-8.233,3.602c-7.939,0.441-12.791-2.426-13.673-2.573
				c-0.882-0.147-3.749-2.132-4.925-4.043c-1.176-1.911-1.25-3.749-1.25-3.749l0.882-1.103L289.489,210.842z"/>
			<path style="fill:#FFFFFF;" d="M319.293,156.693c0.143-0.13,0.189-0.344,0.086-0.518c-0.289-0.487-0.714-0.887-1.229-1.126
				c-0.143-0.066-0.275-0.056-0.382-0.003c-1.428-0.814-3.011-1.33-4.661-1.504c-0.553-0.058-1.161-0.13-1.664,0.162
				c-0.426,0.248-0.683,0.681-0.859,1.128c-0.183,0.465-0.352,1.043-0.331,1.543c0.024,0.563,0.354,0.989,0.812,1.289
				c0.536,0.35,1.195,0.568,1.804,0.753c0.673,0.204,1.363,0.333,2.062,0.407c0.123,0.036,0.246,0.072,0.37,0.103
				c0.661,0.164,1.382,0.301,2.066,0.28c1.296-0.04,2.158-1.273,1.925-2.512C319.293,156.694,319.293,156.694,319.293,156.693z"/>
			<path style="fill:#F09105;" d="M272.701,413.194c0,0,7.103,4.106,19.534,5.882c12.43,1.776,19.645,0.999,19.645,0.999
				l-1.221,4.994l10.988,12.763l4.661,4.328l4.772,2.331c0,0,11.32,4.329,14.095,13.207c0,0-3.884,2.886-5.438,3.219
				c-1.554,0.333-6.881,1.776-17.203-0.333c-10.322-2.109-39.289-9.101-39.289-9.101l-11.432-2.664l-2.997-0.111L272.701,413.194z"
				/>
			<path style="fill:#FFFFFF;" d="M272.701,413.194l4.587-28.967h1.036c0,0,18.35,3.626,19.46,3.847
				c1.11,0.222,20.421,3.256,20.421,3.256l-6.326,28.745C311.879,420.076,294.972,422.85,272.701,413.194z"/>
			<path style="fill:#FFFFFF;" d="M269.15,448.821c0,0,6.807,0.148,13.984,2.368c7.177,2.22,37.291,9.027,37.291,9.027
				s11.025,2.294,16.87,1.258c5.845-1.036,8.139-3.552,8.139-3.552l1.258,4.735c0,0,0.296,2.516-11.617,3.922
				c0,0-8.213-0.37-12.134-0.888c-3.922-0.518-33-6.733-33-6.733l-21.235-4.439l-0.222-1.628L269.15,448.821z"/>
			<path style="fill:#FFFFFF;" d="M315.357,431.119c-3.424,1.563-6.849,3.126-10.273,4.689l-2.922,1.334
				c-0.205,0.093-0.255,0.39-0.15,0.571c0.045,0.077,0.106,0.13,0.176,0.162c-0.055,0.16-0.072,0.337-0.05,0.507
				c0.007,0.055,0.02,0.107,0.034,0.159c0.006,0.008,0.011,0.015,0.016,0.023c0.025,0.033,0.05,0.066,0.075,0.099
				c0.007,0.008,0.021,0.026,0.046,0.059c0.069,0.087,0.138,0.174,0.208,0.261c0.052,0.065,0.093,0.134,0.129,0.204
				c0.15,0.094,0.325,0.157,0.518,0.18c0.659,0.08,1.291-0.263,1.876-0.518c0.63-0.274,1.256-0.557,1.879-0.846
				c2.505-1.163,4.958-2.435,7.402-3.722c0.334-0.176,0.668-0.352,1.001-0.528c0.303-0.16,0.648-0.305,0.876-0.571
				c0.251-0.294,0.302-0.631,0.245-0.966C316.078,431.853,315.715,431.488,315.357,431.119z"/>
			<path style="fill:#FFFFFF;" d="M319.464,435.72c-0.16-0.182-0.387-0.196-0.586-0.069c-3.2,2.042-6.4,4.085-9.6,6.127
				c-0.902,0.576-1.805,1.152-2.708,1.728c-0.19,0.121-0.198,0.422-0.069,0.586c0.055,0.07,0.124,0.114,0.197,0.136
				c-0.004,0.019-0.005,0.038-0.008,0.058c0.564,0.412,1.164,0.776,1.736,1.181c0.44-0.149,0.845-0.434,1.233-0.672
				c0.585-0.359,1.166-0.727,1.742-1.1c2.319-1.502,4.571-3.103,6.811-4.718c0.306-0.221,0.612-0.442,0.918-0.663
				c0.278-0.201,0.6-0.392,0.787-0.688C320.34,436.962,319.919,436.238,319.464,435.72z"/>
			<path style="fill:#FFFFFF;" d="M324.053,440.088c-0.141-0.118-0.223-0.25-0.258-0.385c-0.011,0.006-0.023,0.011-0.034,0.018
				c-3.2,2.042-6.4,4.085-9.6,6.127c-0.903,0.576-1.805,1.152-2.708,1.728c-0.013,0.008-0.023,0.019-0.034,0.029
				c0.398,0.278,0.801,0.549,1.207,0.816c0.556,0.18,1.11,0.383,1.659,0.604c0.086-0.054,0.172-0.109,0.256-0.161
				c0.585-0.359,1.166-0.727,1.742-1.1c2.319-1.502,4.57-3.103,6.811-4.718c0.306-0.221,0.612-0.442,0.918-0.663
				c0.278-0.201,0.6-0.392,0.788-0.688c0.193-0.303,0.209-0.619,0.128-0.922C324.631,440.555,324.338,440.327,324.053,440.088z"/>
			<path style="fill:#FFFFFF;" d="M328.158,442.776c-3.112,1.986-6.223,3.972-9.335,5.958c-0.724,0.462-1.449,0.924-2.173,1.387
				c0.908,0.478,1.785,1.011,2.611,1.594c0.566-0.348,1.127-0.703,1.685-1.064c2.319-1.501,4.571-3.103,6.811-4.718
				c0.306-0.221,0.612-0.441,0.918-0.663c0.278-0.201,0.6-0.392,0.787-0.688c0.236-0.372,0.209-0.762,0.059-1.125
				C329.062,443.239,328.607,443.012,328.158,442.776z"/>
			<path style="fill:#FFFFFF;" d="M313.027,428.563c-0.323-0.381-0.689-0.84-1.018-1.338c-3.404,1.29-6.808,2.581-10.212,3.871
				c-0.822,0.312-1.643,0.623-2.465,0.935c0.345,0.8,0.724,1.622,0.827,2.486c0.002,0.007,0.005,0.014,0.007,0.021
				c0.477-0.048,0.947-0.252,1.388-0.411c0.646-0.232,1.29-0.473,1.93-0.721c2.577-0.996,5.108-2.103,7.631-3.227
				c0.345-0.153,0.689-0.307,1.034-0.461c0.313-0.14,0.667-0.261,0.911-0.512c0.104-0.107,0.178-0.221,0.229-0.342
				C313.202,428.763,313.113,428.664,313.027,428.563z"/>
			<path style="fill:#FFFFFF;" d="M311.415,423.518c-3.747,0.277-7.494,0.555-11.241,0.832c-0.987,0.073-1.974,0.146-2.961,0.219
				c0.047,0.101,0.074,0.218,0.074,0.353c0.001,0.188,0.004,0.368,0.02,0.547c0.19,0.577,0.374,1.156,0.524,1.745
				c0.413,0.043,0.845-0.006,1.247-0.029c0.686-0.039,1.371-0.087,2.056-0.142c2.753-0.222,5.495-0.563,8.234-0.923
				c0.374-0.049,0.748-0.099,1.122-0.148c0.26-0.034,0.539-0.052,0.793-0.135C310.982,425.029,310.933,424.21,311.415,423.518z"/>
			<path style="fill:#F09105;" d="M161.279,300.764c0,0-2.964,7.651-2.804,20.206c0.159,12.556,2.038,19.564,2.038,19.564
				l-5.123-0.437l-10.919,12.822l-3.559,5.272l-1.568,5.074c0,0-2.534,11.852-10.88,15.961c0,0-3.449-3.394-4.018-4.878
				c-0.568-1.484-2.814-6.526-2.32-17.049c0.494-10.523,2.943-40.222,2.943-40.222l0.872-11.705l-0.352-2.978L161.279,300.764z"/>
			<path style="fill:#FFFFFF;" d="M161.279,300.764l29.328,0.072l0.16,1.023c0,0-0.757,18.689-0.805,19.82
				s-0.072,20.679-0.072,20.679l-29.377-1.825C160.512,340.535,155.167,324.257,161.279,300.764z"/>
			<path style="fill:#FFFFFF;" d="M125.53,302.741c0,0,0.902,6.749-0.186,14.182c-1.088,7.433-3.177,38.236-3.177,38.236
				s-0.569,11.246,1.355,16.862c1.924,5.616,4.762,7.495,4.762,7.495l-4.485,1.972c0,0-2.44,0.68-5.663-10.874
				c0,0-0.899-8.172-0.991-12.126c-0.092-3.954,1.572-33.643,1.572-33.643l1.117-21.666l1.574-0.47L125.53,302.741z"/>
			<path style="fill:#FFFFFF;" d="M150.136,345.672c-2.072-3.143-4.143-6.286-6.215-9.429l-1.768-2.682
				c-0.124-0.188-0.425-0.192-0.587-0.06c-0.069,0.057-0.112,0.125-0.133,0.199c-0.166-0.03-0.344-0.02-0.508,0.029
				c-0.053,0.016-0.103,0.037-0.152,0.059c-0.007,0.007-0.014,0.013-0.02,0.02c-0.029,0.029-0.057,0.059-0.086,0.089
				c-0.007,0.008-0.023,0.025-0.051,0.055c-0.075,0.082-0.151,0.164-0.226,0.246c-0.056,0.062-0.118,0.113-0.182,0.159
				c-0.07,0.163-0.105,0.345-0.098,0.54c0.023,0.663,0.459,1.235,0.801,1.774c0.368,0.58,0.744,1.155,1.125,1.726
				c1.535,2.296,3.169,4.524,4.817,6.741c0.225,0.303,0.45,0.605,0.676,0.908c0.205,0.275,0.401,0.594,0.699,0.777
				c0.329,0.203,0.67,0.201,0.992,0.094C149.522,346.497,149.826,346.082,150.136,345.672z"/>
			<path style="fill:#FFFFFF;" d="M146.222,350.438c0.155-0.186,0.134-0.412-0.022-0.59c-2.511-2.847-5.022-5.694-7.532-8.542
				c-0.708-0.803-1.416-1.606-2.124-2.409c-0.149-0.169-0.448-0.131-0.59,0.022c-0.061,0.066-0.093,0.14-0.104,0.215
				c-0.019-0.001-0.039,0.001-0.058,0.001c-0.321,0.62-0.588,1.27-0.9,1.897c0.215,0.412,0.559,0.768,0.854,1.115
				c0.445,0.523,0.898,1.04,1.355,1.552c1.841,2.06,3.769,4.038,5.71,6.003c0.265,0.268,0.531,0.537,0.796,0.805
				c0.241,0.243,0.48,0.532,0.801,0.672C145.129,351.494,145.781,350.967,146.222,350.438z"/>
			<path style="fill:#FFFFFF;" d="M142.613,355.645c0.095-0.158,0.213-0.258,0.341-0.314c-0.008-0.01-0.015-0.021-0.023-0.031
				c-2.511-2.847-5.021-5.695-7.532-8.542c-0.708-0.803-1.416-1.606-2.124-2.409c-0.01-0.011-0.022-0.02-0.034-0.029
				c-0.213,0.437-0.419,0.876-0.62,1.318c-0.093,0.577-0.208,1.155-0.342,1.733c0.067,0.077,0.134,0.153,0.198,0.228
				c0.445,0.523,0.897,1.04,1.355,1.552c1.841,2.06,3.769,4.038,5.71,6.003c0.265,0.268,0.531,0.537,0.796,0.805
				c0.241,0.243,0.48,0.532,0.801,0.672c0.329,0.144,0.644,0.111,0.931-0.016C142.24,356.288,142.421,355.964,142.613,355.645z"/>
			<path style="fill:#FFFFFF;" d="M140.589,360.114c-2.442-2.769-4.883-5.538-7.325-8.306c-0.568-0.645-1.137-1.289-1.705-1.933
				c-0.333,0.971-0.724,1.919-1.173,2.825c0.431,0.505,0.868,1.006,1.311,1.501c1.841,2.06,3.769,4.038,5.71,6.003
				c0.265,0.268,0.531,0.537,0.796,0.805c0.241,0.243,0.48,0.532,0.801,0.672c0.404,0.176,0.786,0.089,1.121-0.115
				C140.271,361.079,140.425,360.595,140.589,360.114z"/>
			<path style="fill:#FFFFFF;" d="M152.303,342.976c0.326-0.377,0.724-0.81,1.166-1.212c-1.799-3.165-3.598-6.33-5.398-9.495
				c-0.434-0.764-0.869-1.528-1.303-2.292c-0.737,0.464-1.491,0.965-2.33,1.2c-0.006,0.003-0.013,0.007-0.019,0.01
				c0.121,0.464,0.395,0.897,0.62,1.308c0.329,0.603,0.666,1.201,1.01,1.796c1.381,2.392,2.865,4.723,4.363,7.043
				c0.205,0.317,0.41,0.634,0.615,0.95c0.186,0.288,0.361,0.619,0.646,0.822c0.121,0.086,0.246,0.142,0.373,0.174
				C152.132,343.18,152.216,343.076,152.303,342.976z"/>
			<path style="fill:#FFFFFF;" d="M157.04,340.606c-0.851-3.66-1.702-7.32-2.553-10.979c-0.224-0.964-0.448-1.928-0.672-2.892
				c-0.093,0.061-0.204,0.107-0.337,0.128c-0.185,0.029-0.363,0.061-0.538,0.104c-0.541,0.276-1.085,0.548-1.644,0.787
				c0.021,0.414,0.136,0.833,0.22,1.228c0.144,0.672,0.297,1.341,0.457,2.009c0.643,2.686,1.403,5.343,2.179,7.993
				c0.106,0.362,0.213,0.724,0.319,1.086c0.074,0.251,0.135,0.525,0.255,0.763C155.48,340.411,156.281,340.236,157.04,340.606z"/>
			<path style="fill:#0F0F0F;" d="M287.917,47.379c-0.342-0.625-1.101-1.005-1.81-0.849c-0.366,0.081-0.697,0.271-0.918,0.58
				c-0.196,0.273-0.311,0.611-0.312,0.947c-0.001,0.378,0.09,0.737,0.317,1.046c0.223,0.303,0.557,0.483,0.918,0.562
				c0.703,0.153,1.466-0.209,1.801-0.837c0.109-0.203,0.16-0.435,0.161-0.667C288.096,47.894,288.049,47.621,287.917,47.379z"/>
			<path style="fill:#0F0F0F;" d="M300.234,43.679c-0.342-0.625-1.101-1.005-1.81-0.849c-0.366,0.081-0.697,0.271-0.918,0.58
				c-0.196,0.273-0.311,0.611-0.312,0.947c-0.001,0.378,0.09,0.737,0.317,1.046c0.223,0.303,0.557,0.483,0.918,0.562
				c0.703,0.153,1.466-0.209,1.801-0.837c0.109-0.203,0.16-0.435,0.161-0.667C300.414,44.193,300.367,43.921,300.234,43.679z"/>
			<path style="fill:#0F0F0F;" d="M299.565,53.42c-0.333-0.444-0.661-0.891-0.98-1.345c-1.282-1.825-2.462-3.739-3.456-5.737
				c-0.532-1.068-1.004-2.23-0.893-3.446c0.058-0.631-0.919-0.76-0.977-0.128c-0.199,2.181,1.038,4.21,2.081,6.029
				c0.55,0.959,1.13,1.902,1.741,2.823c0.298,0.449,0.604,0.894,0.917,1.333c0.152,0.213,0.306,0.426,0.461,0.636
				c0.159,0.216,0.354,0.427,0.489,0.659c0.099,0.17-0.041,0.252-0.186,0.409c-0.203,0.222-0.41,0.441-0.622,0.656
				c-0.438,0.445-0.892,0.873-1.357,1.288c-0.471,0.42,0.135,1.197,0.61,0.774c0.431-0.384,0.851-0.779,1.258-1.188
				c0.374-0.375,0.814-0.756,1.116-1.193C300.151,54.433,299.934,53.91,299.565,53.42z"/>
			<path style="fill:#0F0F0F;" d="M299.578,60.131c-2.273,1.653-5.625,1.407-7.679-0.486c-0.196-0.18-0.541-0.102-0.69,0.096
				c-0.173,0.23-0.1,0.509,0.096,0.69c1.858,1.712,4.637,2.187,7.014,1.429c0.67-0.214,1.3-0.542,1.869-0.955
				C300.701,60.531,300.091,59.757,299.578,60.131z"/>
			<path style="fill:#0F0F0F;" d="M285.315,24.365c-3.639,0.883-7.426,1.84-10.32,4.357c-1.251,1.088-2.279,2.442-2.872,3.998
				c-0.714,1.87-0.64,3.916-0.515,5.88c0.151,2.373,0.446,4.736,0.876,7.074c0.041,0.222,0.31,0.347,0.513,0.291
				c0.233-0.064,0.332-0.291,0.291-0.513c-0.367-1.998-0.632-4.013-0.789-6.038c-0.15-1.937-0.328-3.981,0.225-5.872
				c0.925-3.164,3.779-5.321,6.699-6.545c1.965-0.824,4.048-1.326,6.113-1.827C286.058,25.043,285.837,24.238,285.315,24.365z"/>
			<circle style="fill:none;stroke:#0F0F0F;stroke-width:1.0013;stroke-miterlimit:10;" cx="273.443" cy="56.908" r="11.088"/>
			<circle style="fill:none;stroke:#0F0F0F;stroke-width:0.7356;stroke-miterlimit:10;" cx="271.691" cy="56.908" r="8.146"/>
			<path style="fill:#0F0F0F;" d="M288.905,74.743c0,0-7.658-2.164-10.488-3.496c-2.83-1.332-4.162-3.163-4.162-3.163
				c-2.497,0.666-5.66-0.832-5.66-0.832l-0.499,1.165l18.281,13.548c-0.521,2.739-1.143,5.458-1.869,8.15
				c-0.012,0.044-0.015,0.085-0.014,0.125c-0.043,0.032-0.079,0.073-0.1,0.125c-0.622,1.473-1.888,2.571-3.37,3.135
				c-1.658,0.631-3.442,0.581-5.121,0.053c-3.831-1.204-6.456-4.467-8.821-7.522c-1.53-1.976-3.057-3.953-4.586-5.93
				c-0.138-0.178-0.445-0.145-0.59,0c-0.176,0.176-0.138,0.411,0,0.59c1.418,1.834,2.837,3.669,4.255,5.503
				c1.284,1.66,2.569,3.335,4.09,4.788c2.756,2.632,6.72,4.686,10.59,3.463c1.836-0.58,3.51-1.854,4.272-3.659
				c0.031-0.073,0.046-0.149,0.046-0.223c0.069-0.048,0.124-0.121,0.152-0.225c0.901-3.344,1.646-6.73,2.232-10.144
				c0.025-0.145-0.009-0.291-0.099-0.393L288.905,74.743z"/>
			<path style="fill:#0F0F0F;" d="M326.131,197.662c-0.704-1.404-2.224-2.241-3.72-2.514c-1.852-0.338-3.768-0.072-5.636-0.038
				c-1.943,0.036-3.887-0.019-5.825-0.163c-0.917-0.068-1.832-0.159-2.745-0.268c1.062-0.079,2.12-0.214,3.166-0.397
				c2.214-0.387,4.373-1.002,6.497-1.728c1.046-0.357,2.123-0.686,3.131-1.142c0.901-0.408,1.63-1.063,1.948-2.019
				c0.339-1.018,0.132-2.155-0.558-2.975c-0.655-0.778-1.736-1.216-2.747-1.087c-0.07,0.009-0.136,0.031-0.196,0.062
				c-0.054-0.028-0.114-0.042-0.177-0.034c-1.669,0.215-3.339,0.43-5.008,0.644c-1.654,0.213-3.308,0.451-4.967,0.624
				c-1.601,0.166-3.238,0.242-4.826-0.067c-1.449-0.282-2.828-0.829-4.187-1.393c-0.747-0.31-1.494-0.626-2.252-0.912
				c2.066-1.4,4.088-2.881,6.002-4.48c0.874-0.73,1.734-1.553,2.266-2.574c0.516-0.99,0.805-2.4,0.103-3.38
				c-0.704-0.982-1.95-1.025-3.035-0.8c-0.614,0.127-1.213,0.336-1.804,0.541c-0.654,0.228-1.301,0.478-1.94,0.743
				c-2.613,1.085-5.136,2.385-7.677,3.625c-2.636,1.287-5.272,2.574-7.908,3.86c-0.278,0.136-0.557,0.272-0.835,0.408
				c-0.046-0.055-0.107-0.101-0.189-0.13c-4.316-1.511-8.632-3.021-12.947-4.532c-4.294-1.503-8.589-3.006-12.883-4.509
				c-4.299-1.505-8.597-3.008-12.906-4.484c-1.445-0.495-2.889-0.999-4.337-1.495c0.828-1.749,1.656-3.499,2.484-5.248
				c0.009-0.019,0.016-0.039,0.022-0.059c0.136,0.03,0.271,0.062,0.406,0.091c0.363,0.079,0.726,0.154,1.09,0.228
				c0.173,0.035,0.35-0.025,0.449-0.161c0.172,0.068,0.383,0.038,0.51-0.161c1.684-2.631,3.344-5.278,4.978-7.94
				c1.635-2.662,3.244-5.34,4.828-8.032c1.162-1.974,2.309-3.957,3.444-5.947c0.111,0.161,0.318,0.253,0.536,0.123
				c2.679-1.602,5.359-3.203,8.038-4.804c0.461-0.275,0.041-0.997-0.421-0.721c-2.566,1.534-5.132,3.068-7.698,4.602
				c0.26-0.458,0.52-0.916,0.779-1.375c1.527-2.71,3.028-5.434,4.504-8.173c1.482-2.75,2.939-5.514,4.369-8.291
				c0.177-0.344,0.354-0.689,0.531-1.033c0.244-0.477-0.475-0.9-0.72-0.421c-1.424,2.781-2.874,5.548-4.35,8.301
				c-1.476,2.753-2.978,5.493-4.505,8.218c-1.527,2.725-3.08,5.436-4.658,8.132c-1.571,2.685-3.168,5.354-4.789,8.009
				c-1.628,2.666-3.282,5.317-4.96,7.952c-0.198,0.311-0.397,0.622-0.596,0.934c-0.015-0.006-0.03-0.012-0.046-0.016
				c-2.978-0.603-5.921-1.37-8.814-2.297c-2.892-0.926-5.734-2.009-8.507-3.247c-2.774-1.238-5.482-2.626-8.107-4.156
				c-2.625-1.53-5.167-3.201-7.611-5.006c-2.443-1.804-4.784-3.746-7.011-5.811c-0.272-0.252-0.542-0.507-0.811-0.762
				c-0.389-0.37-0.98,0.219-0.59,0.59c2.226,2.12,4.571,4.111,7.017,5.973c2.436,1.854,4.973,3.574,7.597,5.151
				c2.624,1.577,5.333,3.012,8.112,4.295c2.791,1.289,5.65,2.429,8.564,3.408c2.502,0.841,5.045,1.562,7.616,2.16
				c-0.824,1.741-1.648,3.482-2.472,5.224c-2.492-0.845-4.997-1.655-7.535-2.334c-4.145-1.108-8.478-1.804-12.763-1.22
				c-0.528,0.072-1.054,0.163-1.576,0.273c-0.525,0.11-0.303,0.915,0.222,0.805c4.212-0.883,8.545-0.373,12.686,0.638
				c4.27,1.043,8.426,2.548,12.581,3.966c4.269,1.457,8.528,2.942,12.786,4.432c4.272,1.495,8.544,2.99,12.816,4.486
				c4.275,1.496,8.549,2.992,12.824,4.489c0.534,0.187,1.069,0.374,1.603,0.561c0.062,0.022,0.119,0.028,0.172,0.024
				c0.13,0.152,0.345,0.176,0.526,0.088c2.512-1.226,5.023-2.452,7.535-3.678c2.452-1.197,4.889-2.435,7.373-3.564
				c1.193-0.542,2.405-1.046,3.648-1.465c0.926-0.313,2.06-0.763,3.045-0.446c1.03,0.332,0.992,1.604,0.706,2.444
				c-0.34,1.001-1.109,1.808-1.881,2.499c-0.93,0.834-1.935,1.59-2.932,2.342c-1.068,0.805-2.155,1.586-3.26,2.339
				c-0.223,0.152-0.447,0.302-0.672,0.452c-0.489-0.161-0.984-0.304-1.489-0.417c-0.523-0.117-0.747,0.688-0.222,0.805
				c0.532,0.118,1.053,0.27,1.567,0.441c0.054,0.037,0.116,0.061,0.184,0.063c2.237,0.77,4.349,1.908,6.662,2.455
				c1.595,0.378,3.231,0.403,4.858,0.269c1.671-0.139,3.333-0.389,4.995-0.603c1.888-0.243,3.776-0.486,5.665-0.729
				c0.07-0.009,0.137-0.031,0.196-0.062c0.054,0.028,0.114,0.042,0.177,0.034c0.777-0.1,1.545,0.176,2.078,0.753
				c0.528,0.572,0.669,1.399,0.458,2.136c-0.245,0.856-0.936,1.361-1.726,1.691c-0.963,0.403-1.972,0.72-2.96,1.055
				c-3.924,1.332-8.01,2.239-12.175,2.12c-2.288-0.065-4.558-0.453-6.716-1.225c-0.212-0.076-0.457,0.086-0.513,0.291
				c-0.064,0.231,0.078,0.437,0.291,0.513c1.801,0.645,3.671,1.018,5.561,1.173c0.048,0.118,0.141,0.217,0.269,0.241
				c3.593,0.655,7.24,1.007,10.892,1.037c0.924,0.008,1.848-0.005,2.772-0.038c0.875-0.031,1.749-0.096,2.624-0.093
				c1.482,0.005,3.042,0.243,4.169,1.289c0.501,0.465,0.907,1.081,0.99,1.773c0.036,0.299-0.027,0.597-0.185,0.856
				c-0.057,0.094-0.143,0.191-0.215,0.236c-0.102,0.064-0.156,0.068-0.256,0.044c-0.136-0.033-0.251-0.002-0.338,0.063
				c-0.06-0.015-0.126-0.019-0.198-0.003c-0.224,0.048-0.448,0.092-0.672,0.14c-0.008,0.039-0.017,0.078-0.031,0.118
				c-0.001,0.002-0.001,0.004-0.002,0.006c-0.074-0.031-0.162-0.038-0.26-0.012c-3.003,0.797-6.073,1.331-9.17,1.587
				c-3.107,0.257-6.236,0.243-9.34-0.044c-1.745-0.161-3.479-0.412-5.199-0.748c-0.221-0.043-0.45,0.063-0.513,0.291
				c-0.056,0.205,0.069,0.47,0.291,0.513c3.109,0.607,6.271,0.943,9.438,0.996c3.168,0.053,6.338-0.178,9.467-0.678
				c1.691-0.27,3.368-0.626,5.026-1.058c-1.595,2.662-4.554,4.077-7.346,5.165c-1.767,0.689-3.555,1.352-5.376,1.887
				c-1.908,0.56-3.882,0.954-5.879,0.871c-1.116-0.046-2.187-0.285-3.264-0.569c-1.086-0.286-2.177-0.574-3.304-0.631
				c-0.537-0.027-0.535,0.808,0,0.834c1,0.05,1.968,0.307,2.932,0.561c0.994,0.263,1.987,0.504,3.014,0.597
				c2.042,0.186,4.103-0.146,6.072-0.677c0.478-0.129,0.953-0.269,1.426-0.418c-1.51,1.087-3.212,1.898-4.954,2.548
				c-1.126,0.42-2.274,0.781-3.427,1.12c-0.584,0.172-1.17,0.339-1.756,0.505c-0.633,0.179-1.272,0.359-1.925,0.448
				c-1.352,0.183-2.649-0.205-3.92-0.625c-1.231-0.407-2.435-0.889-3.614-1.427c-2.388-1.089-4.673-2.385-6.93-3.72
				c-2.407-1.424-4.801-2.869-7.201-4.305c-0.309-0.185-0.619-0.37-0.929-0.556c-0.13-0.078-0.255-0.075-0.36-0.027
				c-0.02-0.007-0.039-0.014-0.062-0.018c-3.554-0.661-7.135-1.167-10.726-1.576c-3.575-0.406-7.161-0.715-10.749-0.988
				c-3.61-0.275-7.222-0.513-10.832-0.779c-3.59-0.264-7.178-0.554-10.757-0.932c-3.591-0.379-7.173-0.849-10.731-1.47
				c-0.439-0.077-0.877-0.156-1.314-0.237c-0.525-0.097-0.75,0.707-0.222,0.805c3.555,0.658,7.136,1.162,10.728,1.568
				c3.576,0.404,7.162,0.712,10.75,0.984c3.61,0.274,7.222,0.513,10.832,0.779c3.59,0.264,7.178,0.555,10.757,0.935
				c3.591,0.381,7.173,0.853,10.73,1.477c0.438,0.077,0.876,0.156,1.314,0.238c0.092,0.017,0.175,0.005,0.246-0.025
				c2.461,1.472,4.919,2.949,7.383,4.417c2.297,1.369,4.614,2.714,7.031,3.86c1.213,0.575,2.451,1.101,3.715,1.553
				c1.277,0.456,2.63,0.935,4,0.954c1.352,0.02,2.674-0.431,3.959-0.8c1.178-0.338,2.352-0.689,3.509-1.093
				c2.31-0.807,4.557-1.834,6.492-3.352c0.236-0.185,0.466-0.378,0.69-0.577c0.107-0.095,0.143-0.206,0.131-0.312
				c0.781-0.279,1.557-0.571,2.331-0.866c1.542-0.588,3.08-1.228,4.494-2.087c1.559-0.947,2.956-2.181,3.863-3.781
				c0.105-0.185,0.055-0.361-0.059-0.479c0.141-0.03,0.283-0.058,0.424-0.088c0.051-0.011,0.093-0.03,0.131-0.052
				c0.744,0.159,1.311-0.393,1.555-1.055C326.631,199.078,326.456,198.308,326.131,197.662z"/>
			<path style="fill:#0F0F0F;" d="M305.55,121.52c-0.007-0.536-0.842-0.538-0.834,0c0.061,4.387-0.026,8.777-0.262,13.158
				c-0.234,4.354-0.615,8.7-1.142,13.028c-0.297,2.44-0.642,4.874-1.033,7.301c-0.036,0.222,0.057,0.449,0.291,0.513
				c0.199,0.055,0.477-0.068,0.513-0.291c0.701-4.355,1.257-8.734,1.662-13.126c0.405-4.383,0.661-8.779,0.767-13.179
				C305.572,126.456,305.584,123.988,305.55,121.52z"/>
			<path style="fill:#0F0F0F;" d="M320.24,281.506c-2.804,3.2-5.928,6.111-9.29,8.718c-3.359,2.604-6.955,4.901-10.687,6.932
				c-3.755,2.043-7.655,3.815-11.641,5.357c-4.027,1.557-8.141,2.885-12.304,4.028c-2.288,0.628-4.595,1.22-6.917,1.744
				c-0.139-0.036-0.29,0.002-0.399,0.087c-2.109,0.468-4.229,0.881-6.359,1.206c-0.447,0.068-0.896,0.13-1.344,0.188
				c-0.017-0.031-0.036-0.062-0.059-0.09c-2.777-3.4-5.483-6.858-8.115-10.372c-2.632-3.515-5.191-7.084-7.675-10.706
				c-2.484-3.621-4.892-7.294-7.223-11.016c-2.331-3.721-4.584-7.491-6.758-11.307c-2.165-3.8-4.252-7.646-6.257-11.533
				c-0.253-0.49-0.504-0.98-0.754-1.471c-0.244-0.479-0.964-0.057-0.72,0.421c2.001,3.928,4.083,7.815,6.247,11.655
				c2.163,3.841,4.407,7.637,6.729,11.384c2.313,3.732,4.704,7.417,7.17,11.05c2.476,3.647,5.028,7.243,7.655,10.783
				c1.085,1.463,2.186,2.915,3.296,4.359c-3.88,0.2-7.781-0.051-11.603-0.748c-4.073-0.743-8.064-1.974-11.839-3.68
				c-2.135-0.965-4.202-2.078-6.182-3.331c-0.455-0.288-0.874,0.434-0.421,0.72c3.561,2.253,7.408,4.053,11.412,5.366
				c3.983,1.306,8.126,2.123,12.306,2.435c2.309,0.172,4.628,0.183,6.938,0.036c1.368,1.768,2.754,3.522,4.159,5.26
				c0.271,0.335,0.543,0.669,0.815,1.003c-0.065,0.069-0.106,0.158-0.107,0.27c-0.002,0.205,0.194,0.444,0.417,0.417
				c2.823-0.34,5.625-0.86,8.405-1.479c2.252,3.314,4.572,6.582,6.963,9.798c0.693,0.933,1.392,1.861,2.097,2.785
				c0.136,0.179,0.359,0.273,0.571,0.15c0.176-0.103,0.287-0.391,0.15-0.571c-2.507-3.288-4.943-6.63-7.304-10.024
				c-0.539-0.775-1.072-1.555-1.603-2.335c1.65-0.38,3.293-0.793,4.927-1.221c4.206-1.104,8.367-2.39,12.444-3.904
				c4.063-1.509,8.048-3.24,11.892-5.244c3.804-1.983,7.472-4.234,10.919-6.79c3.442-2.552,6.666-5.398,9.57-8.552
				c0.361-0.392,0.716-0.788,1.067-1.189C321.182,281.694,320.595,281.101,320.24,281.506z"/>
			<path style="fill:none;stroke:#0F0F0F;stroke-width:0.8344;stroke-miterlimit:10;" d="M321.628,195.672l3.752-18.006
				c0.072-0.347,0.048-0.692-0.053-1.009c0.217-2.63-0.295-4.403-1.326-6.965c-1.351-3.358-5.967-10.033-5.967-10.033l-3.37-0.702
				l-3.37-0.702c0,0-6.897,4.276-9.477,6.815c-1.957,1.926-3.133,3.342-3.983,5.814c-0.237,0.257-0.411,0.577-0.487,0.942
				l-0.87,4.175"/>
			<path style="fill:none;stroke:#0F0F0F;stroke-width:0.8344;stroke-miterlimit:10;" d="M289.278,210.55l-2.185,10.485
				c-0.001,0.005-0.001,0.01-0.002,0.016c-0.179,0.317-0.309,0.653-0.382,1.008c-0.784,3.761,4.93,8.132,12.762,9.764
				c7.832,1.632,14.816-0.094,15.599-3.855c0.074-0.354,0.09-0.714,0.052-1.077c0.001-0.005,0.003-0.01,0.004-0.015l4.508-21.634"/>
			<path style="fill:#0F0F0F;" d="M315.014,226.707c-0.057-0.207-0.299-0.365-0.513-0.291c-3.775,1.305-7.82,1.741-11.787,1.278
				c-3.646-0.425-7.19-1.656-10.34-3.533c-1.744-1.039-3.362-2.274-4.822-3.685c-0.386-0.373-0.977,0.216-0.59,0.59
				c2.69,2.599,5.909,4.62,9.409,5.935c3.687,1.385,7.68,1.935,11.605,1.622c2.297-0.183,4.569-0.65,6.747-1.403
				C314.935,227.147,315.076,226.934,315.014,226.707z"/>
			<path style="fill:#0F0F0F;" d="M316.352,220.876c-0.057-0.207-0.299-0.365-0.513-0.291c-3.775,1.305-7.82,1.741-11.788,1.278
				c-3.645-0.425-7.19-1.656-10.34-3.533c-1.744-1.039-3.362-2.274-4.822-3.685c-0.386-0.373-0.977,0.216-0.59,0.59
				c2.69,2.599,5.909,4.62,9.409,5.935c3.687,1.385,7.68,1.935,11.605,1.622c2.297-0.183,4.569-0.65,6.748-1.403
				C316.273,221.316,316.414,221.103,316.352,220.876z"/>
			<path style="fill:#0F0F0F;" d="M319.281,154.912c-0.25-0.186-0.541-0.299-0.826-0.416c-0.35-0.144-0.701-0.286-1.053-0.424
				c-1.399-0.547-2.844-1.017-4.351-1.127c-0.37-0.027-0.743-0.03-1.114-0.005c-0.368,0.026-0.763,0.05-1.097,0.223
				c-0.597,0.309-0.77,1.025-0.931,1.621c-0.211,0.783-0.382,1.655-0.102,2.443c0.235,0.664,0.728,1.245,1.433,1.417
				c0.203,0.049,0.359-0.042,0.445-0.18c0.034,0.022,0.071,0.041,0.113,0.053c0.204,0.056,0.471-0.069,0.513-0.291
				c0.271-1.436,0.542-2.871,0.813-4.307c0.008-0.044,0.009-0.088,0.006-0.131c0.553,0.047,1.1,0.149,1.639,0.286
				c-0.196,0.039-0.308,0.211-0.333,0.409c-0.168,1.335-0.336,2.669-0.504,4.004c-0.028,0.224,0.212,0.417,0.417,0.417
				c0.249,0,0.389-0.193,0.417-0.417c0.168-1.335,0.336-2.669,0.504-4.004c0.015-0.123-0.051-0.236-0.148-0.314
				c0.446,0.126,0.887,0.272,1.32,0.429c0.183,0.066,0.364,0.137,0.546,0.207c-0.005,0.021-0.009,0.043-0.012,0.065
				c-0.144,1.402-0.383,2.792-0.706,4.163c-0.123,0.522,0.681,0.745,0.805,0.222c0.321-1.363,0.553-2.745,0.706-4.138
				c0.138,0.056,0.276,0.111,0.414,0.167c0.425,0.174,0.834,0.348,0.911,0.846c0.051,0.324,0.025,0.677,0.012,1.003
				c-0.012,0.312-0.044,0.619-0.134,0.918c-0.131,0.434-0.469,0.951-0.961,1.016c-0.223,0.03-0.417,0.17-0.417,0.417
				c0,0.202,0.192,0.447,0.417,0.417c0.657-0.088,1.189-0.474,1.52-1.048c0.357-0.62,0.411-1.358,0.417-2.058
				C319.967,156.071,319.908,155.378,319.281,154.912z M311.533,157.865c-0.023-0.01-0.046-0.019-0.072-0.025
				c-1.102-0.269-1.031-1.679-0.827-2.527c0.068-0.283,0.143-0.568,0.233-0.845c0.061-0.189,0.14-0.407,0.303-0.533
				c0.18-0.138,0.473-0.138,0.689-0.155c0.15-0.012,0.299-0.019,0.449-0.022C312.05,155.128,311.792,156.497,311.533,157.865z"/>
			<path style="fill:#0F0F0F;" d="M302.81,154.75c-0.205-0.056-0.469,0.069-0.513,0.291c-0.565,2.861-1.131,5.723-1.696,8.584
				c-0.162,0.817-0.323,1.635-0.485,2.453c-0.044,0.221,0.063,0.45,0.291,0.513c0.205,0.056,0.469-0.069,0.513-0.291
				c0.565-2.861,1.131-5.723,1.696-8.584c0.162-0.818,0.323-1.635,0.485-2.453C303.145,155.042,303.039,154.813,302.81,154.75z"/>
			<path style="fill:#0F0F0F;" d="M364.923,189.105c-0.015-0.741-0.033-1.481-0.05-2.222c-0.034-1.5-0.068-2.999-0.101-4.499
				c-0.008-0.354-0.016-0.708-0.024-1.062c0.022-0.051,0.034-0.111,0.032-0.179c-0.131-3.998-1.14-7.952-2.947-11.521
				c-0.791-1.562-1.741-3.235-3.301-4.145c-1.781-1.038-3.887-0.653-5.798-0.278c-2.108,0.414-4.263,0.875-6.105,2.036
				c-0.049,0.031-0.086,0.068-0.116,0.107c-0.556,0.26-1.112,0.528-1.617,0.88c-0.564,0.393-1.019,0.874-1.422,1.428
				c-0.418,0.574-0.788,1.186-1.169,1.784c-0.396,0.621-0.789,1.244-1.179,1.868c-0.385,0.617-0.766,1.236-1.145,1.856
				c-0.539-0.042-1.084,0.115-1.544,0.442c-0.705,0.501-1.137,1.264-1.167,2.132c-0.033,0.952,0.4,1.862,1.01,2.57
				c0.067,0.079,0.139,0.153,0.211,0.225c-0.052,0.019-0.102,0.05-0.15,0.096c-1.295,1.256-1.197,3.36-0.24,4.78
				c0.118,0.175,0.247,0.341,0.382,0.499c-0.045,0.02-0.086,0.047-0.12,0.086c-1.096,1.25-0.989,3.056-0.229,4.451
				c0.497,0.912,1.271,1.583,2.151,2.095c-0.38,1.093-0.032,2.321,0.654,3.218c0.773,1.013,1.922,1.598,3.11,1.991
				c1.322,0.438,2.703,0.729,4.063,1.023c1.443,0.311,2.896,0.58,4.355,0.805c1.399,0.216,2.869,0.457,4.258,0.05
				c1.269-0.372,2.36-1.229,3.357-2.068c1.018-0.856,1.95-1.814,2.777-2.855c0.821-1.033,1.597-2.163,1.905-3.467
				C364.93,190.536,364.938,189.818,364.923,189.105z M364.093,189.779c-0.01,0.649-0.104,1.27-0.33,1.879
				c-0.212,0.571-0.527,1.104-0.869,1.606c-0.697,1.023-1.53,1.962-2.422,2.819c-0.892,0.856-1.868,1.692-2.952,2.297
				c-0.538,0.3-1.117,0.512-1.731,0.587c-0.664,0.08-1.34,0.035-2.001-0.043c-1.361-0.161-2.717-0.412-4.061-0.675
				c-1.38-0.27-2.753-0.579-4.116-0.928c-1.142-0.292-2.319-0.621-3.277-1.338c-0.795-0.596-1.404-1.56-1.374-2.579
				c0.005-0.164,0.033-0.323,0.076-0.479c0.408,0.189,0.828,0.352,1.246,0.493c0.912,0.31,1.848,0.547,2.777,0.8
				c1.03,0.281,2.06,0.561,3.09,0.842c1.024,0.279,2.049,0.598,3.101,0.755c0.977,0.146,1.946,0.124,2.911-0.095
				c2.09-0.475,3.916-1.718,5.649-2.923c0.185-0.128,0.27-0.365,0.15-0.571c-0.107-0.183-0.385-0.279-0.571-0.15
				c-1.452,1.01-2.949,2.047-4.641,2.611c-0.817,0.272-1.664,0.423-2.527,0.391c-0.975-0.037-1.924-0.299-2.861-0.554
				c-1.916-0.522-3.839-1.025-5.749-1.569c-1.542-0.439-3.211-0.997-4.292-2.251c-0.931-1.08-1.392-2.955-0.367-4.125
				c0.031-0.035,0.054-0.074,0.073-0.115c1.055,0.958,2.423,1.57,3.755,2.034c0.979,0.341,1.982,0.609,2.978,0.897
				c1.005,0.291,1.987,0.64,2.976,0.981c0.988,0.341,1.993,0.635,3.038,0.73c0.975,0.088,1.965-0.021,2.912-0.258
				c2.193-0.551,4.16-1.76,6.053-2.955c0.453-0.286,0.035-1.008-0.421-0.72c-1.586,1.001-3.208,2.011-4.994,2.617
				c-0.855,0.29-1.743,0.485-2.648,0.51c-0.973,0.027-1.915-0.16-2.842-0.441c-0.931-0.282-1.836-0.641-2.762-0.938
				c-0.94-0.301-1.896-0.552-2.842-0.835c-1.699-0.507-3.51-1.123-4.805-2.391c-0.612-0.6-1.087-1.357-1.196-2.22
				c-0.104-0.817,0.1-1.677,0.703-2.261c0.066-0.064,0.102-0.135,0.117-0.207c0.503,0.372,1.07,0.66,1.645,0.898
				c0.958,0.398,1.964,0.683,2.951,1c1.076,0.345,2.152,0.689,3.228,1.034c1.076,0.345,2.152,0.689,3.228,1.034
				c1.031,0.33,2.102,0.716,3.202,0.656c1.219-0.066,2.308-0.7,3.378-1.229c1.149-0.568,2.298-1.137,3.447-1.705
				c0.481-0.238,0.059-0.958-0.421-0.72c-0.939,0.464-1.878,0.929-2.817,1.393c-0.871,0.431-1.742,0.942-2.67,1.242
				c-0.952,0.308-1.879,0.171-2.822-0.104c-0.995-0.29-1.978-0.627-2.965-0.943c-1.988-0.637-3.976-1.271-5.963-1.91
				c-1.591-0.511-3.409-1.144-4.14-2.793c-0.318-0.716-0.339-1.594,0.188-2.216c0.335-0.396,0.856-0.693,1.362-0.673
				c0.111,0.092,0.267,0.134,0.408,0.092c0.009,0.004,0.019,0.007,0.029,0.012c0.204,0.096,0.45,0.057,0.571-0.15
				c0.001-0.002,0.002-0.005,0.003-0.008l7.407,1.845c0.645,0.161,1.29,0.322,1.936,0.482c0.625,0.156,1.257,0.353,1.902,0.404
				c0.632,0.05,1.212-0.148,1.751-0.465c0.532-0.313,1.046-0.66,1.566-0.992c1.265-0.807,2.53-1.614,3.795-2.421
				c0.451-0.288,0.033-1.01-0.421-0.72c-1.101,0.702-2.202,1.404-3.303,2.107c-0.416,0.265-0.831,0.53-1.247,0.796
				c-0.036-0.065-0.088-0.124-0.153-0.171c-1.369-1-2.739-2-4.109-2.999c0.178-0.286,0.352-0.575,0.514-0.871
				c0.258-0.471-0.462-0.893-0.72-0.421c-0.419,0.765-0.892,1.5-1.42,2.194c-0.246,0.323-0.506,0.638-0.779,0.939
				c-0.246,0.272-0.522,0.562-0.869,0.704c-0.078,0.032-0.147,0.079-0.2,0.137l-1.488-0.371c-1.348-0.336-2.697-0.672-4.045-1.008
				c0.594-0.966,1.193-1.928,1.801-2.885c0.376-0.592,0.747-1.187,1.138-1.769c0.345-0.514,0.73-1.007,1.228-1.384
				c0.575-0.436,1.24-0.741,1.891-1.045c0.065-0.031,0.113-0.082,0.147-0.143c1.526-0.918,3.268-1.353,4.999-1.707
				c0.904-0.185,1.815-0.386,2.735-0.475c0.916-0.088,1.879-0.071,2.737,0.299c1.527,0.657,2.445,2.195,3.191,3.6
				c0.886,1.668,1.587,3.43,2.098,5.248c0.575,2.044,0.902,4.15,0.975,6.272c-0.021,0.05-0.032,0.107-0.031,0.173l0.097,4.293
				C364.041,186.966,364.115,188.376,364.093,189.779z M349.556,174.476l4.01,2.927c-0.347,0.214-0.715,0.403-1.128,0.419
				c-0.59,0.022-1.177-0.18-1.743-0.321l-1.855-0.462l-1.205-0.3c0.513-0.392,0.923-0.926,1.317-1.433
				C349.163,175.035,349.362,174.757,349.556,174.476z"/>
			<path style="fill:#0F0F0F;" d="M346.373,163.275c-0.054-0.197-0.303-0.377-0.513-0.291c-2.793,1.141-5.311,2.916-7.302,5.186
				c-2.109,2.405-3.596,5.322-4.305,8.442c-0.41,1.802-0.567,3.663-0.452,5.508c0.033,0.533,0.868,0.537,0.834,0
				c-0.195-3.133,0.403-6.311,1.751-9.149c1.258-2.648,3.152-4.99,5.488-6.764c1.29-0.98,2.707-1.805,4.208-2.418
				C346.29,163.703,346.438,163.511,346.373,163.275z"/>
			<path style="fill:#0F0F0F;" d="M347.065,462.425c0.033-0.083,0.042-0.177,0.024-0.271c-0.58-2.979-1.769-5.838-3.433-8.375
				c-1.669-2.544-3.809-4.77-6.298-6.521c-1.324-0.931-2.745-1.689-4.219-2.353c-0.2-0.09-0.4-0.178-0.601-0.267
				c-0.065-0.06-0.145-0.092-0.229-0.1c-1.394-0.607-2.801-1.189-4.137-1.919c-3.094-1.689-5.536-4.26-7.869-6.853
				c-2.632-2.924-5.25-5.861-7.875-8.792l-1.002-1.118c-0.067-0.074-0.141-0.114-0.216-0.128l2.854-13.1
				c0.961-4.411,1.922-8.822,2.883-13.233c0.538-2.47,1.076-4.941,1.614-7.411c0.032-0.146-0.009-0.268-0.086-0.358
				c0.072-0.081,0.118-0.189,0.118-0.288c0-0.249-0.193-0.389-0.417-0.417c-5.305-0.677-10.597-1.454-15.873-2.327
				c-5.259-0.871-10.502-1.839-15.725-2.903c-2.946-0.6-5.887-1.232-8.82-1.893c-0.236-0.053-0.409,0.081-0.482,0.255
				c-0.179-0.02-0.356,0.066-0.397,0.299c-1.573,9.078-2.983,18.184-4.228,27.313c-1.237,9.074-2.315,18.171-3.227,27.283
				c-0.514,5.134-0.976,10.273-1.386,15.416c-0.011,0.138,0.037,0.24,0.114,0.306c0.022,0.136,0.113,0.255,0.293,0.292l32.323,6.619
				c5.348,1.095,10.693,2.208,16.046,3.281c4.991,1,10.045,1.996,15.148,2.137c2.404,0.067,4.821-0.073,7.185-0.531
				c1.188-0.23,2.36-0.544,3.499-0.953c1.087-0.39,2.187-0.84,3.157-1.475c0.459-0.301,0.887-0.648,1.264-1.046
				C347.247,462.808,347.201,462.573,347.065,462.425z M310.377,425.641c-0.06,0.276,0.136,0.467,0.351,0.511
				c-0.005,0.099,0.026,0.203,0.109,0.296c2.653,2.962,5.305,5.924,7.958,8.886c2.332,2.604,4.677,5.269,7.62,7.207
				c1.508,0.993,3.154,1.717,4.803,2.436c-2.792,1.404-5.161,3.634-6.755,6.32c-0.404,0.682-0.752,1.396-1.052,2.129
				c-2.767-1.533-5.534-3.066-8.3-4.599c-2.625-1.454-5.36-2.827-7.722-4.698c-1.115-0.883-2.131-1.887-3.001-3.014
				c-0.849-1.099-1.566-2.299-2.188-3.538c-1.296-2.581-2.161-5.345-2.982-8.104c-0.88-2.955-1.726-5.93-2.998-8.747
				c-0.112-0.249-0.229-0.495-0.349-0.741c2.269,0.35,4.549,0.62,6.841,0.769c2.911,0.189,5.837,0.175,8.741-0.122
				c0.006-0.001,0.012-0.002,0.018-0.003L310.377,425.641z M317.776,391.705c-0.007,0.019-0.014,0.037-0.019,0.059l-5.766,26.466
				l-0.35,1.609c-0.058-0.032-0.122-0.05-0.19-0.043c-0.547,0.056-1.094,0.101-1.641,0.137c0.599-3.687,1.228-7.369,1.889-11.045
				c0.677-3.766,1.387-7.525,2.129-11.279c0.413-2.088,0.836-4.173,1.269-6.257C315.99,391.472,316.883,391.591,317.776,391.705z
				 M309.211,390.52c1.685,0.25,3.372,0.489,5.06,0.719c-0.766,3.691-1.502,7.389-2.205,11.093
				c-0.714,3.759-1.395,7.524-2.043,11.295c-0.364,2.117-0.717,4.235-1.061,6.355c-2.642,0.128-5.289,0.041-7.924-0.196
				c0.601-3.891,1.233-7.778,1.896-11.66c0.661-3.87,1.352-7.734,2.074-11.593c0.404-2.157,0.817-4.312,1.239-6.465
				C307.234,390.223,308.222,390.373,309.211,390.52z M297.035,388.533c2.792,0.496,5.588,0.964,8.388,1.405
				c-0.748,3.813-1.466,7.631-2.154,11.454c-0.695,3.864-1.36,7.733-1.993,11.607c-0.358,2.188-0.706,4.379-1.045,6.57
				c-0.007,0.047-0.008,0.093-0.004,0.139c-1.401-0.142-2.799-0.324-4.189-0.539c-1.194-0.184-2.383-0.392-3.571-0.614
				c0.792-3.889,1.509-7.794,2.148-11.711c0.639-3.915,1.2-7.843,1.686-11.78C296.57,392.89,296.814,390.712,297.035,388.533z
				 M293.359,387.864c0.952,0.178,1.906,0.349,2.859,0.52c-0.001,0.009-0.004,0.018-0.005,0.027
				c-0.396,3.913-0.866,7.819-1.415,11.714c-0.55,3.905-1.177,7.799-1.879,11.679c-0.395,2.183-0.814,4.361-1.257,6.534
				c-0.004,0.021-0.006,0.041-0.007,0.062c-1.079-0.208-2.157-0.427-3.232-0.655c-1.218-0.259-2.437-0.519-3.652-0.797
				c0.548-3.909,1.089-7.82,1.623-11.731c0.54-3.95,1.073-7.902,1.599-11.854c0.283-2.124,0.563-4.248,0.842-6.373
				C290.342,387.29,291.85,387.582,293.359,387.864z M288.022,386.831c-0.508,3.872-1.023,7.744-1.544,11.614
				c-0.527,3.914-1.061,7.828-1.602,11.74c-0.303,2.192-0.608,4.383-0.915,6.575c-0.903-0.214-1.803-0.44-2.697-0.686
				c-1.073-0.295-2.139-0.623-3.187-0.999c0.038-0.044,0.066-0.096,0.077-0.155c0.674-3.818,1.31-7.643,1.908-11.474
				c0.598-3.831,1.159-7.668,1.681-11.51c0.282-2.077,0.553-4.155,0.814-6.234C284.377,386.089,286.198,386.465,288.022,386.831z
				 M275.195,399.852c0.775-5.081,1.602-10.153,2.479-15.217c1.355,0.305,2.712,0.603,4.07,0.895
				c-0.474,3.788-0.984,7.571-1.532,11.349c-0.55,3.796-1.138,7.587-1.762,11.372c-0.355,2.151-0.722,4.3-1.101,6.447
				c-0.006,0.035-0.008,0.07-0.007,0.104c-1.215-0.468-2.402-1.006-3.543-1.643c-0.214-0.12-0.417-0.034-0.531,0.119
				C273.871,408.796,274.513,404.321,275.195,399.852z M273.211,413.707c0.032,0.066,0.086,0.126,0.167,0.172
				c4.278,2.388,9.123,3.44,13.867,4.467c2.559,0.554,5.131,1.072,7.717,1.495c-0.015,0.083-0.006,0.173,0.041,0.266
				c1.382,2.769,2.269,5.744,3.145,8.701c0.837,2.824,1.681,5.655,2.918,8.336c1.192,2.583,2.777,5.003,4.92,6.897
				c2.253,1.991,4.924,3.413,7.539,4.862c2.931,1.624,5.863,3.248,8.794,4.873c0.363,0.201,0.727,0.403,1.09,0.604
				c0.252,0.14,0.518,0.004,0.613-0.249c1.139-3.045,3.287-5.707,5.995-7.499c0.702-0.464,1.441-0.868,2.207-1.214
				c1.227,0.543,2.44,1.112,3.584,1.818c2.517,1.553,4.725,3.618,6.466,6.008c1.003,1.378,1.858,2.862,2.54,4.421
				c-3.18,2.776-7.503,3.698-11.631,3.731c-5.112,0.04-10.19-1.173-15.172-2.183c-5.261-1.067-10.508-2.204-15.738-3.412
				c-2.608-0.602-5.212-1.222-7.812-1.86c-0.001-0.011-0.001-0.022-0.002-0.034c-0.341-2.479-0.942-4.919-1.782-7.276
				c-0.845-2.371-1.921-4.66-3.206-6.824c-1.281-2.156-2.769-4.192-4.431-6.07c-1.669-1.887-3.52-3.604-5.52-5.136
				c-1.985-1.521-4.122-2.845-6.376-3.93c-0.279-0.134-0.559-0.264-0.841-0.392c-0.143-0.065-0.305-0.066-0.431,0.009
				C272.293,420.757,272.74,417.23,273.211,413.707z M271.551,426.996c0.08-0.687,0.162-1.373,0.243-2.06
				c0.025,0.025,0.053,0.047,0.086,0.062c2.253,1.015,4.398,2.264,6.4,3.713c1.997,1.446,3.846,3.098,5.524,4.904
				c1.674,1.801,3.174,3.76,4.478,5.845c1.307,2.09,2.422,4.305,3.3,6.608c0.88,2.308,1.534,4.703,1.932,7.141
				c0.028,0.171,0.052,0.342,0.077,0.514c-2.323-0.573-4.644-1.158-6.96-1.76c-1.16-0.301-2.32-0.617-3.48-0.932
				c0.075-0.067,0.124-0.166,0.122-0.298c-0.048-3.52-0.897-6.981-2.303-10.198c-1.363-3.119-3.269-5.976-5.476-8.559
				c-1.234-1.444-2.566-2.8-3.966-4.082c-0.024-0.022-0.048-0.04-0.073-0.055C271.488,427.558,271.518,427.277,271.551,426.996z
				 M271.341,428.861c2.275,2.128,4.368,4.46,6.113,7.045c1.892,2.803,3.37,5.885,4.215,9.166c0.477,1.852,0.745,3.75,0.77,5.662
				c0.001,0.04,0.007,0.075,0.016,0.109c-3.7-1.002-7.417-1.974-11.218-2.448c-0.614-0.077-1.23-0.136-1.847-0.183
				C269.957,441.754,270.61,435.303,271.341,428.861z M343.672,464.22c-1.1,0.48-2.247,0.856-3.41,1.149
				c-2.325,0.584-4.723,0.81-7.117,0.814c-4.992,0.007-9.94-0.91-14.821-1.868c-5.301-1.04-10.587-2.155-15.879-3.238
				c-5.285-1.082-10.57-2.165-15.855-3.247c-5.311-1.087-10.621-2.175-15.932-3.262c-0.591-0.121-1.182-0.242-1.773-0.363
				c0.138-1.721,0.283-3.442,0.433-5.163c5.311,0.39,10.444,1.985,15.57,3.33c5.265,1.381,10.548,2.691,15.849,3.928
				c5.276,1.231,10.569,2.391,15.877,3.478c2.664,0.546,5.33,1.094,8.008,1.569c2.49,0.441,5.008,0.809,7.54,0.874
				c4.213,0.107,8.709-0.602,12.194-3.127c0.272-0.197,0.534-0.407,0.791-0.622c0.362,0.922,0.665,1.866,0.902,2.83
				c0.088,0.357,0.166,0.716,0.236,1.076c0.011,0.057,0.037,0.107,0.072,0.149C345.595,463.28,344.651,463.793,343.672,464.22z"/>
			<path style="fill:#0F0F0F;" d="M124.549,382.095c0.087,0.019,0.181,0.013,0.271-0.02c2.847-1.052,5.478-2.684,7.714-4.734
				c2.243-2.057,4.095-4.526,5.423-7.265c0.706-1.457,1.225-2.98,1.644-4.542c0.057-0.212,0.112-0.424,0.167-0.636
				c0.049-0.074,0.068-0.158,0.062-0.242c0.375-1.474,0.724-2.956,1.229-4.392c1.17-3.325,3.315-6.148,5.499-8.868
				c2.463-3.068,4.941-6.124,7.412-9.186l0.943-1.168c0.063-0.078,0.09-0.158,0.092-0.234l13.388,0.711
				c4.508,0.239,9.016,0.479,13.525,0.718c2.525,0.134,5.049,0.268,7.574,0.402c0.15,0.008,0.263-0.052,0.339-0.142
				c0.092,0.058,0.205,0.086,0.303,0.07c0.246-0.04,0.353-0.253,0.345-0.479c-0.184-5.345-0.269-10.693-0.254-16.041
				c0.014-5.331,0.127-10.661,0.338-15.987c0.119-3.005,0.269-6.008,0.451-9.009c0.015-0.241-0.146-0.391-0.33-0.435
				c-0.009-0.18-0.123-0.341-0.358-0.343c-9.213-0.093-18.427-0.022-27.637,0.217c-9.155,0.237-18.306,0.636-27.447,1.201
				c-5.15,0.318-10.296,0.688-15.438,1.11c-0.138,0.011-0.231,0.075-0.284,0.162c-0.131,0.044-0.234,0.152-0.241,0.337
				l-1.337,32.967c-0.221,5.455-0.461,10.909-0.659,16.365c-0.185,5.087-0.356,10.235,0.326,15.295
				c0.321,2.384,0.848,4.747,1.679,7.006c0.418,1.135,0.916,2.242,1.503,3.301c0.56,1.01,1.18,2.024,1.963,2.879
				c0.371,0.405,0.782,0.771,1.236,1.08C124.2,382.336,124.424,382.253,124.549,382.095z M154.957,339.971
				c-0.282-0.015-0.439,0.209-0.448,0.428c-0.099,0.011-0.196,0.058-0.274,0.155c-2.497,3.094-4.994,6.188-7.491,9.283
				c-2.195,2.72-4.449,5.464-5.888,8.679c-0.738,1.648-1.188,3.389-1.632,5.132c-1.835-2.53-4.417-4.51-7.324-5.651
				c-0.738-0.29-1.498-0.518-2.271-0.696c1.068-2.977,2.137-5.954,3.205-8.932c1.014-2.824,1.928-5.745,3.396-8.377
				c0.693-1.243,1.519-2.407,2.492-3.447c0.949-1.014,2.017-1.915,3.14-2.729c2.339-1.694,4.928-2.992,7.52-4.246
				c2.775-1.343,5.576-2.657,8.151-4.365c0.228-0.151,0.452-0.306,0.675-0.463c0.02,2.296,0.12,4.59,0.341,6.876
				c0.281,2.904,0.766,5.789,1.526,8.607c0.002,0.006,0.004,0.012,0.006,0.017L154.957,339.971z M189.641,341.819
				c-0.02-0.004-0.039-0.008-0.061-0.009l-27.049-1.436l-1.644-0.087c0.022-0.062,0.03-0.128,0.012-0.194
				c-0.143-0.53-0.275-1.063-0.399-1.598c3.735-0.001,7.471,0.028,11.205,0.089c3.826,0.063,7.651,0.159,11.475,0.288
				c2.127,0.072,4.253,0.155,6.379,0.247C189.584,340.019,189.61,340.919,189.641,341.819z M189.433,333.175
				c0.024,1.703,0.059,3.406,0.103,5.109c-3.766-0.163-7.534-0.295-11.303-0.393c-3.825-0.1-7.65-0.167-11.476-0.201
				c-2.148-0.019-4.295-0.027-6.443-0.026c-0.551-2.587-0.891-5.214-1.081-7.853c3.938-0.032,7.875-0.033,11.813-0.003
				c3.925,0.03,7.851,0.091,11.775,0.184c2.194,0.052,4.387,0.113,6.58,0.184C189.409,331.176,189.42,332.175,189.433,333.175z
				 M189.438,320.838c-0.041,2.835-0.053,5.67-0.039,8.505c-3.883-0.125-7.767-0.22-11.652-0.285
				c-3.925-0.065-7.851-0.099-11.776-0.102c-2.218-0.002-4.435,0.007-6.653,0.025c-0.047,0-0.093,0.007-0.138,0.019
				c-0.085-1.406-0.13-2.814-0.142-4.221c-0.01-1.208,0.004-2.415,0.032-3.623c3.966,0.157,7.935,0.236,11.904,0.237
				c3.967,0.001,7.934-0.076,11.898-0.229C185.062,321.079,187.251,320.97,189.438,320.838z M189.507,317.102
				c-0.022,0.969-0.038,1.937-0.054,2.906c-0.009,0-0.018-0.001-0.028,0c-3.926,0.238-7.857,0.402-11.789,0.487
				c-3.942,0.085-7.886,0.092-11.829,0.022c-2.218-0.039-4.435-0.103-6.651-0.19c-0.021-0.001-0.042,0.001-0.062,0.003
				c0.032-1.099,0.074-2.197,0.127-3.295c0.06-1.244,0.12-2.489,0.2-3.733c3.947-0.088,7.893-0.182,11.839-0.284
				c3.986-0.102,7.971-0.211,11.957-0.327c2.142-0.062,4.283-0.127,6.425-0.193C189.589,314.032,189.543,315.567,189.507,317.102z
				 M189.669,311.668c-3.904,0.121-7.807,0.236-11.711,0.343c-3.948,0.109-7.897,0.211-11.845,0.306
				c-2.212,0.053-4.424,0.105-6.636,0.154c0.066-0.926,0.145-1.85,0.244-2.772c0.119-1.107,0.271-2.212,0.474-3.306
				c0.049,0.031,0.105,0.05,0.166,0.051c3.877,0.051,7.755,0.064,11.632,0.039c3.877-0.026,7.754-0.089,11.63-0.191
				c2.095-0.055,4.19-0.122,6.284-0.199C189.815,307.951,189.736,309.81,189.669,311.668z M174.755,301.101
				c5.139-0.051,10.279-0.051,15.418,0.001c-0.083,1.387-0.159,2.774-0.229,4.161c-3.815,0.141-7.631,0.246-11.447,0.313
				c-3.835,0.067-7.671,0.096-11.507,0.089c-2.18-0.005-4.36-0.021-6.54-0.05c-0.035,0-0.07,0.004-0.104,0.01
				c0.266-1.275,0.607-2.533,1.052-3.761c0.084-0.23-0.033-0.417-0.202-0.505C165.714,301.232,170.235,301.146,174.755,301.101z
				 M160.761,301.371c-0.06,0.042-0.111,0.105-0.143,0.193c-1.669,4.606-1.929,9.557-2.179,14.405
				c-0.135,2.614-0.234,5.236-0.235,7.857c-0.084-0.002-0.172,0.022-0.256,0.083c-2.511,1.809-5.304,3.162-8.083,4.503
				c-2.653,1.28-5.311,2.568-7.758,4.22c-2.358,1.592-4.491,3.545-6.016,5.965c-1.603,2.544-2.577,5.409-3.587,8.222
				c-1.132,3.154-2.264,6.309-3.396,9.463c-0.14,0.391-0.281,0.782-0.421,1.173c-0.097,0.271,0.079,0.512,0.345,0.565
				c3.188,0.635,6.161,2.327,8.365,4.711c0.571,0.618,1.088,1.283,1.553,1.983c-0.338,1.298-0.705,2.587-1.218,3.829
				c-1.129,2.734-2.811,5.245-4.89,7.347c-1.199,1.212-2.526,2.294-3.955,3.217c-3.251-2.692-4.856-6.811-5.552-10.88
				c-0.861-5.039-0.48-10.246-0.284-15.325c0.207-5.364,0.486-10.725,0.838-16.082c0.175-2.671,0.369-5.341,0.58-8.01
				c0.011-0.003,0.022-0.005,0.033-0.008c2.392-0.735,4.704-1.72,6.895-2.928c2.204-1.215,4.291-2.645,6.22-4.262
				c1.922-1.611,3.692-3.407,5.279-5.349c1.594-1.951,2.991-4.054,4.182-6.274c1.182-2.204,2.145-4.526,2.854-6.924
				c0.088-0.297,0.171-0.594,0.251-0.893c0.041-0.152,0.016-0.311-0.078-0.424C153.655,301.598,157.208,301.471,160.761,301.371z
				 M147.378,301.867c0.691-0.032,1.381-0.061,2.072-0.091c-0.02,0.029-0.037,0.06-0.047,0.095c-0.64,2.387-1.527,4.705-2.636,6.913
				c-1.106,2.204-2.44,4.294-3.952,6.241c-1.509,1.942-3.201,3.737-5.05,5.359c-1.853,1.626-3.859,3.082-5.992,4.32
				c-2.136,1.24-4.395,2.27-6.737,3.055c-0.164,0.055-0.329,0.106-0.494,0.159c0.192-2.385,0.397-4.77,0.618-7.153
				c0.111-1.194,0.236-2.389,0.36-3.585c0.078,0.063,0.184,0.096,0.314,0.073c3.467-0.613,6.746-2.007,9.696-3.912
				c2.859-1.847,5.373-4.187,7.568-6.781c1.226-1.45,2.351-2.983,3.392-4.57c0.018-0.027,0.031-0.054,0.042-0.081
				C146.813,301.896,147.096,301.88,147.378,301.867z M145.504,301.96c-1.734,2.588-3.7,5.029-5.971,7.166
				c-2.463,2.318-5.267,4.272-8.369,5.634c-1.751,0.769-3.581,1.337-5.465,1.67c-0.039,0.007-0.073,0.019-0.105,0.033
				c0.395-3.813,0.756-7.638,0.613-11.466c-0.023-0.618-0.063-1.236-0.117-1.852C132.556,302.667,139.028,302.274,145.504,301.96z
				 M122.232,379.035c-0.651-1.008-1.206-2.08-1.682-3.181c-0.95-2.201-1.559-4.531-1.947-6.893c-0.81-4.926-0.7-9.957-0.539-14.928
				c0.175-5.399,0.425-10.796,0.644-16.193c0.219-5.39,0.437-10.781,0.656-16.171c0.22-5.416,0.439-10.833,0.659-16.249
				c0.024-0.603,0.049-1.206,0.073-1.808c1.721-0.141,3.443-0.274,5.165-0.403c0.469,5.305-0.28,10.628-0.784,15.903
				c-0.517,5.418-0.96,10.844-1.329,16.274c-0.367,5.405-0.66,10.816-0.88,16.23c-0.11,2.717-0.223,5.437-0.261,8.156
				c-0.035,2.528,0.006,5.073,0.35,7.582c0.571,4.176,1.994,8.499,5.047,11.533c0.238,0.237,0.487,0.461,0.741,0.681
				c-0.851,0.505-1.735,0.956-2.648,1.345c-0.338,0.144-0.68,0.279-1.024,0.406c-0.054,0.02-0.099,0.053-0.136,0.095
				C123.469,380.781,122.81,379.932,122.232,379.035z"/>
			<polygon style="fill:#0F0F0F;" points="244.901,161.739 266.869,136.022 268.171,120.645 257.637,139.503 			"/>
			<polygon style="fill:#0F0F0F;" points="275.95,203.522 219.801,204.127 222.525,197.771 272.469,202.16 			"/>
			<path style="fill:#0F0F0F;" d="M241.141,161.145c0,0-13.47-2.422-21.188-3.935c-7.719-1.513-17.859-5.146-17.859-5.146
				l4.843-8.627c0,0,5.751,4.54,10.291,8.021C221.769,154.94,241.141,161.145,241.141,161.145z"/>
			<path style="fill:#0F0F0F;" d="M274.033,315.194c0,0,30.632-12.208,42.619-29.3c0,0-18.59,18.257-48.723,22.752L274.033,315.194z
				"/>
		</g>
	</g>
</g>
</svg>
