<?xml version="1.0" encoding="utf-8"?>
<!-- Generator: Adobe Illustrator 27.5.0, SVG Export Plug-In . SVG Version: 6.00 Build 0)  -->
<svg version="1.1" id="Capa_2" xmlns="http://www.w3.org/2000/svg" xmlns:xlink="http://www.w3.org/1999/xlink" x="0px" y="0px"
	 viewBox="0 0 2122 2122" style="enable-background:new 0 0 2122 2122;" xml:space="preserve">
<g>
	<g>
		<path style="fill:#A44668;" d="M1337.547,1452.686v163.669h251.532c0-52.741-40.538-96.011-92.155-100.358
			c-0.025-0.002-0.05-0.004-0.074-0.006c-0.356-0.03-0.712-0.058-1.07-0.084c-0.382-0.028-0.763-0.054-1.146-0.078
			c-0.034-0.002-0.07-0.004-0.106-0.006c-0.374-0.023-0.748-0.043-1.123-0.063c-0.093-0.004-0.187-0.008-0.279-0.012
			c-0.323-0.015-0.645-0.029-0.967-0.041c-0.181-0.006-0.361-0.011-0.542-0.017c-0.231-0.007-0.462-0.016-0.695-0.021
			c-0.33-0.008-0.661-0.014-0.992-0.019c-0.094-0.001-0.188-0.004-0.282-0.005c-0.428-0.005-0.858-0.008-1.289-0.008
			c-12.021,0-21.766-9.745-21.766-21.766v-41.184h-15.134v-278.267c0-27.072-22.945-50.081-50.081-50.081h-119.037
			c-12.473-35.511-29.976-58.567-45-55.871c-18.801,3.373-37.001,7.453-54.423,12.128c0.027-0.19,0.043-0.379,0.043-0.569
			c0,0,0,0,0,0c-0.001-223.272-45.67-285.041-108.742-300.547l-2.888-15.01c0.002-0.001,0.003-0.001,0.005-0.002l-6.781-35.251
			c4.158-0.829,8.238-2.116,12.197-3.888c23.573-10.553,37.215-35.741,38.544-65.272l10.577-8.699
			c5.502-4.526,6.505-12.564,2.283-18.303l-35.9-48.801c-2.005-2.84-4.106-5.558-6.289-8.149c4.266-7.423,6.723-16.137,6.723-25.459
			c0-27.1-20.76-49.069-46.367-49.069c-23.583,0-43.053,18.633-45.985,42.747c-10.477,3.581-16.995,8.252-16.995,8.252
			c-22.234,15.769-31.253,34.35-32.948,52.68c-26.877-14.738-57.734-23.122-90.549-23.122c-104.163,0-188.603,84.44-188.603,188.602
			c0,104.162,84.44,188.602,188.603,188.602h0.002c0.002,18.654,0.022,37.307,0.088,55.961c0.051,14.339,3.726,28.479,10.359,40.93
			c-0.12,7.722-0.182,15.65-0.182,23.796c0,4.108,6.491,7.981,17.957,11.38c-0.164,2.704-0.249,5.428-0.249,8.173
			c0,4.149,0.193,8.252,0.565,12.303c-21.537,55.018-33.478,132.844-30.454,218.66c0.588,16.662,28.927,30.067,69.443,35.376
			v124.093c-12.865-4.098-25.728-8.196-38.594-12.294c-45.895-14.618-91.79-29.238-137.685-43.856l5.066-17.446l-157.178-45.636
			l-70.135,241.556c50.643,14.704,103.496-12.153,122.068-60.5c0.014-0.038,0.029-0.077,0.043-0.115
			c0.259-0.677,0.512-1.356,0.758-2.042c0.021-0.059,0.042-0.118,0.062-0.177c0.118-0.332,0.235-0.663,0.35-0.996
			c0.031-0.087,0.059-0.175,0.089-0.262c0.104-0.305,0.208-0.611,0.31-0.918c0.05-0.153,0.099-0.308,0.15-0.462
			c0.079-0.242,0.158-0.484,0.235-0.727c0.066-0.206,0.128-0.413,0.194-0.619c0.062-0.202,0.126-0.404,0.186-0.606
			c0.124-0.404,0.244-0.809,0.362-1.217c3.352-11.544,15.428-18.185,26.972-14.833l39.551,11.484l2.994-10.312
			c13.851,4.412,27.701,8.824,41.552,13.236c54.127,17.242,108.255,34.482,162.381,51.724c12.345,3.932,24.69,7.864,37.034,11.797
			c31.248,9.953,63.395-16.814,63.395-48.292v-195.674c41.488-7.998,70.042-23.674,69.442-40.703
			c-0.412-11.685-1.091-23.203-2.019-34.517c0.684-0.102,1.368-0.208,2.052-0.319c0.494-0.081,0.901-0.245,1.227-0.47
			c49.244,7.772,111.346,6.671,177.346-5.17c13.535-2.429,21.692-25.15,22.701-57.143h53.01v228.186H1337.547z"/>
		<path style="fill:#FAB85C;" d="M598.986,1370.778l-70.135,241.556c30.414,8.83,61.57,2.589,85.673-14.212
			c0.159-0.111,0.322-0.216,0.48-0.328c2.089-1.474,4.112-3.035,6.087-4.667c0.337-0.279,0.677-0.553,1.012-0.836
			c1.788-1.516,3.514-3.098,5.197-4.741c0.499-0.487,0.995-0.975,1.486-1.473c1.491-1.518,2.934-3.08,4.331-4.696
			c0.629-0.726,1.241-1.465,1.851-2.21c1.21-1.484,2.387-2.991,3.515-4.551c0.717-0.987,1.399-2.001,2.081-3.017
			c0.955-1.425,1.894-2.858,2.78-4.341c0.749-1.252,1.444-2.543,2.143-3.835c0.732-1.359,1.467-2.713,2.14-4.113
			c0.724-1.502,1.371-3.051,2.024-4.599c0.408-0.971,0.887-1.893,1.268-2.882c0.014-0.038,0.028-0.077,0.043-0.115
			c0.259-0.677,0.512-1.356,0.758-2.042c0.021-0.059,0.042-0.118,0.062-0.177c0.118-0.332,0.235-0.663,0.35-0.996
			c0.031-0.087,0.059-0.175,0.089-0.262c0.104-0.305,0.208-0.611,0.31-0.918c0.05-0.153,0.099-0.308,0.15-0.462
			c0.079-0.242,0.158-0.484,0.235-0.727c0.066-0.206,0.128-0.413,0.194-0.619c0.062-0.202,0.126-0.404,0.186-0.606
			c0.124-0.404,0.243-0.809,0.362-1.217c3.352-11.544,15.428-18.185,26.972-14.833l39.551,11.484l2.994-10.312l27.922-96.171
			l5.066-17.446L598.986,1370.778z"/>
		<path style="fill:#FAB85C;" d="M1557.723,1543.47h0.025c-0.081-0.077-0.172-0.144-0.253-0.221
			c-1.876-1.775-3.819-3.47-5.828-5.098c-0.282-0.229-0.565-0.457-0.85-0.682c-1.947-1.544-3.944-3.016-6.004-4.415
			c-0.425-0.289-0.857-0.568-1.287-0.851c-1.965-1.291-3.962-2.526-6.02-3.68c-0.615-0.346-1.243-0.666-1.866-0.999
			c-1.933-1.031-3.882-2.028-5.887-2.934c-0.852-0.386-1.726-0.724-2.591-1.087c-1.85-0.774-3.699-1.541-5.603-2.206
			c-1.146-0.402-2.324-0.727-3.489-1.089c-1.696-0.524-3.378-1.071-5.111-1.507c-1.592-0.402-3.224-0.69-4.845-1.015
			c-1.381-0.275-2.741-0.61-4.144-0.828c-3.069-0.481-6.181-0.835-9.337-1.03c-0.034-0.002-0.07-0.004-0.106-0.006
			c-0.374-0.023-0.748-0.043-1.122-0.063c-0.094-0.004-0.188-0.008-0.28-0.012c-0.323-0.015-0.645-0.029-0.968-0.041
			c-0.181-0.006-0.36-0.011-0.541-0.017c-0.231-0.007-0.462-0.016-0.695-0.021c-0.33-0.008-0.66-0.014-0.992-0.019
			c-0.094-0.001-0.188-0.004-0.282-0.005c-0.427-0.005-0.858-0.008-1.289-0.008c-12.021,0-21.766-9.745-21.766-21.766v-41.184
			h-129.046v163.669h251.533C1589.08,1587.645,1576.996,1561.817,1557.723,1543.47z"/>
		<path style="fill:#29235C;" d="M944.45,939.341c2.11-1.061,4.197-2.16,6.26-3.296c30.798-16.965,56.346-42.283,73.589-72.906
			c14.65-26.015,23.305-55.856,24.091-87.65c0.039-1.58,0.06-3.164,0.06-4.753c0-1.815-0.028-3.623-0.079-5.426
			c-0.344-12.184-1.844-24.078-4.394-35.578c-5.869-26.466-17.293-50.841-32.992-71.835c-4.534-6.064-9.424-11.844-14.64-17.312
			c-1.853-1.942-3.749-3.844-5.682-5.706c-12.005-11.561-25.537-21.546-40.266-29.623c-26.877-14.738-57.734-23.122-90.549-23.122
			c-104.163,0-188.603,84.44-188.603,188.602c0,104.162,84.44,188.602,188.603,188.602h0.002
			C890.27,959.338,919.006,952.133,944.45,939.341z"/>
		<path style="fill:#FFEAC5;" d="M1293.77,1168.362c-2.859-15.938-6.797-30.839-11.428-44.024
			c-12.472-35.511-29.976-58.567-45-55.871c-18.8,3.373-37,7.453-54.423,12.128c0.027-0.19,0.043-0.379,0.043-0.569c0,0,0,0,0,0
			c-0.001-223.272-45.67-285.041-108.742-300.547c-8.328-2.047-16.96-3.289-25.829-3.989c-0.786,31.794-9.442,61.635-24.091,87.65
			v74.139c0,26.63,0.514,53.312,0,79.937c-0.443,22.99-9.795,46.439-27.753,61.365c-20.936,17.398-46.248,24.082-72.971,18.644
			c-23.716-4.825-42.443-20.656-53.278-40.994c-0.12,7.722-0.182,15.65-0.182,23.796c0,4.108,6.491,7.981,17.957,11.38
			c-0.164,2.704-0.249,5.428-0.249,8.173c0,4.149,0.193,8.252,0.565,12.303c-21.537,55.018-33.478,132.844-30.454,218.66
			c0.588,16.662,28.927,30.067,69.443,35.376c15.665,2.052,33.15,2.895,51.555,2.246c17.358-0.612,33.806-2.489,48.607-5.342
			c41.488-7.998,70.042-23.674,69.442-40.703c-0.412-11.685-1.091-23.203-2.019-34.517c0.684-0.102,1.368-0.208,2.052-0.319
			c0.494-0.081,0.901-0.245,1.227-0.47c49.244,7.772,111.346,6.671,177.345-5.17c13.536-2.429,21.692-25.15,22.702-57.143
			C1298.815,1207.792,1297.393,1188.556,1293.77,1168.362z"/>
		<path style="fill:#8A214C;" d="M1043.977,729.732c2.55,11.5,4.05,23.394,4.394,35.578c3.188,0.712,6.501,1.092,9.903,1.092
			c4.543,0,8.922-0.687,13.058-1.934c0.002-0.001,0.003-0.001,0.005-0.002l-6.781-35.251
			C1057.838,730.554,1050.916,730.692,1043.977,729.732z"/>
		<path style="fill:#4C190D;" d="M1080.358,620.055c1.721,0,3.118-2.26,3.118-5.048c0-2.789-1.396-5.049-3.118-5.049
			c-1.722,0-3.118,2.261-3.118,5.049S1078.635,620.055,1080.358,620.055z"/>
		<path style="fill:#702819;" d="M1000.301,643.243c-1.41-0.814-2.731-1.706-3.956-2.659c5.216,5.468,10.106,11.249,14.64,17.312
			c1.143-3.157,2.149-6.594,2.964-10.337C1009.564,647.272,1004.814,645.849,1000.301,643.243z"/>
		<path style="fill:#702819;" d="M990.663,634.878c-4.537-5.988-5.909-12.856-2.905-18.059c4.588-7.945,17.641-8.997,29.156-2.35
			c2.386,1.378,4.519,2.98,6.361,4.723c41.727-4.93,60.211-38.33,62.439-42.655c0.085-0.144,0.173-0.288,0.255-0.434
			c4.266-7.423,6.723-16.137,6.723-25.459c0-27.1-20.76-49.069-46.367-49.069c-23.583,0-43.053,18.633-45.985,42.747
			c-10.477,3.581-16.995,8.252-16.995,8.252c-22.234,15.769-31.253,34.35-32.948,52.68
			C965.126,613.332,978.659,623.317,990.663,634.878z"/>
		<path style="fill:#702819;" d="M1024.474,637.766c1.548-0.906,1.87-2.76,1.123-4.283c-2.247-4.58-5.632-8.413-9.703-11.247
			c-0.247-0.226-0.523-0.414-0.824-0.553c-5.096-3.308-11.175-5.092-17.409-4.885c-4.017,0.133-4.036,6.394,0,6.26
			c3.132-0.104,6.159,0.387,8.966,1.389c-2.863,1.828-5.412,4.195-7.507,6.794c-0.539,0.669-0.917,1.321-0.917,2.214
			c0,0.768,0.341,1.685,0.917,2.213c1.139,1.046,3.329,1.362,4.427,0c1.405-1.744,3.003-3.339,4.751-4.741
			c-0.008,0.003-0.014,0.007-0.022,0.01l0.102-0.076c0.005-0.003,0.008-0.007,0.013-0.011c0.017-0.014,0.035-0.027,0.053-0.039
			l0.211-0.157l0.863-0.606c0.568-0.382,1.15-0.74,1.748-1.073c0.579-0.322,1.193-0.572,1.779-0.879l0.155-0.057
			c2.893,2.236,5.298,5.15,6.992,8.602C1020.936,638.16,1023.091,638.575,1024.474,637.766z"/>
		<path style="fill:#FFFFFF;" d="M1065.829,675.977c-2.319-0.458-4.354,1.535-4.002,3.872c0.738,4.898,3.81,11.801,15.241,11.923
			c7.938,0.085,12.586-4.526,15.096-8.428c1.444-2.246-0.252-5.194-2.923-5.19C1078.813,678.165,1070.488,676.897,1065.829,675.977z
			"/>
		<path style="fill:#FFEAC5;" d="M1438.219,1507.509c0,19.861,16.1,35.962,35.961,35.962h83.567
			c-16.656-15.861-38.684-26.131-63.114-27.642c-0.034-0.002-0.07-0.004-0.106-0.006c-0.374-0.023-0.748-0.043-1.123-0.063
			c-0.093-0.004-0.187-0.008-0.279-0.012c-0.323-0.015-0.645-0.029-0.967-0.041c-0.181-0.006-0.361-0.011-0.542-0.017
			c-0.231-0.007-0.462-0.016-0.695-0.021c-0.33-0.008-0.661-0.014-0.992-0.019c-0.094-0.001-0.188-0.004-0.282-0.005
			c-0.428-0.005-0.858-0.008-1.289-0.008c-12.021,0-21.766-9.745-21.766-21.766v-41.184h-28.375V1507.509z"/>
		<path style="fill:#FFEAC5;" d="M1404.335,1574.718c0-8.959-7.264-16.223-16.224-16.223c-8.96,0-16.223,7.264-16.223,16.223
			c0,8.96,7.263,16.223,16.223,16.223C1397.071,1590.941,1404.335,1583.678,1404.335,1574.718z"/>
		<path style="fill:#FFEAC5;" d="M728.094,1513.093l-52.648-15.287c-19.074-5.538-39.025,5.435-44.564,24.509l-23.301,80.253
			c19.872-11.571,35.876-29.858,44.14-52.891c0.021-0.059,0.042-0.119,0.062-0.177c0.118-0.332,0.235-0.663,0.35-0.996
			c0.031-0.087,0.059-0.175,0.089-0.262c0.104-0.305,0.208-0.611,0.31-0.918c0.05-0.153,0.099-0.308,0.15-0.462
			c0.079-0.242,0.158-0.484,0.235-0.727c0.066-0.206,0.128-0.413,0.194-0.619c0.062-0.202,0.126-0.404,0.186-0.606
			c0.124-0.404,0.244-0.81,0.362-1.217c3.352-11.544,15.428-18.185,26.972-14.833l39.551,11.484L728.094,1513.093z"/>
		<path style="fill:#FFEAC5;" d="M620.35,1446.526c8.604,2.498,17.604-2.452,20.102-11.057c2.499-8.605-2.451-17.604-11.056-20.103
			c-8.604-2.498-17.605,2.452-20.103,11.056C606.795,1435.026,611.745,1444.027,620.35,1446.526z"/>
		<path style="fill:#702819;" d="M944.45,1018.549c0,4.028,6.26,4.035,6.26,0v-82.505c-2.064,1.137-4.15,2.236-6.26,3.296V1018.549z
			"/>
		<path style="fill:#4C62AB;" d="M970.026,770.736c0-60.85-49.328-110.178-110.178-110.178
			c-60.849,0-110.178,49.328-110.178,110.178c0,60.849,49.329,110.178,110.178,110.178
			C920.698,880.914,970.026,831.585,970.026,770.736z"/>
		<path style="fill:#22ABE3;" d="M904.814,770.736c0-24.834-20.132-44.966-44.966-44.966c-24.834,0-44.966,20.132-44.966,44.966
			c0,24.834,20.132,44.966,44.966,44.966C884.682,815.702,904.814,795.57,904.814,770.736z"/>
		<path style="fill:#FAB85C;" d="M1293.77,1168.362c-2.859-15.938-6.797-30.839-11.428-44.024
			c-12.472-35.511-29.976-58.567-45-55.871c-18.8,3.373-37,7.453-54.423,12.128c-1.936,13.234-71.207,23.87-156.38,23.87
			c-60.091,0-112.266-5.294-138.466-13.06c-0.164,2.704-0.249,5.428-0.249,8.173c0,4.149,0.193,8.252,0.565,12.303
			c-21.537,55.018-33.478,132.844-30.454,218.66c0.588,16.662,28.927,30.067,69.443,35.376c15.665,2.052,33.15,2.895,51.555,2.246
			c17.358-0.612,33.806-2.489,48.607-5.342c41.488-7.998,70.042-23.674,69.442-40.703c-0.412-11.685-1.091-23.203-2.019-34.517
			l3.279-0.789c49.244,7.772,111.346,6.671,177.345-5.17c13.536-2.429,21.692-25.15,22.702-57.143
			C1298.815,1207.792,1297.393,1188.556,1293.77,1168.362z"/>
		<path style="fill:#702819;" d="M1095.35,1281.246c-36.457,5.938-74.563-3.093-104.911-24.036
			c-30.342-20.939-50.561-53.773-57.409-89.838c-3.923-20.665-3.213-41.986,2.073-62.336c1.013-3.902-5.022-5.567-6.036-1.664
			c-9.707,37.366-4.259,77.872,14.628,111.529c18.973,33.814,51.454,58.332,88.664,68.788c20.388,5.729,41.689,7.026,62.603,3.912
			c0.684-0.101,1.368-0.208,2.052-0.319c0.494-0.081,0.901-0.245,1.227-0.47C1100.525,1285.235,1098.806,1280.683,1095.35,1281.246z
			"/>
	</g>
	<path style="fill:#29235C;" d="M875.405,770.736c0-8.592-6.965-15.557-15.557-15.557c-8.592,0-15.558,6.965-15.558,15.557
		s6.966,15.558,15.558,15.558C868.44,786.294,875.405,779.328,875.405,770.736z"/>
</g>
</svg>
