<?xml version="1.0" encoding="utf-8"?>
<!-- Generator: Adobe Illustrator 27.5.0, SVG Export Plug-In . SVG Version: 6.00 Build 0)  -->
<svg version="1.1" id="Layer_1" xmlns="http://www.w3.org/2000/svg" xmlns:xlink="http://www.w3.org/1999/xlink" x="0px" y="0px"
	 viewBox="-408.931 -58.33 11.109 11.219" style="enable-background:new -408.931 -58.33 11.109 11.219;" xml:space="preserve">
<rect x="-408.931" y="-58.33" style="fill:#FFFFFF;" width="11.109" height="11.218"/>
<g>
	<radialGradient id="SVGID_1_" cx="-398.264" cy="-55.4237" r="6.303" gradientUnits="userSpaceOnUse">
		<stop  offset="0.0727" style="stop-color:#FCA800"/>
		<stop  offset="0.4121" style="stop-color:#E70000"/>
		<stop  offset="0.506" style="stop-color:#BA0000"/>
		<stop  offset="0.7946" style="stop-color:#350000"/>
		<stop  offset="0.9212" style="stop-color:#000000"/>
	</radialGradient>
	<path style="fill:url(#SVGID_1_);" d="M-403.465-51.324v-0.125h0.036v0.125H-403.465z M-403.292-51.324l-0.035-0.061v0.061h-0.036
		v-0.125h0.036l0.035,0.061v-0.061h0.036v0.125H-403.292z M-403.105-51.417h-0.031v0.092h-0.034v-0.092h-0.031l-0.004-0.004v-0.029
		h0.102v0.029L-403.105-51.417z M-403.041-51.324v-0.125h0.097v0.032h-0.065v0.015h0.061v0.031h-0.061v0.014h0.065v0.034H-403.041z
		 M-402.805-51.324l-0.018-0.038h-0.024v0.038h-0.034v-0.125h0.063c0.003,0,0.006,0,0.008,0.002c0.005,0,0.009,0.003,0.01,0.004
		c0.003,0.002,0.005,0.004,0.007,0.006c0.005,0,0.005,0.002,0.008,0.006c0.002,0.002,0.003,0.006,0.003,0.01
		c0,0.002,0,0.007,0,0.011c0,0.006,0,0.012-0.002,0.017c-0.002,0.006-0.008,0.01-0.012,0.014l0.029,0.057H-402.805z
		 M-402.827-51.421h-0.02v0.021h0.02c0.004,0,0.005-0.001,0.005-0.001c0.004-0.001,0.005-0.005,0.005-0.009
		c0-0.004-0.001-0.005-0.005-0.008C-402.823-51.421-402.824-51.421-402.827-51.421L-402.827-51.421z M-402.642-51.324l-0.039-0.061
		v0.061h-0.033v-0.125h0.033l0.037,0.061v-0.061h0.032v0.125H-402.642z M-402.464-51.324l-0.005-0.019h-0.036l-0.007,0.019h-0.037
		l0.048-0.125h0.026l0.048,0.125H-402.464z M-402.487-51.399l-0.006,0.025h0.012L-402.487-51.399z M-402.291-51.417h-0.03v0.092
		h-0.036v-0.092h-0.032l-0.003-0.004v-0.029h0.106v0.029L-402.291-51.417z M-402.225-51.324v-0.125h0.037v0.125H-402.225z
		 M-402.059-51.322c-0.01,0-0.016-0.002-0.023-0.006c-0.009-0.004-0.018-0.008-0.023-0.013c-0.006-0.008-0.01-0.014-0.012-0.019
		c-0.004-0.01-0.006-0.018-0.006-0.026c0-0.013,0.002-0.019,0.006-0.026c0.002-0.008,0.006-0.016,0.012-0.02
		c0.006-0.006,0.015-0.012,0.023-0.016c0.008-0.003,0.014-0.005,0.023-0.005c0.01,0,0.018,0.002,0.027,0.005
		c0.007,0.004,0.014,0.009,0.02,0.016c0.006,0.004,0.011,0.012,0.016,0.02c0.004,0.008,0.004,0.014,0.004,0.026
		c0,0.009,0,0.017-0.004,0.026c-0.005,0.005-0.01,0.011-0.016,0.019c-0.006,0.005-0.013,0.009-0.02,0.013
		C-402.04-51.324-402.049-51.322-402.059-51.322L-402.059-51.322z M-402.059-51.421c-0.003,0-0.009,0.003-0.01,0.004
		c-0.002,0.003-0.008,0.004-0.012,0.007c0,0.003-0.002,0.007-0.006,0.01c0,0.003,0,0.009,0,0.014c0,0.005,0,0.005,0,0.012
		c0.004,0.003,0.006,0.005,0.006,0.009c0.004,0.004,0.01,0.006,0.012,0.006c0.001,0.002,0.007,0.004,0.01,0.004
		c0.006,0,0.01-0.002,0.014-0.004c0.002,0,0.007-0.002,0.008-0.006c0.004-0.004,0.006-0.006,0.008-0.009
		c0-0.007,0.001-0.007,0.001-0.012c0-0.005-0.001-0.011-0.001-0.014c-0.002-0.003-0.004-0.007-0.008-0.01
		c-0.001-0.003-0.006-0.004-0.008-0.007C-402.049-51.418-402.053-51.421-402.059-51.421L-402.059-51.421z M-401.863-51.324
		l-0.037-0.061v0.061h-0.037v-0.125h0.035l0.039,0.061v-0.061h0.033v0.125H-401.863z M-401.686-51.324l-0.006-0.019h-0.037
		l-0.006,0.019h-0.035l0.043-0.125h0.035l0.041,0.125H-401.686z M-401.709-51.399l-0.007,0.025h0.016L-401.709-51.399z
		 M-401.592-51.324v-0.125h0.032v0.092h0.065v0.034H-401.592z"/>
	
		<radialGradient id="SVGID_00000086674490325956420100000003416136584431624376_" cx="-398.2633" cy="-55.4277" r="6.3055" gradientUnits="userSpaceOnUse">
		<stop  offset="0.0727" style="stop-color:#FCA800"/>
		<stop  offset="0.4121" style="stop-color:#E70000"/>
		<stop  offset="0.506" style="stop-color:#BA0000"/>
		<stop  offset="0.7946" style="stop-color:#350000"/>
		<stop  offset="0.9212" style="stop-color:#000000"/>
	</radialGradient>
	<path style="fill-rule:evenodd;clip-rule:evenodd;fill:url(#SVGID_00000086674490325956420100000003416136584431624376_);" d="
		M-406.062-50.957v0.273h-0.228v-0.273l-0.26-0.523h0.255l0.12,0.251l0.117-0.251h0.257L-406.062-50.957z M-405.42-50.66
		c-0.058,0-0.113-0.01-0.164-0.033c-0.051-0.021-0.095-0.051-0.134-0.09c-0.037-0.039-0.068-0.084-0.09-0.133
		c-0.023-0.051-0.034-0.105-0.034-0.164s0.011-0.113,0.034-0.164c0.022-0.051,0.053-0.095,0.09-0.133
		c0.039-0.039,0.083-0.067,0.134-0.09c0.051-0.025,0.106-0.033,0.164-0.033c0.058,0,0.112,0.009,0.163,0.033
		c0.053,0.022,0.097,0.051,0.136,0.09c0.039,0.036,0.069,0.081,0.09,0.131c0.022,0.053,0.033,0.107,0.033,0.166
		s-0.011,0.113-0.033,0.164c-0.021,0.049-0.051,0.094-0.09,0.133c-0.039,0.039-0.083,0.068-0.136,0.09
		C-405.307-50.67-405.362-50.66-405.42-50.66L-405.42-50.66z M-405.418-51.283c-0.029,0-0.054,0.006-0.078,0.016
		c-0.023,0.014-0.042,0.027-0.061,0.045c-0.019,0.02-0.031,0.041-0.041,0.064c-0.01,0.024-0.015,0.049-0.015,0.078
		c0,0.025,0.005,0.053,0.015,0.076c0.01,0.025,0.022,0.047,0.041,0.064c0.018,0.023,0.037,0.035,0.061,0.045
		c0.024,0.01,0.049,0.016,0.078,0.016c0.027,0,0.051-0.006,0.075-0.016c0.023-0.01,0.044-0.021,0.061-0.045
		c0.019-0.018,0.032-0.039,0.04-0.064c0.01-0.023,0.015-0.051,0.015-0.076c0-0.029-0.005-0.055-0.015-0.078
		c-0.008-0.023-0.022-0.045-0.04-0.064c-0.017-0.018-0.038-0.031-0.061-0.045C-405.367-51.278-405.391-51.283-405.418-51.283
		L-405.418-51.283z M-404.349-50.684v-0.018c-0.058,0.027-0.117,0.041-0.18,0.041c-0.06,0-0.114-0.01-0.165-0.033
		c-0.051-0.02-0.094-0.051-0.133-0.088c-0.037-0.037-0.066-0.082-0.086-0.133c-0.02-0.053-0.031-0.107-0.031-0.166
		c0-0.057,0.011-0.113,0.031-0.162c0.022-0.051,0.051-0.096,0.088-0.134c0.037-0.04,0.083-0.068,0.134-0.093
		c0.051-0.023,0.104-0.035,0.162-0.035c0.064,0,0.122,0.016,0.182,0.043c0.056,0.027,0.105,0.066,0.15,0.12l-0.185,0.125
		c-0.043-0.047-0.093-0.068-0.146-0.068c-0.027,0-0.051,0.008-0.078,0.018c-0.024,0.012-0.044,0.027-0.059,0.045
		c-0.019,0.02-0.034,0.041-0.043,0.066c-0.008,0.023-0.015,0.051-0.015,0.076c0,0.027,0.007,0.055,0.015,0.08
		c0.009,0.023,0.024,0.045,0.043,0.064c0.015,0.02,0.035,0.033,0.059,0.043c0.027,0.014,0.051,0.02,0.078,0.02
		c0.027,0,0.053-0.006,0.077-0.02c0.027-0.01,0.044-0.023,0.064-0.045h-0.125v-0.205h0.359v0.459H-404.349z M-403.635-50.791h-0.188
		l-0.039,0.107h-0.232l0.29-0.796h0.193l0.1,0.273L-403.635-50.791z M-403.706-51.143l-0.051,0.154h0.101L-403.706-51.143z"/>
	
		<radialGradient id="SVGID_00000102507060282249368100000007651600719829283487_" cx="-398.2629" cy="-55.4198" r="6.3003" gradientUnits="userSpaceOnUse">
		<stop  offset="0.0727" style="stop-color:#FCA800"/>
		<stop  offset="0.4121" style="stop-color:#E70000"/>
		<stop  offset="0.506" style="stop-color:#BA0000"/>
		<stop  offset="0.7946" style="stop-color:#350000"/>
		<stop  offset="0.9212" style="stop-color:#000000"/>
	</radialGradient>
	<path style="fill-rule:evenodd;clip-rule:evenodd;fill:url(#SVGID_00000102507060282249368100000007651600719829283487_);" d="
		M-403.321-50.459h-0.339l0.241-0.795h0.099c0.056,0,0.107,0.008,0.158,0.029c0.047,0.021,0.088,0.051,0.125,0.086
		c0.035,0.035,0.064,0.078,0.086,0.127c0.018,0.045,0.029,0.098,0.029,0.154c0,0.053-0.01,0.105-0.029,0.152
		c-0.022,0.049-0.051,0.092-0.086,0.127c-0.038,0.037-0.078,0.064-0.125,0.086C-403.214-50.473-403.265-50.459-403.321-50.459
		L-403.321-50.459z M-403.34-51.049h-0.114v0.381h0.114c0.025,0,0.047-0.006,0.071-0.016c0.023-0.01,0.044-0.025,0.063-0.041
		c0.014-0.018,0.029-0.037,0.041-0.059c0.008-0.023,0.012-0.049,0.012-0.076c0-0.025-0.004-0.051-0.012-0.072
		c-0.012-0.025-0.027-0.045-0.041-0.061c-0.018-0.018-0.039-0.031-0.063-0.041C-403.292-51.043-403.314-51.049-403.34-51.049
		L-403.34-51.049z M-402.418-50.459l-0.039-0.109h-0.229l-0.037,0.109h-0.234l0.29-0.795h0.19l0.294,0.795H-402.418z
		 M-402.571-50.916l-0.051,0.15h0.098L-402.571-50.916z M-401.77-50.735v0.275h-0.228v-0.275l-0.262-0.52h0.257l0.118,0.248
		l0.118-0.248h0.257L-401.77-50.735z"/>
</g>
<g>
	<path style="fill-rule:evenodd;clip-rule:evenodd;fill:#141515;" d="M-401.205-51.452c0,0-0.019,0.041-0.083,0.034
		c-0.065-0.007-0.04-0.049-0.036-0.07c0.007-0.023,0.011-0.054-0.002-0.086c-0.014-0.032-0.012-0.083-0.012-0.083
		s-0.112-0.22-0.179-0.274c-0.067-0.055-0.058-0.091-0.192-0.072c-0.136,0.018-0.345,0.083-0.486,0.116
		c-0.141,0.034-0.279,0.039-0.367,0.023c-0.088-0.016-0.201-0.016-0.201-0.016l-0.012-0.006c0,0-0.025,0.007-0.041,0.006
		c-0.016,0-0.203-0.086-0.318-0.17c-0.115-0.083-0.134-0.116-0.126-0.195c0.007-0.08,0.162-0.23,0.289-0.329
		c0.126-0.1,0.321-0.153,0.569-0.235c0.248-0.082,0.362-0.113,0.387-0.127c0.024-0.014,0.055-0.034,0.055-0.034
		s0.022-0.036,0.043-0.045c0.022-0.009,0.041-0.004,0.041-0.004s0.002-0.026,0.018-0.04c0.018-0.014,0.026-0.016,0.026-0.016
		s0.007-0.039,0.063-0.139c0.058-0.102,0.109-0.236,0.126-0.312c0.017-0.074,0.007-0.217-0.043-0.374
		c-0.05-0.157-0.057-0.193-0.073-0.227c-0.016-0.033-0.014-0.057-0.014-0.057s-0.028-0.032-0.05-0.076
		c-0.023-0.044-0.02-0.099-0.02-0.099s-0.153,0.14-0.312,0.171c-0.159,0.03-0.308,0.033-0.329,0.021
		c-0.02-0.012-0.068-0.062-0.065-0.103c0.004-0.041,0.018-0.057,0.018-0.057s0-0.131,0.066-0.244
		c0.065-0.113,0.214-0.143,0.312-0.234c0.099-0.09,0.114-0.157,0.222-0.257c0.107-0.098,0.245-0.096,0.245-0.096
		s0.003-0.012,0.02-0.016c0.014-0.004,0.061-0.015,0.061-0.015l0.007,0.008l0.086-0.03c0,0,0.004-0.048,0.009-0.082
		c0.005-0.035,0.004-0.064,0.004-0.064s-0.015,0.021-0.025,0.038c-0.009,0.015-0.016,0.038-0.016,0.038s-0.009-0.056,0.032-0.115
		c0.04-0.061,0.068-0.111,0.081-0.173c0.012-0.061,0.013-0.067,0.013-0.067s-0.008-0.04-0.032-0.081
		c-0.024-0.041-0.049-0.068-0.073-0.103c-0.024-0.034-0.057-0.092-0.053-0.167c0.003-0.075,0.016-0.077,0.024-0.087
		c0.008-0.009,0.023-0.014,0.023-0.014s-0.023-0.067-0.025-0.093c-0.001-0.026-0.031-0.152-0.012-0.226
		c0.02-0.074,0.05-0.097,0.065-0.122c0.016-0.024,0.034-0.064,0.082-0.082c0.049-0.016,0.067-0.026,0.09-0.036
		c0.022-0.011,0.023-0.019,0.023-0.019s-0.032-0.048-0.034-0.086c-0.001-0.039,0.04-0.046,0.036-0.047
		c-0.004-0.001-0.026-0.042,0.004-0.061c0.028-0.02,0.077-0.051,0.098-0.068c0.018-0.017,0.073-0.036,0.099-0.028
		c0.024,0.009,0.032,0.02,0.032,0.02s0.037,0.012,0.058,0.03c0.022,0.018,0.053,0.052,0.06,0.064
		c0.007,0.013,0.007,0.021,0.007,0.021s0.027,0.056,0.026,0.086c-0.001,0.03-0.024,0.05-0.024,0.05s-0.002,0.009,0.019,0.013
		c0.02,0.004,0.103,0.013,0.153,0.064s0.054,0.13,0.054,0.13s0.035,0.041,0.043,0.082c0.007,0.041-0.004,0.064-0.004,0.064
		s0.011,0.033,0.009,0.062c-0.002,0.03-0.009,0.038-0.009,0.038s0.013,0.035,0.006,0.067c-0.006,0.032-0.029,0.066-0.029,0.066
		s0.045,0.03,0.032,0.113c-0.013,0.083-0.016,0.119-0.076,0.192c-0.061,0.074-0.07,0.108-0.082,0.138
		c-0.015,0.029-0.009,0.055-0.009,0.055s0.059,0.12,0.089,0.197c0.03,0.078,0.006,0.163,0.006,0.163s0.031,0.018,0.065,0.021
		c0.032,0.001,0.056,0.012,0.063,0.019c0.007,0.007,0.011,0.013,0.011,0.013s0.089,0,0.2,0.057c0.11,0.058,0.128,0.174,0.271,0.281
		c0.144,0.108,0.08,0.08,0.199,0.149c0.12,0.07,0.216,0.213,0.207,0.322c-0.007,0.109-0.017,0.182-0.026,0.2
		c-0.01,0.016-0.05,0.028-0.064,0.025c-0.016-0.002-0.071-0.038-0.1-0.046c-0.029-0.008-0.129,0-0.222-0.048
		c-0.093-0.047-0.415-0.231-0.521-0.312c-0.105-0.08-0.229-0.16-0.268-0.203c-0.038-0.044-0.08-0.054-0.107-0.066
		c-0.024-0.011-0.074-0.047-0.082-0.12c-0.005-0.073-0.018-0.437-0.018-0.437s-0.009,0.22-0.016,0.289
		c-0.008,0.07,0.006,0.195-0.082,0.261c-0.088,0.066-0.175,0.125-0.302,0.221c-0.129,0.096-0.205,0.164-0.235,0.191
		c-0.031,0.026-0.034,0.04-0.034,0.04s0.335-0.252,0.381-0.297c0.046-0.044,0.139-0.085,0.191-0.127
		c0.054-0.04,0.09-0.151,0.09-0.151s0.007,0.115,0.059,0.148c0.054,0.033,0.172,0.1,0.285,0.177c0.112,0.079,0.383,0.25,0.392,0.254
		c0.009,0.004,0.028,0.076,0,0.148c-0.03,0.072-0.082,0.089-0.082,0.089s-0.145,0.251-0.174,0.443
		c-0.028,0.19,0.036,0.345,0.104,0.466h0.015c0,0,0.02,0.114,0.072,0.19c0.053,0.076,0.111,0.319,0.079,0.667
		c-0.03,0.347-0.095,0.446-0.095,0.446s-0.037,0.503-0.096,0.672c-0.059,0.166-0.151,0.285-0.151,0.285s0,0.154,0.018,0.318
		c0.018,0.164,0.011,0.27,0,0.338c-0.01,0.068-0.028,0.137-0.028,0.137l-0.021,0.004c0,0-0.213,0.6-0.252,0.793
		c-0.04,0.191-0.025,0.227,0.032,0.314c0.056,0.09,0.075,0.131,0.095,0.162c0.018,0.029,0.073,0.086,0.074,0.1
		c0,0.016-0.021,0.027-0.044,0.027c-0.024,0-0.034,0.004-0.05,0.012c-0.017,0.01-0.04-0.002-0.04-0.002s-0.013,0.02-0.031,0.023
		c-0.019,0.002-0.031-0.004-0.031-0.004s-0.012,0.021-0.032,0.021c-0.02,0.002-0.046-0.014-0.046-0.014s0.001,0.033-0.027,0.023
		c-0.028-0.008-0.061-0.027-0.074-0.074c-0.015-0.047-0.06-0.078-0.08-0.1c-0.022-0.02-0.065-0.049-0.06-0.105
		c0.008-0.059,0.034-0.08,0.034-0.08l-0.004-0.059c0,0-0.016-0.041,0.011-0.092c0.027-0.049,0.075-0.346,0.101-0.504
		c0.024-0.16,0.025-0.363,0.027-0.432c0.001-0.066-0.046-0.135-0.046-0.135s0.013-0.148,0.013-0.326
		c-0.001-0.176,0.023-0.277,0.043-0.307c0.018-0.029,0.013-0.09,0.002-0.133C-401.163-51.102-401.196-51.393-401.205-51.452
		L-401.205-51.452z M-401.133-53.396c0,0,0.004,0.079-0.02,0.088C-401.177-53.299-401.202-53.339-401.133-53.396L-401.133-53.396z
		 M-401.153-53.9c0,0,0.008,0.012,0.009,0.059c0,0.047-0.007,0.062-0.007,0.062S-401.183-53.856-401.153-53.9L-401.153-53.9z
		 M-401.131-53.629c0,0,0.006,0.044,0.006,0.08c0,0.035-0.014,0.077-0.014,0.077S-401.167-53.601-401.131-53.629L-401.131-53.629z
		 M-401.148-55.584c0,0-0.007-0.005-0.026,0.001c-0.017,0.006-0.023,0.016-0.023,0.016s0.002-0.078,0.01-0.106
		c0.008-0.028,0.033-0.038,0.038-0.006C-401.146-55.645-401.148-55.584-401.148-55.584L-401.148-55.584z M-401.117-55.578
		c0,0-0.012-0.119,0.004-0.125c0.016-0.006,0.042,0.04,0.054,0.101c0.011,0.062,0.006,0.167,0.006,0.167s-0.025-0.094-0.033-0.116
		C-401.095-55.575-401.107-55.576-401.117-55.578L-401.117-55.578z M-401.174-55.921c0,0,0.009,0.008,0.009,0.092
		c0.001,0.083,0.002,0.111-0.007,0.112c-0.008,0-0.009-0.008-0.014-0.041C-401.191-55.791-401.174-55.921-401.174-55.921
		L-401.174-55.921z M-400.892-55.959c0,0-0.023,0.039-0.071,0.058c-0.051,0.019-0.088-0.012-0.065-0.024
		C-401.005-55.938-400.931-55.947-400.892-55.959L-400.892-55.959z M-401.222-55.9c-0.006,0-0.083,0.001-0.109-0.016
		c-0.025-0.017-0.023-0.048,0-0.042C-401.306-55.95-401.224-55.908-401.222-55.9L-401.222-55.9z M-401.512-56.155
		c0,0,0.029,0.075,0.043,0.077c0.017,0.003,0.017-0.067,0.012-0.084c-0.003-0.018-0.018-0.044-0.018-0.044s0.03,0.023,0.027,0.009
		c-0.002-0.013-0.031-0.095-0.031-0.095l0.055,0.058l0.001-0.093l0.048,0.06l0.002-0.058l0.063,0.068c0,0,0.023,0.119,0.018,0.187
		c-0.003,0.069,0.034,0.1,0.034,0.1s-0.06-0.011-0.093-0.031c-0.033-0.019-0.064-0.012-0.056,0.015
		c0.008,0.027,0.031,0.035,0.036,0.095c0.004,0.059-0.012,0.07,0.057,0.155c0.069,0.084,0.091,0.098,0.094,0.177
		c0.002,0.079-0.003,0.108-0.003,0.108s-0.145-0.099-0.197-0.289c-0.054-0.19-0.057-0.318-0.057-0.318
		S-401.512-56.127-401.512-56.155L-401.512-56.155z M-400.901-56.286l-0.037,0.039c0,0,0.027,0.055,0.01,0.142
		c-0.016,0.086-0.047,0.122-0.047,0.122s0.021,0,0.041-0.008c0.018-0.008,0.054-0.024,0.071-0.008
		c0.019,0.016,0.013,0.018-0.01,0.061c-0.025,0.042-0.023,0.077-0.027,0.11c-0.003,0.033-0.091,0.132-0.103,0.164
		c-0.013,0.032-0.026,0.205-0.026,0.203c0-0.001,0.123-0.135,0.174-0.226c0.051-0.09,0.079-0.185,0.087-0.254
		c0.009-0.068,0-0.079,0-0.079l-0.016-0.002l0.008-0.082l-0.024-0.004l0.011-0.153l-0.068,0.083c0,0,0.013-0.063,0.027-0.099
		c0.013-0.035,0.013-0.063,0.013-0.063l-0.084,0.108L-400.901-56.286z M-400.969-56.285c0,0,0.047-0.043,0.067-0.083
		c0.022-0.04,0.039-0.077,0.039-0.077s0.01,0.046-0.005,0.082C-400.881-56.327-400.969-56.285-400.969-56.285L-400.969-56.285z
		 M-401.087-56.266c0,0,0.047-0.064,0.072-0.102c0.024-0.038,0.044-0.08,0.044-0.08l-0.003,0.057l0.031-0.065l0.005,0.061
		c0,0,0.042-0.045,0.046-0.085c0.003-0.039,0.001-0.057,0.001-0.057s0.031,0.074-0.011,0.135c-0.041,0.063-0.142,0.149-0.142,0.149
		s0.07-0.084,0.06-0.101C-400.995-56.369-401.053-56.28-401.087-56.266L-401.087-56.266z M-401.122-56.279
		c0.003-0.001,0.035-0.083,0.056-0.192c0.019-0.11-0.005-0.156-0.005-0.156l0.066,0.109l0.006-0.059c0,0,0.018,0.038,0.002,0.099
		c-0.017,0.06-0.034,0.088-0.034,0.088l-0.011-0.062C-401.042-56.45-401.067-56.329-401.122-56.279L-401.122-56.279z
		 M-401.167-56.297l0.018-0.276c0,0,0.018,0.13,0.028,0.123c0.011-0.007,0.012-0.152,0.012-0.152s0.041,0.075,0.015,0.148
		C-401.118-56.381-401.153-56.332-401.167-56.297L-401.167-56.297z M-401.201-56.336c0,0-0.04-0.059-0.041-0.1
		c-0.001-0.04,0.01-0.113,0.01-0.113l0.02,0.081l0.017-0.069C-401.196-56.536-401.192-56.344-401.201-56.336L-401.201-56.336z
		 M-401.406-56.499c0,0,0.005,0.033,0.052,0.085c0.047,0.053,0.059,0.045,0.059,0.045s-0.014-0.027-0.017-0.073
		c-0.003-0.047,0.006-0.086,0.006-0.086l0.017,0.069c0,0,0.011-0.055,0.029-0.105c0.019-0.049,0.031-0.057,0.031-0.057
		s-0.027,0.078-0.024,0.182c0.001,0.104,0.003,0.117,0.003,0.117l-0.026-0.035l0.047,0.101
		C-401.231-56.256-401.387-56.311-401.406-56.499L-401.406-56.499z M-400.745-56.042c-0.002,0-0.021-0.003-0.012-0.014
		c0.009-0.012,0.053-0.033,0.06-0.011c0.005,0.022,0.013,0.089-0.002,0.13c-0.013,0.042-0.041,0.085-0.057,0.116
		c-0.014,0.03-0.032,0.035-0.025,0.022c0.007-0.011,0.048-0.081,0.057-0.117c0.01-0.037,0.017-0.114,0.012-0.128
		C-400.715-56.057-400.745-56.042-400.745-56.042L-400.745-56.042z M-401.487-55.836c0,0,0.015,0.023,0.007,0.027
		c-0.008,0.004-0.047-0.049-0.071-0.114c-0.024-0.064-0.006-0.12,0.009-0.138c0.015-0.018,0.029-0.01,0.032,0.004
		c0.006,0.015-0.024,0.032-0.028,0.065C-401.543-55.954-401.53-55.881-401.487-55.836L-401.487-55.836z M-401.129-50.242
		c0,0,0.065-0.014,0.121-0.002c0.054,0.008,0.087,0.037,0.141,0.051c0.052,0.012,0.073,0.014,0.073,0.014s-0.021,0.037-0.031,0.076
		c-0.01,0.043-0.06,0.182-0.079,0.232c-0.02,0.051-0.105,0.318-0.136,0.451c-0.032,0.131-0.036,0.271-0.036,0.271
		s0.051,0.102,0.095,0.164c0.045,0.061,0.109,0.152,0.105,0.16c-0.002,0.01-0.028-0.008-0.04-0.018
		c-0.012-0.01-0.04-0.025-0.04-0.025s0.043,0.051,0.035,0.055c-0.008,0.006-0.073-0.033-0.073-0.033s0.031,0.027,0.023,0.047
		c-0.007,0.018-0.028,0.014-0.041-0.006c-0.013-0.018-0.059-0.035-0.059-0.035s0.046,0.047,0.037,0.063
		c-0.008,0.016-0.037,0.014-0.048-0.002c-0.011-0.018-0.043-0.051-0.043-0.051s0.016,0.045,0.006,0.062
		c-0.011,0.016-0.027,0.006-0.036-0.027s0.023-0.053,0.023-0.053s-0.07-0.127-0.082-0.213c-0.013-0.086,0.047-0.107,0.05-0.135
		c0.002-0.027,0.037-0.283,0.079-0.436c0.042-0.15,0.04-0.197,0.037-0.271c-0.002-0.074,0.05-0.119,0.067-0.17
		c0.018-0.051,0.017-0.068,0.017-0.068s0.029-0.012,0.07-0.021c0.039-0.01,0.053-0.012,0.053-0.012s-0.068-0.008-0.124-0.031
		C-401.021-50.233-401.071-50.238-401.129-50.242L-401.129-50.242z M-402.664-52.134c0,0,0.127-0.041,0.278-0.044
		c0.149-0.001,0.404-0.025,0.522-0.052c0.117-0.025,0.355-0.059,0.414-0.081c0.058-0.023,0.081-0.001,0.115,0.02
		c0.036,0.022,0.06,0.066,0.061,0.092c0.001,0.024,0.001,0.123,0.043,0.218c0.042,0.097,0.058,0.167,0.07,0.207
		c0.015,0.04,0.035,0.302,0.051,0.44c0.017,0.137,0.005,0.266,0.021,0.286c0.015,0.02,0.01,0.041,0.001,0.059
		c-0.01,0.016-0.01,0.037,0.001,0.063c0.013,0.027-0.024,0.041-0.039,0.088c-0.016,0.045-0.026,0.133-0.037,0.221
		c-0.01,0.088-0.017,0.137-0.017,0.137s0.007-0.211,0.018-0.309c0.012-0.096,0.041-0.154,0.041-0.154l0.002-0.115
		c0,0-0.027-0.051-0.034-0.195c-0.009-0.144-0.039-0.3-0.032-0.392c0.009-0.093-0.034-0.235-0.061-0.291
		c-0.027-0.054-0.036-0.221-0.071-0.267c-0.036-0.045-0.071-0.092-0.218-0.054c-0.147,0.04-0.423,0.093-0.599,0.097
		C-402.307-52.159-402.573-52.148-402.664-52.134L-402.664-52.134z M-401.156-53.103c0,0,0.177-0.011,0.288-0.031
		c0.11-0.021,0.139-0.028,0.191-0.036c0.053-0.009,0.094-0.015,0.094-0.015s-0.002,0.042,0.043,0.103
		c0.045,0.062,0.117,0.269,0.117,0.453c0,0.184-0.007,0.353-0.064,0.587c-0.058,0.234-0.081,0.35-0.09,0.481
		c-0.01,0.132-0.067,0.368-0.103,0.432c-0.036,0.063-0.082,0.105-0.085,0.217c-0.002,0.109,0.036,0.324,0.022,0.461
		c-0.013,0.137-0.031,0.236-0.031,0.236s-0.103,0.021-0.142-0.029c-0.038-0.053-0.028-0.184-0.017-0.238
		c0.012-0.053,0.031-0.16,0.007-0.242c-0.023-0.08-0.006-0.131,0.007-0.156c0.011-0.023,0.014-0.07,0.014-0.07l0.077,0.039
		l-0.055-0.049c0,0,0.037-0.008,0.069-0.023c0.03-0.012,0.054-0.045,0.054-0.045s-0.091,0.004-0.131-0.004
		c-0.041-0.01,0.039-0.06,0.039-0.06s-0.065-0.051-0.068-0.076c-0.002-0.027,0.094-0.223,0.136-0.371
		c0.042-0.146,0.005-0.33,0.011-0.413c0.007-0.084,0.005-0.11,0.001-0.145c-0.003-0.036-0.05-0.292-0.045-0.389
		c0.005-0.096,0.125-0.208,0.125-0.208s-0.139,0.029-0.199,0.048c-0.063,0.019-0.116,0.059-0.116,0.059s0.057-0.096,0.141-0.177
		c0.083-0.078,0.152-0.11,0.152-0.11s-0.135,0.043-0.19,0.064c-0.057,0.02-0.096,0.055-0.096,0.055s0.034-0.076,0.09-0.127
		c0.057-0.053,0.121-0.087,0.121-0.087l-0.22,0.108c0,0,0.002-0.065,0.075-0.15c0.072-0.084,0.186-0.126,0.186-0.126
		S-400.956-53.08-401.156-53.103L-401.156-53.103z M-402.422-54.412c0,0,0.003,0.095-0.026,0.13
		c-0.027,0.033-0.078,0.015-0.056-0.109c0.021-0.126,0.112-0.235,0.199-0.279c0.086-0.043,0.172-0.07,0.265-0.205
		c0.093-0.134,0.164-0.185,0.24-0.216c0.078-0.032,0.133-0.04,0.133-0.04s0.01,0.062,0.004,0.118
		c-0.004,0.056-0.026,0.129-0.039,0.147c-0.013,0.017-0.031,0.017-0.017-0.006c0.014-0.024,0.032-0.142,0.032-0.142l-0.045,0.07
		c0,0-0.061,0.004-0.1,0.047c-0.038,0.045-0.071,0.089-0.071,0.089s-0.2,0.038-0.313,0.11
		C-402.329-54.623-402.408-54.553-402.422-54.412L-402.422-54.412z M-402.397-54.382c0,0,0.03-0.156,0.105-0.231
		c0.075-0.075,0.199-0.124,0.354-0.14c0.153-0.018,0.257-0.073,0.362-0.139c0.104-0.067,0.196-0.117,0.196-0.117l0.011,0.016
		c0,0,0.025-0.05,0.064-0.11c0.04-0.061,0.049-0.12,0.052-0.163c0.002-0.044,0.031-0.118,0.052-0.187
		c0.022-0.068,0.021-0.086,0.022-0.102c0.001-0.015,0.021-0.013,0.029-0.001c0.01,0.014,0.013,0.022-0.001,0.049
		c-0.014,0.027-0.025,0.04-0.03,0.064c-0.004,0.025-0.013,0.165-0.024,0.205c-0.013,0.041-0.016,0.178-0.019,0.213
		c-0.004,0.036-0.022,0.074-0.082,0.07c-0.061-0.003-0.073,0.022-0.122,0.054c-0.047,0.031-0.155,0.109-0.417,0.232
		C-402.109-54.543-402.279-54.557-402.397-54.382L-402.397-54.382z M-400.696-56.314c0,0,0.011,0.024,0.004,0.051
		c-0.005,0.028-0.01,0.038-0.01,0.038s0.013,0.011,0.009,0.042c-0.003,0.031-0.024,0.083-0.026,0.083
		c-0.001,0,0.005-0.031,0.013-0.059c0.005-0.028,0.002-0.04-0.004-0.04c-0.004,0-0.009-0.002-0.009-0.002
		S-400.704-56.266-400.696-56.314L-400.696-56.314z M-400.868-56.634c0,0,0.071,0.017,0.11,0.078
		c0.037,0.061,0.027,0.163,0.023,0.194c-0.005,0.031-0.026,0.056-0.026,0.056s0.014-0.062,0.018-0.086c0.005-0.023,0-0.046,0-0.046
		S-400.764-56.584-400.868-56.634L-400.868-56.634z M-401.523-56.185c0,0-0.012-0.081-0.01-0.121c0-0.04,0-0.045,0-0.045
		s-0.018-0.04,0.005-0.092c0.024-0.054,0.053-0.088,0.086-0.118c0.034-0.03,0.057-0.023,0.092-0.046
		c0.034-0.024,0.092-0.061,0.092-0.061s-0.055,0.052-0.097,0.088c-0.043,0.035-0.089,0.048-0.114,0.085
		c-0.024,0.036-0.023,0.093-0.026,0.118c-0.006,0.025,0,0.038,0,0.038s-0.015,0.006-0.017,0.041
		C-401.516-56.263-401.518-56.185-401.523-56.185L-401.523-56.185z M-401.255-56.74c-0.002,0-0.029,0.006-0.043-0.006
		c-0.016-0.011-0.018-0.023-0.007-0.034C-401.295-56.789-401.274-56.779-401.255-56.74L-401.255-56.74z M-401.005-56.711
		c0-0.002,0.042-0.063,0.049-0.045c0.006,0.018-0.021,0.046-0.03,0.052C-400.996-56.698-401.005-56.706-401.005-56.711
		L-401.005-56.711z M-401.026-56.746c0-0.001,0.017-0.037,0.029-0.047c0.012-0.01,0.022-0.007,0.018,0.008
		C-400.982-56.77-401.026-56.746-401.026-56.746L-401.026-56.746z M-401.073-56.807c0.002-0.006,0.009-0.104,0.009-0.104
		s0.022,0.001,0.05,0.028c0.029,0.025,0.04,0.035,0.038,0.038c-0.001,0.003-0.065,0.067-0.065,0.067s0.033-0.071,0.022-0.065
		C-401.029-56.838-401.073-56.807-401.073-56.807L-401.073-56.807z M-401.175-56.804c0,0,0-0.024-0.014-0.053
		c-0.013-0.029-0.024-0.036-0.022-0.042c0.003-0.006,0.025-0.024,0.064-0.035c0.038-0.012,0.052-0.004,0.052-0.004
		s-0.005,0.045,0.001,0.076c0.007,0.031-0.001,0.056-0.001,0.056s-0.005-0.017-0.02-0.041c-0.016-0.023-0.028-0.048-0.028-0.048
		S-401.139-56.832-401.175-56.804L-401.175-56.804z M-401.235-56.76c-0.001-0.003-0.009-0.029-0.027-0.048
		c-0.018-0.02-0.016-0.013-0.01-0.027c0.007-0.014,0.026-0.034,0.037-0.034c0.009,0,0.019,0.046,0.019,0.046
		s-0.018-0.015-0.022-0.018c-0.004-0.003-0.005,0.015,0.003,0.033C-401.228-56.791-401.235-56.76-401.235-56.76L-401.235-56.76z
		 M-401.463-55.146c0,0,0.038,0.003,0.084,0.008c0.044,0.004,0.052,0,0.052,0s-0.015,0.05-0.077,0.11
		c-0.063,0.06-0.141,0.087-0.142,0.084c-0.001-0.003-0.022-0.038-0.042-0.106c-0.021-0.069-0.015-0.1-0.015-0.1
		s0.147-0.021,0.226-0.099c0.078-0.078,0.07-0.201,0.07-0.201s0.033,0.05,0.045,0.085c0.011,0.035-0.036,0.171-0.036,0.171
		S-401.424-55.151-401.463-55.146L-401.463-55.146z M-401.481-55.419c0,0,0.021-0.009,0.046-0.074
		c0.026-0.064,0.032-0.107,0.032-0.107s0.023,0.011,0.016,0.052c-0.006,0.041-0.048,0.109-0.06,0.156
		c-0.012,0.046-0.006,0.143-0.006,0.143l0.012-0.006l-0.057,0.036c0,0,0.009-0.05,0.009-0.088c0-0.039,0.011-0.072,0.023-0.092
		c0.011-0.02,0.023-0.039,0.023-0.039S-401.476-55.414-401.481-55.419L-401.481-55.419z M-401.724-54.139
		c0,0,0.026,0.027,0.093,0.051c0.067,0.025,0.122,0.036,0.122,0.036s-0.017,0.146-0.005,0.201c0.011,0.054,0.06,0.096,0.058,0.168
		c-0.002,0.074-0.015,0.121,0.006,0.168c0.017,0.049,0.028,0.068,0.028,0.068s-0.039-0.004-0.067-0.017
		c-0.027-0.014-0.058,0.002-0.066,0.066c-0.009,0.064-0.006,0.168-0.006,0.168s-0.037-0.007-0.063-0.029
		c-0.023-0.023-0.066-0.045-0.052-0.084c0.016-0.038,0.052-0.13,0.066-0.219c0.015-0.089-0.017-0.24-0.047-0.344
		C-401.688-54.01-401.699-53.971-401.724-54.139L-401.724-54.139z M-400.622-54.895c0,0-0.023-0.065-0.022-0.159
		c0.001-0.095,0.017-0.114,0.017-0.114s0.161,0.026,0.218,0.069c0.058,0.044,0.173,0.212,0.27,0.276
		c0.097,0.066,0.22,0.166,0.306,0.248c0.086,0.082,0.086,0.178,0.08,0.244c-0.005,0.067-0.02,0.104-0.02,0.104
		s-0.032-0.008-0.039-0.061c-0.006-0.055-0.063-0.24-0.28-0.29c-0.218-0.051-0.518-0.168-0.638-0.207
		c-0.121-0.041-0.251-0.09-0.278-0.133c-0.028-0.043-0.02-0.085-0.041-0.14c-0.023-0.054-0.038-0.099-0.041-0.244
		c-0.002-0.144-0.026-0.178-0.036-0.2c-0.01-0.022,0.011-0.046,0.019-0.052c0.005-0.007,0.022,0.031,0.029,0.069
		c0.008,0.037,0.017,0.141,0.022,0.205c0.003,0.062,0.026,0.201,0.026,0.201l-0.009-0.239c0,0,0.018,0.17,0.048,0.246
		c0.03,0.074,0.048,0.096,0.056,0.127c0.008,0.032,0.014,0.047,0.015,0.043c0-0.001,0.009-0.059,0.009-0.059
		s0.268,0.103,0.427,0.151c0.158,0.047,0.439,0.154,0.497,0.184c0.056,0.03,0.138,0.122,0.138,0.122s-0.057-0.097-0.112-0.143
		c-0.056-0.047-0.129-0.102-0.179-0.126c-0.052-0.024-0.141-0.051-0.196-0.104c-0.055-0.054-0.096-0.142-0.108-0.144
		c-0.013,0-0.03,0.015-0.071,0.012c-0.041-0.003-0.06-0.033-0.068-0.045c-0.01-0.014-0.014-0.042-0.014-0.042
		S-400.628-55.039-400.622-54.895L-400.622-54.895z M-400.937-55.482c0,0-0.003,0.154,0.078,0.219
		c0.082,0.066,0.174,0.078,0.174,0.078s-0.071,0.14-0.09,0.175c-0.02,0.034-0.042,0.042-0.042,0.042s-0.072-0.038-0.104-0.052
		c-0.03-0.015-0.041-0.076-0.041-0.076s0.046-0.036,0.097-0.044c0.052-0.01,0.096-0.014,0.096-0.014s-0.163-0.015-0.195-0.067
		C-400.997-55.272-400.985-55.402-400.937-55.482L-400.937-55.482z M-400.862-55.611c-0.001,0.003,0.021,0.048,0.039,0.086
		c0.018,0.038,0.035,0.082,0.035,0.082l-0.042-0.053c0,0,0.028,0.089,0.052,0.123c0.022,0.033,0.029,0.058,0.026,0.085
		c-0.004,0.028-0.006,0.037-0.016,0.037c-0.01,0-0.021-0.009-0.021-0.024c0-0.013,0.005-0.063-0.02-0.106
		C-400.831-55.424-400.852-55.475-400.862-55.611L-400.862-55.611z M-401.812-54.35c0,0,0.051,0.064,0.134,0.101
		c0.084,0.037,0.224,0.027,0.224,0.027s-0.103,0.052-0.206,0.033C-401.765-54.209-401.799-54.317-401.812-54.35L-401.812-54.35z
		 M-401.076-54.665c0,0,0.02,0.174,0.047,0.283c0.026,0.108,0.078,0.179,0.078,0.179S-401.124-54.333-401.076-54.665
		L-401.076-54.665z M-401.191-54.579c0,0,0.01,0.127-0.018,0.22c-0.026,0.091-0.088,0.12-0.088,0.12S-401.231-54.352-401.191-54.579
		L-401.191-54.579z M-400.823-53.929c0,0,0.016-0.047,0.015-0.07c0-0.021-0.02-0.021,0.074-0.037c0.097-0.015,0.17-0.047,0.17-0.047
		s-0.073,0.174-0.112,0.33c-0.039,0.155-0.017,0.265,0.013,0.362c0.029,0.099,0.074,0.165,0.074,0.165s-0.043,0.023-0.083,0.039
		c-0.041,0.015-0.101,0.021-0.101,0.021s0.021-0.183,0.017-0.243c-0.005-0.059-0.036-0.084-0.067-0.079
		c-0.031,0.005-0.067,0.019-0.067-0.006c0-0.024,0.055-0.075,0.04-0.138c-0.017-0.063-0.018-0.097,0.005-0.122
		C-400.821-53.779-400.808-53.901-400.823-53.929L-400.823-53.929z M-400.828-54.165c0,0,0.114,0.014,0.228-0.023
		c0.114-0.038,0.18-0.144,0.18-0.144s-0.012,0.113-0.125,0.18C-400.66-54.087-400.812-54.141-400.828-54.165L-400.828-54.165z
		 M-401.441-54.041c0,0,0.094,0.023,0.268,0.03c0.174,0.009,0.271-0.005,0.271-0.005s-0.119,0.031-0.242,0.04
		C-401.267-53.967-401.441-54.041-401.441-54.041L-401.441-54.041z M-401.837-52.975c0,0-0.017-0.017-0.01-0.04
		c0.007-0.022,0.041-0.039,0.041-0.039s0.021-0.037,0.046-0.097c0.026-0.061,0.049-0.13,0.049-0.13s0.091,0.069,0.23,0.117
		c0.14,0.048,0.283,0.053,0.283,0.053s-0.082,0.005-0.186,0.005s-0.184-0.056-0.184-0.056s0.027,0.062,0.052,0.084
		c0.024,0.021,0.051,0.036,0.051,0.036s-0.067-0.001-0.059,0.051c0.01,0.052,0.037,0.089,0.037,0.089s-0.066-0.04-0.125-0.053
		c-0.059-0.011-0.081-0.012-0.081-0.012s0.068,0.059,0.097,0.093c0.027,0.034,0.03,0.04,0.03,0.04s-0.044-0.011-0.085-0.028
		c-0.041-0.017-0.086-0.046-0.086-0.046s0.06,0.088,0.121,0.146c0.063,0.057,0.12,0.164,0.12,0.164s-0.131-0.063-0.153-0.109
		C-401.672-52.756-401.793-52.931-401.837-52.975L-401.837-52.975z M-401.883-52.873c0,0,0.041,0.082,0.086,0.141
		c0.045,0.06,0.095,0.134,0.095,0.134s-0.079-0.053-0.103-0.097C-401.831-52.738-401.883-52.873-401.883-52.873L-401.883-52.873z
		 M-401.929-52.977c0,0,0.016-0.012,0.037-0.001c0.022,0.011,0.143,0.152,0.159,0.172c0.016,0.021,0.03,0.067,0.03,0.067
		S-401.868-52.972-401.929-52.977L-401.929-52.977z M-401.189-52.996c0,0,0.01,0.086,0.002,0.211
		c-0.007,0.125-0.043,0.251-0.043,0.251L-401.189-52.996z M-402.766-52.016c0,0-0.005,0.005-0.011,0.041
		c-0.006,0.037-0.003,0.055-0.003,0.055s-0.052-0.005-0.072-0.021c-0.021-0.015-0.081-0.032-0.135-0.059
		c-0.055-0.027-0.162-0.1-0.218-0.163c-0.057-0.064-0.018-0.118,0.029-0.174c0.047-0.056,0.156-0.171,0.279-0.24
		c0.122-0.067,0.428-0.163,0.604-0.228c0.176-0.064,0.287-0.094,0.303-0.088c0.016,0.004,0.064,0.06,0.076,0.099
		c0.015,0.04,0.14,0.202,0.14,0.202s-0.078-0.054-0.16-0.094c-0.08-0.041-0.16-0.064-0.16-0.064l0.094,0.122
		c0,0-0.05-0.009-0.115-0.027c-0.066-0.019-0.094-0.052-0.094-0.052s0.03,0.037,0.039,0.069c0.011,0.034,0.028,0.057,0.028,0.057
		s-0.054,0.024-0.128,0.03c-0.075,0.004-0.131,0.007-0.131,0.007s-0.238,0.098-0.342,0.138c-0.104,0.039-0.221,0.057-0.267,0.1
		c-0.045,0.042-0.028,0.136,0.046,0.171c0.074,0.036,0.082,0.048,0.082,0.048l0.179-0.031c0,0-0.146,0.055-0.165,0.062
		c-0.019,0.005-0.026,0.011-0.026,0.011s0.074,0.011,0.082,0.012c0.008,0.001,0.013,0.004,0.008,0.021
		c-0.005,0.017-0.01,0.03-0.01,0.03S-402.778-52.021-402.766-52.016L-402.766-52.016z M-402.724-51.902
		c-0.004,0-0.022,0.003-0.029-0.015c-0.008-0.018,0.009-0.103,0.018-0.116c0.008-0.013,0.012-0.019,0.012-0.019
		s0.089,0.055,0.228,0.045c0.14-0.012,0.331-0.053,0.503-0.094c0.172-0.041,0.314-0.045,0.412-0.05
		c0.098-0.006,0.101,0.011,0.107,0.044c0.006,0.032,0.031,0.069,0.081,0.106c0.05,0.037,0.05,0.1,0.075,0.188
		c0.026,0.088,0.095,0.152,0.08,0.193c-0.017,0.041-0.028,0.051-0.02,0.093c0.007,0.042,0.013,0.061-0.008,0.072
		c-0.019,0.011-0.044-0.003-0.031-0.025c0.016-0.023,0.007-0.137,0-0.163c-0.006-0.027-0.065-0.097-0.092-0.145
		c-0.024-0.05-0.093-0.159-0.156-0.218c-0.064-0.058-0.205-0.031-0.329-0.002c-0.125,0.027-0.259,0.068-0.414,0.104
		C-402.441-51.869-402.612-51.893-402.724-51.902L-402.724-51.902z"/>
	<path style="fill-rule:evenodd;clip-rule:evenodd;fill:#141515;" d="M-402.88-48.498c0,0-0.26-0.031-0.275-0.092
		c-0.014-0.064,0.204-0.08,0.341-0.1c0.136-0.021,0.196-0.047,0.258-0.055c0.06-0.01,0.268,0.002,0.288-0.023
		c0.018-0.027,0.235-0.023,0.277-0.059c0.042-0.035,0.116-0.074,0.292-0.051c0.175,0.027,0.315-0.002,0.369-0.018
		c0.055-0.014,0.107,0.051,0.121,0.102c0.016,0.051,0.035,0.082,0.07,0.076c0.035-0.006,0.073-0.016,0.073-0.016
		s0.047,0,0.055-0.006c0.006-0.006,0.018-0.025,0.018-0.025s0.02,0.021,0.037,0.01c0.017-0.01,0.02-0.016,0.02-0.016
		s0.11-0.016,0.127-0.014c0.018,0.002,0.009,0.035,0.01,0.051c0.001,0.018,0.031,0.047,0.028,0.063
		c-0.005,0.02,0.024,0.041,0.191,0.072c0.168,0.031,0.267,0.111,0.209,0.131c-0.056,0.02-0.145,0.072-0.256,0.078
		c-0.111,0.008-0.213-0.057-0.29,0.012c-0.077,0.066-0.129,0.072-0.227,0.057c-0.099-0.014-0.277-0.002-0.357-0.002
		c-0.081,0-0.044-0.1-0.233-0.139C-401.921-48.5-402.713-48.459-402.88-48.498L-402.88-48.498z"/>
</g>
</svg>
